<svg xmlns="http://www.w3.org/2000/svg" viewBox="0 0 750 500"><g id="freepik--background-complete--inject-131"><circle cx="521.55" cy="111.26" r="40.24" transform="translate(293.59 593.37) rotate(-76.74)" style="fill:#e0e0e0"></circle><path d="M539.82,112.5a8.17,8.17,0,0,1-1.42.1l-3.92.07c-3.31,0-7.94.08-13.16.09h-.26v-2.87c0-5.83,0-11.11.08-14.92,0-1.85.06-3.37.08-4.53a11,11,0,0,1,.1-1.66,9.55,9.55,0,0,1,.1,1.66c0,1.16.05,2.68.09,4.53,0,3.81.07,9.09.07,14.92v2.61l-.26-.26c5.22,0,9.85,0,13.16.09l3.92.08A9.05,9.05,0,0,1,539.82,112.5Z" style="fill:#fafafa"></path><path d="M521.44,77.63a10.77,10.77,0,0,1,.27,3.38,10.77,10.77,0,0,1-.27,3.38,11.33,11.33,0,0,1-.26-3.38A11.33,11.33,0,0,1,521.44,77.63Z" style="fill:#fafafa"></path><path d="M539.78,83.06a11,11,0,0,1-2.17,2.54,11,11,0,0,1-2.54,2.17,11,11,0,0,1,2.17-2.54A11,11,0,0,1,539.78,83.06Z" style="fill:#fafafa"></path><path d="M550.5,94.77a13.86,13.86,0,0,1-2.77,1.85,14,14,0,0,1-2.92,1.61,15,15,0,0,1,5.69-3.46Z" style="fill:#fafafa"></path><path d="M556.79,112.15a41,41,0,0,1-9.22,0,41,41,0,0,1,9.22,0Z" style="fill:#fafafa"></path><path d="M492.86,111.54a36.52,36.52,0,0,1-8.7,0,36.52,36.52,0,0,1,8.7,0Z" style="fill:#fafafa"></path><path d="M497.39,124.48a19.35,19.35,0,0,1-3.29,3,18.92,18.92,0,0,1-3.62,2.58,18.88,18.88,0,0,1,3.29-3A18.43,18.43,0,0,1,497.39,124.48Z" style="fill:#fafafa"></path><path d="M508.54,134.48a28.79,28.79,0,0,1-2.24,3.88,27.26,27.26,0,0,1-2.38,3.8,15,15,0,0,1,1.93-4.06A14.72,14.72,0,0,1,508.54,134.48Z" style="fill:#fafafa"></path><path d="M521.44,147.39a20.89,20.89,0,0,1-.26-4.61,20.89,20.89,0,0,1,.26-4.61,19.83,19.83,0,0,1,.27,4.61A19.83,19.83,0,0,1,521.44,147.39Z" style="fill:#fafafa"></path><path d="M541.31,141.25a13.73,13.73,0,0,1-3.8-2.61,13.33,13.33,0,0,1-3.09-3.4,41.93,41.93,0,0,1,3.44,3A40.11,40.11,0,0,1,541.31,141.25Z" style="fill:#fafafa"></path><path d="M550.64,131.21a16,16,0,0,1-3-2.69,16,16,0,0,1-2.69-3.05,16.33,16.33,0,0,1,3.06,2.68A16,16,0,0,1,550.64,131.21Z" style="fill:#fafafa"></path><path d="M497,99.14a12.38,12.38,0,0,1-2.69-2.32,12.44,12.44,0,0,1-2.33-2.7,12.44,12.44,0,0,1,2.7,2.33A12.38,12.38,0,0,1,497,99.14Z" style="fill:#fafafa"></path><path d="M508.47,87a11.76,11.76,0,0,1-2.65-2.27,11.57,11.57,0,0,1-2.28-2.64,12.09,12.09,0,0,1,2.65,2.27A12.06,12.06,0,0,1,508.47,87Z" style="fill:#fafafa"></path><path d="M58.41,205.65l.64,0,1.83,0,6.92-.08,24.64-.22-.21.22c-.06-12.28-.14-27.06-.22-43l.26.26H87.7l-4.5,0-8.75,0-16.21,0,.23-.24c0,12.72,0,23.43,0,31,0,3.77,0,6.75,0,8.82,0,1,0,1.78,0,2.34,0,.26,0,.45,0,.61a.82.82,0,0,1,0,.22,1.31,1.31,0,0,1,0-.19c0-.15,0-.34,0-.58,0-.55,0-1.32,0-2.3,0-2.06-.05-5-.09-8.76-.06-7.6-.15-18.36-.25-31.13v-.24h.23l16.22-.09,8.75,0,4.5,0h4.56c-.23-.23.33.32.27.27,0,15.9.09,30.68.13,43v.22h-25l-6.86,0-1.79,0Z" style="fill:#e0e0e0"></path><rect x="73.28" y="204.62" width="4.72" height="1.15" transform="matrix(1, 0, 0, 1, -0.84, 0.31)" style="fill:#ebebeb"></rect><rect x="70.4" y="177.65" width="10.32" height="14.91" transform="matrix(1, 0, 0, 1, -0.76, 0.31)" style="fill:#e0e0e0"></rect><rect x="73.77" y="162.03" width="4.72" height="0.98" transform="translate(-0.66 0.31) rotate(-0.23)" style="fill:#ebebeb"></rect><rect x="609.58" y="88.94" width="35.05" height="23.62" transform="translate(-6.71 59.67) rotate(-5.42)" style="fill:#fff"></rect><path d="M645.66,110.86a3.13,3.13,0,0,1-.06-.44c0-.32-.09-.73-.15-1.26-.11-1.12-.28-2.72-.5-4.74-.41-4.11-1-10-1.73-17.06l.23.19-34.88,3.36.23-.28h0v.17l0,.2,0,.39.07.78.15,1.56c.09,1,.19,2.06.29,3.08q.29,3.06.56,6c.37,3.94.73,7.72,1.06,11.31l-.26-.22,25.09-2.26,7.21-.62,1.93-.15.5,0c.12,0,.18,0,.18,0a4.33,4.33,0,0,1-.62.09l-1.88.2-7.14.74-25.22,2.52-.24,0,0-.24c-.35-3.58-.71-7.37-1.09-11.3q-.29-3-.58-6c-.09-1-.19-2-.29-3.08l-.15-1.56-.07-.78,0-.39,0-.2V90.7h0l.24-.29,34.89-3.26h.21l0,.2c.63,7.17,1.15,13.07,1.52,17.21.17,2,.3,3.59.39,4.71,0,.51.07.91.1,1.22A3,3,0,0,1,645.66,110.86Z" style="fill:#e0e0e0"></path><path d="M643.43,87.34a9.3,9.3,0,0,1-1.06,1.33l-3.06,3.52c-2.6,3-6.23,7-10.3,11.56l-.14.16-.19-.12-.93-.59c-5.34-3.4-10.16-6.51-13.64-8.78L610,91.71l-1.1-.76c-.25-.18-.38-.28-.37-.3a1.84,1.84,0,0,1,.42.21l1.16.68,4.19,2.57c3.52,2.19,8.38,5.25,13.72,8.65l.93.6-.33,0C632.7,98.88,636.38,94.84,639,92l3.18-3.41A12.23,12.23,0,0,1,643.43,87.34Z" style="fill:#e0e0e0"></path><path d="M448.27,83.05a2.19,2.19,0,0,0,.87-.33,1.72,1.72,0,0,0,.61-.92,9.46,9.46,0,0,0,.05-1.56c0-2.44,0-5.89.06-10.14,0-1.07,0-2.19,0-3.36,0-.58,0-1.18,0-1.79a4.94,4.94,0,0,0,0-.87,1.54,1.54,0,0,0-.38-.71,1.37,1.37,0,0,0-.71-.38,8.93,8.93,0,0,0-.92,0h-6.12l-18.41,0A1.39,1.39,0,0,0,422,64.29c0,.8,0,1.6,0,2.39,0,1.59,0,3.15-.07,4.69-.05,3.08-.1,6-.15,8.88,0,.36,0,.71,0,1.06a1.4,1.4,0,0,0,.21.86,1.31,1.31,0,0,0,.65.56,2.64,2.64,0,0,0,.92.09h3.9l7,0,10.14.08,2.76,0,.71,0,.25,0-.25,0-.71,0-2.76.05-10.14.08-7,0-3.9,0a3,3,0,0,1-1.08-.12,1.79,1.79,0,0,1-.89-.74,2,2,0,0,1-.29-1.12c0-.35,0-.7,0-1,0-2.84.08-5.81.12-8.88,0-1.54,0-3.11.06-4.7,0-.8,0-1.61,0-2.42a1.91,1.91,0,0,1,1.87-1.76l18.41,0h6.12a7.06,7.06,0,0,1,1,0,1.78,1.78,0,0,1,.93.51,1.81,1.81,0,0,1,.48.93,4.52,4.52,0,0,1,0,1c0,.61,0,1.2,0,1.79,0,1.16-.05,2.28-.07,3.36-.09,4.24-.17,7.69-.22,10.13a9.73,9.73,0,0,1-.11,1.6,1.74,1.74,0,0,1-.7,1,1.57,1.57,0,0,1-.69.25A.73.73,0,0,1,448.27,83.05Z" style="fill:#e0e0e0"></path><polygon points="436.88 71.17 440.29 73.24 436.8 75.29 433.32 77.33 433.39 73.22 433.46 69.1 436.88 71.17" style="fill:#e0e0e0"></polygon><polygon points="152.71 61.32 103.17 61.32 103.17 125.91 152.71 127.15 152.71 61.32" style="fill:#ebebeb"></polygon><polygon points="149.15 63.62 105.81 63.62 105.81 122.2 149.15 123.66 149.15 63.62" style="fill:#fafafa"></polygon><polygon points="141.86 74.26 113.09 73.17 113.09 114.11 141.86 114.11 141.86 74.26" style="fill:#e0e0e0"></polygon><polygon points="113.09 114.11 141.86 93.08 113.09 73.17 113.09 114.11" style="fill:#f5f5f5"></polygon><path d="M521.82,406.19c-18.13-12.66-22.24-36.17-21.52-57.3.12-3.53-.27-7.25,1.41-10.34s5.59-5.21,8.75-3.73c2.62,1.24,3.76,4.28,5.23,6.8a20.54,20.54,0,0,0,8.27,7.9c2.25,1.17,5,1.88,7.24.66,3-1.68,3.4-5.88,3.38-9.39l-.12-19.62c0-3.5,0-7.09,1.06-10.42s3.5-6.42,6.84-7.35,7.46,1,8.17,4.42a33.44,33.44,0,0,1,.1,4.37c.09,1.45.77,3.07,2.15,3.47s2.81-.58,3.86-1.61c3.62-3.54,6.08-8.1,8.37-12.64s4.53-9.19,7.81-13.05,7.83-6.92,12.86-7.21,10.37,2.82,11.64,7.75-1.61,10-4.75,14a78.49,78.49,0,0,1-16.3,15.54,6.38,6.38,0,0,0-2.73,2.93c-.76,2.34,1.45,4.66,3.76,5.43,2.62.87,5.46.6,8.19.92s5.7,1.53,6.73,4.12c1.44,3.58-1.56,7.34-4.51,9.8a66.91,66.91,0,0,1-19.85,11.46c-2.58.95-5.3,1.78-7.38,3.59s1.15,8.23,2.41,10.7,0,0,2.7-.5,5.12-2,7.7-2.94c4.82-1.82,11-1.49,14.13,2.68,2,2.74,2.21,6.55,1.18,9.82a25.6,25.6,0,0,1-5.31,8.67,67.52,67.52,0,0,1-28.81,20.24c-11.18,3.88-21.54,4.93-32.66.86" style="fill:#ebebeb"></path><path d="M521.55,421.86a153.76,153.76,0,0,1,5.73-28.92,314.14,314.14,0,0,1,12.48-33.84c1.25-2.94,2.5-5.84,3.72-8.7s2.45-5.69,3.81-8.38A158.55,158.55,0,0,1,556,327c3-4.64,6-8.94,8.88-12.94s5.6-7.68,8.24-10.92a125.08,125.08,0,0,1,13.59-14.36c1.73-1.56,3.11-2.73,4.06-3.51l1.08-.88a2.61,2.61,0,0,1,.39-.28,3.09,3.09,0,0,1-.35.33l-1,.93c-.92.81-2.27,2-4,3.6a131.94,131.94,0,0,0-13.4,14.46c-2.61,3.26-5.33,6.94-8.17,10.94s-5.83,8.32-8.82,13a160.07,160.07,0,0,0-8.65,15c-1.35,2.68-2.56,5.48-3.79,8.35s-2.47,5.76-3.72,8.7a319.4,319.4,0,0,0-12.5,33.76A156,156,0,0,0,522,421.9" style="fill:#e0e0e0"></path><path d="M547.48,342a7.34,7.34,0,0,1-.34-1.49c-.19-1-.41-2.38-.65-4.13-.5-3.49-1-8.34-1.57-13.69s-1.15-10.17-1.69-13.65c-.27-1.74-.5-3.14-.68-4.11a6.77,6.77,0,0,1-.19-1.52,7.84,7.84,0,0,1,.44,1.47c.25.95.55,2.35.87,4.08.67,3.47,1.33,8.31,1.89,13.66s1,10.05,1.38,13.7c.17,1.65.32,3,.44,4.15A7,7,0,0,1,547.48,342Z" style="fill:#e0e0e0"></path><path d="M592.58,333.56a9.3,9.3,0,0,1-1.8.22c-1.15.1-2.83.24-4.89.48-4.13.45-9.82,1.26-16,2.44S558,339.2,554,340.26c-2,.52-3.63,1-4.75,1.3a8.77,8.77,0,0,1-1.76.43,10.24,10.24,0,0,1,1.68-.67c1.1-.39,2.71-.92,4.71-1.5,4-1.19,9.6-2.57,15.85-3.77a161.47,161.47,0,0,1,16.12-2.25c2.08-.18,3.77-.25,4.93-.27A10.56,10.56,0,0,1,592.58,333.56Z" style="fill:#e0e0e0"></path><path d="M527.83,392.11a2.63,2.63,0,0,1-.31-.55l-.77-1.63c-.66-1.42-1.57-3.5-2.65-6.08-2.18-5.17-5-12.4-7.92-20.42s-5.68-15.28-7.74-20.48c-1-2.53-1.85-4.61-2.47-6.16l-.66-1.68a2.51,2.51,0,0,1-.19-.6,2.16,2.16,0,0,1,.31.55c.21.44.47,1,.77,1.63.67,1.42,1.57,3.5,2.66,6.08,2.18,5.17,5,12.4,7.92,20.43s5.67,15.27,7.74,20.47l2.46,6.16c.27.67.48,1.23.66,1.68A2.13,2.13,0,0,1,527.83,392.11Z" style="fill:#e0e0e0"></path><path d="M587.77,372.8a2.89,2.89,0,0,1-.6.24l-1.74.59L579,375.71c-5.42,1.75-12.87,4.27-21.11,7.05s-15.72,5.24-21.18,6.89c-2.73.82-4.94,1.46-6.48,1.88l-1.78.46a2,2,0,0,1-.63.12,2.89,2.89,0,0,1,.6-.24l1.74-.58,6.41-2.08c5.42-1.76,12.88-4.28,21.12-7.06s15.72-5.24,21.18-6.89c2.73-.82,4.94-1.46,6.48-1.88l1.78-.46A2,2,0,0,1,587.77,372.8Z" style="fill:#e0e0e0"></path></g><g id="freepik--Calendar--inject-131"><path d="M174.16,175.54s-18.73,202.21,20.3,267.22l347.14,4.1s-57.5-175.28-52.52-276.61Z" style="fill:#e0e0e0"></path><path d="M174.16,175.54s-22,208.51,46.55,253.07H555.27s-59.38-101.79-64.06-253.07Z" style="fill:#ebebeb"></path><rect x="172.46" y="126.78" width="325.48" height="52.19" style="fill:#263238"></rect><path d="M201.55,127.19s3.28-11.79,15.24-11.79c10.19,0,15.24,8.18,15.24,15.68s-4.63,15.43-15.24,16" style="fill:none;stroke:#e0e0e0;stroke-linecap:round;stroke-linejoin:round;stroke-width:3px"></path><rect x="196.71" y="126.6" width="16.06" height="7.17" style="fill:#263238"></rect><path d="M263.38,127.19s3.28-11.79,15.24-11.79c10.19,0,15.24,8.18,15.24,15.68s-4.63,15.43-15.24,16" style="fill:none;stroke:#e0e0e0;stroke-linecap:round;stroke-linejoin:round;stroke-width:3px"></path><rect x="258.55" y="126.6" width="16.06" height="7.17" style="fill:#263238"></rect><path d="M325.22,127.19s3.28-11.79,15.24-11.79c10.19,0,15.24,8.18,15.24,15.68s-4.63,15.43-15.24,16" style="fill:none;stroke:#e0e0e0;stroke-linecap:round;stroke-linejoin:round;stroke-width:3px"></path><rect x="320.38" y="126.6" width="16.06" height="7.17" style="fill:#263238"></rect><path d="M387.05,127.19s3.28-11.79,15.24-11.79c10.19,0,15.24,8.18,15.24,15.68s-4.63,15.43-15.24,16" style="fill:none;stroke:#e0e0e0;stroke-linecap:round;stroke-linejoin:round;stroke-width:3px"></path><rect x="382.22" y="126.6" width="16.06" height="7.17" style="fill:#263238"></rect><path d="M448.89,127.19s3.28-11.79,15.24-11.79c10.19,0,15.24,8.18,15.24,15.68s-4.63,15.43-15.24,16" style="fill:none;stroke:#e0e0e0;stroke-linecap:round;stroke-linejoin:round;stroke-width:3px"></path><rect x="444.05" y="126.6" width="16.06" height="7.17" style="fill:#263238"></rect><path d="M172.49,180.91s-3.6,232.37,71.72,232.37l309.39.11s-44.22-45.12-57.32-232.48Z" style="fill:#f5f5f5"></path><path d="M509.46,384.6c-.07-.2-.4-1.14-1.13-3.18s-1.86-5.16-3.21-9.26c-2.77-8.15-6.64-20.2-11.07-35.77-8.91-31.12-19.65-76.47-28-132.36l.21.18-262.33,0h-2.5l.26-.3c4.72,33.64,9.57,66.43,17.42,97.14a349.32,349.32,0,0,0,14.23,44.14A258.06,258.06,0,0,0,253,384.47l-.2-.11,256.65.24-256.65.23h-.13l-.07-.11a258.6,258.6,0,0,1-19.74-39.3,350.67,350.67,0,0,1-14.26-44.19c-7.87-30.75-12.72-63.55-17.45-97.2l0-.3h2.8l262.33.05h.18l0,.18c8.31,55.89,19,101.24,27.82,132.36,4.4,15.58,8.22,27.64,11,35.8S509.33,384.19,509.46,384.6Z" style="fill:#263238"></path><path d="M481.67,294.16c0,.15-59.08.26-131.94.26s-132-.11-132-.26,59.07-.26,132-.26S481.67,294,481.67,294.16Z" style="fill:#263238"></path><path d="M495.89,342.43c0,.14-59.1.26-132,.26s-132-.12-132-.26,59.08-.26,132-.26S495.89,342.28,495.89,342.43Z" style="fill:#263238"></path><path d="M472.74,247.65c0,.14-59.08.26-131.94.26s-132-.12-132-.26,59.07-.26,132-.26S472.74,247.5,472.74,247.65Z" style="fill:#263238"></path><path d="M295.8,384.6s-.06-.15-.16-.45-.25-.77-.43-1.34c-.38-1.21-.92-2.95-1.62-5.17-1.4-4.49-3.36-11-5.73-19.07-4.71-16.14-10.95-38.52-17-63.46-3-12.47-5.69-24.4-8-35.28s-4.2-20.71-5.67-29c-.77-4.14-1.4-7.89-2-11.18s-1-6.13-1.38-8.45-.63-4.11-.82-5.35c-.08-.6-.15-1.06-.2-1.4s-.05-.47-.05-.47a4.07,4.07,0,0,1,.11.46c.06.34.14.8.25,1.39l.91,5.33c.38,2.32.88,5.16,1.47,8.44s1.24,7,2,11.16c1.52,8.27,3.5,18.08,5.78,29s5,22.79,8,35.26c6,24.93,12.21,47.32,16.83,63.48,2.32,8.07,4.22,14.6,5.57,19.11.65,2.24,1.16,4,1.52,5.19l.38,1.36C295.77,384.44,295.8,384.6,295.8,384.6Z" style="fill:#263238"></path><path d="M347,384.6s-.06-.15-.16-.46l-.42-1.34-1.58-5.18c-1.37-4.49-3.29-11-5.63-19.09-4.64-16.16-10.92-38.53-17-63.45s-10.91-47.67-13.87-64.22c-.76-4.13-1.42-7.88-1.94-11.18s-1-6.13-1.35-8.46-.6-4.1-.78-5.35c-.08-.6-.14-1.06-.19-1.4S304,204,304,204s0,.15.1.47l.24,1.38c.21,1.25.5,3,.88,5.34s.86,5.16,1.43,8.45,1.24,7,2,11.16c3.05,16.52,7.86,39.25,14,64.16s12.32,47.28,16.87,63.46l5.48,19.15c.64,2.24,1.13,4,1.48,5.2l.37,1.36A3.43,3.43,0,0,1,347,384.6Z" style="fill:#263238"></path><path d="M400.5,384.6a4.69,4.69,0,0,1-.17-.45c-.1-.33-.25-.77-.44-1.34l-1.63-5.17c-1.43-4.48-3.42-11-5.85-19-4.8-16.12-11.29-38.44-17.49-63.35S364,247.56,361.28,231c-.69-4.14-1.3-7.9-1.76-11.21s-.9-6.15-1.17-8.49-.5-4.12-.65-5.38c-.07-.59-.12-1.06-.16-1.4s0-.47,0-.47,0,.15.08.47l.21,1.39c.18,1.25.43,3,.75,5.36s.75,5.18,1.26,8.48,1.12,7.05,1.83,11.19c2.82,16.58,7.54,39.34,13.78,64.23s12.63,47.23,17.35,63.37c2.39,8.05,4.33,14.56,5.68,19.09.66,2.24,1.18,4,1.54,5.2q.25.86.39,1.35C400.47,384.44,400.5,384.6,400.5,384.6Z" style="fill:#263238"></path><path d="M454,384.6a4.69,4.69,0,0,1-.17-.45l-.45-1.34c-.4-1.2-1-2.93-1.69-5.15-1.46-4.47-3.52-11-6-19-5-16.08-11.66-38.36-18-63.25-3.2-12.44-6-24.36-8.2-35.27-1.18-5.44-2.11-10.65-3-15.51q-.63-3.66-1.21-7.06c-.39-2.26-.75-4.44-1-6.52C411.62,214.4,411,204,411,204s0,.16.07.47.1.8.17,1.4c.14,1.26.33,3.07.59,5.39s.63,5.19,1.06,8.5,1,7.08,1.63,11.23c.3,2.08.68,4.26,1.08,6.52s.81,4.61,1.23,7.05c.95,4.85,1.9,10.05,3.08,15.48,2.27,10.89,5.05,22.81,8.24,35.25,6.35,24.87,13,47.16,17.86,63.26l5.86,19.05c.69,2.23,1.23,4,1.6,5.18.17.58.3,1,.4,1.35S454,384.6,454,384.6Z" style="fill:#263238"></path><path d="M260.82,221.88s2.25,21.91,10.95,35.59H323s-12.45-22.16-14-37.56l-1.12-8.63H260Z" style="fill:#455a64"></path><path d="M303.34,225.72c0,.15-7.29.26-16.29.26s-16.29-.11-16.29-.26,7.29-.26,16.29-.26S303.34,225.58,303.34,225.72Z" style="fill:#fafafa"></path><path d="M305,231.26c0,.15-7.29.26-16.29.26s-16.29-.11-16.29-.26,7.29-.26,16.29-.26S305,231.12,305,231.26Z" style="fill:#fafafa"></path><path d="M306.6,236.8c0,.14-7.29.26-16.29.26S274,236.94,274,236.8s7.29-.26,16.29-.26S306.6,236.66,306.6,236.8Z" style="fill:#fafafa"></path><path d="M308.23,242.34c0,.14-7.29.26-16.29.26s-16.29-.12-16.29-.26,7.29-.26,16.29-.26S308.23,242.19,308.23,242.34Z" style="fill:#fafafa"></path><path d="M436.63,275.89s2.25,21.91,10.95,35.58h51.21s-12.45-22.15-14-37.55l-1.12-8.64h-47.9Z" style="fill:#263238"></path><path d="M479.15,278.63c0,.15-7.29.26-16.29.26s-16.29-.11-16.29-.26,7.3-.26,16.29-.26S479.15,278.49,479.15,278.63Z" style="fill:#e0e0e0"></path><path d="M480.78,284.17c0,.14-7.29.26-16.29.26s-16.29-.12-16.29-.26,7.29-.26,16.29-.26S480.78,284,480.78,284.17Z" style="fill:#e0e0e0"></path><path d="M482.41,289.71c0,.14-7.29.26-16.29.26s-16.29-.12-16.29-.26,7.29-.26,16.29-.26S482.41,289.57,482.41,289.71Z" style="fill:#e0e0e0"></path><path d="M484,295.25c0,.14-7.29.26-16.29.26s-16.29-.12-16.29-.26,7.29-.26,16.29-.26S484,295.1,484,295.25Z" style="fill:#e0e0e0"></path><path d="M403.58,208.09c.53.43-6.1,9.26-16.12,18.4s-19.36,15-19.74,14.45,8.13-7.32,18-16.37S403,207.6,403.58,208.09Z" style="fill:#00CE00"></path><path d="M413.29,241.77c-.42.59-11.61-6.69-25.39-15.68s-24.93-16.32-24.56-17,12.16,5.73,26,14.77S413.7,241.19,413.29,241.77Z" style="fill:#00CE00"></path><path d="M316.66,237.7c-.44-.57,6.93-6.91,16.45-14.16s17.59-12.66,18-12.09-6.93,6.91-16.45,14.16S317.09,238.27,316.66,237.7Z" style="fill:#00CE00"></path><path d="M357.11,240.79c-.46.6-10.26-6.31-22.71-14.25s-22.8-14-22.46-14.63,11.33,4.4,23.87,12.44S357.54,240.25,357.11,240.79Z" style="fill:#00CE00"></path><path d="M359.93,299.15c0-.08.51-.2,1.51-.27a16.67,16.67,0,0,1,4.38.44,19.88,19.88,0,0,1,6.44,2.76,20.38,20.38,0,0,1,6.47,6.74,21.94,21.94,0,0,1,2.95,11,24.07,24.07,0,0,1-.8,6.34,23.35,23.35,0,0,1-2.74,6.23,25.76,25.76,0,0,1-26.21,11.43,26.16,26.16,0,0,1-13.8-7A23.74,23.74,0,0,1,331.46,324a24.39,24.39,0,0,1,1.2-13,20.92,20.92,0,0,1,6.78-9.11,22.63,22.63,0,0,1,8.38-4.07,20.51,20.51,0,0,1,7-.58,9.21,9.21,0,0,1,1.35.17c.42.07.81.12,1.17.21.71.2,1.31.34,1.78.53.93.38,1.4.62,1.37.7-.08.25-2-.58-5.72-.6a21.42,21.42,0,0,0-6.53,1,21.82,21.82,0,0,0-7.62,4.11,19.33,19.33,0,0,0-5.91,8.43,22.38,22.38,0,0,0-.86,11.8A21.44,21.44,0,0,0,339.91,335a23.79,23.79,0,0,0,12.47,6.25,23.23,23.23,0,0,0,13.82-1.71,23.53,23.53,0,0,0,9.92-8.45,21.14,21.14,0,0,0,2.55-5.54,22.15,22.15,0,0,0,.85-5.73,20.52,20.52,0,0,0-2.39-10,19.49,19.49,0,0,0-5.7-6.45,20.53,20.53,0,0,0-5.88-3C362.05,299.21,359.92,299.39,359.93,299.15Z" style="fill:#00CE00"></path><path d="M217.67,288.36c-.54-.45,5.76-9,14.61-18.7,8.7-9.53,16.68-16.87,17.32-16.22s-6.61,8.35-15.4,18S218.24,288.82,217.67,288.36Z" style="fill:#00CE00"></path><path d="M258.23,284.28c-.38.61-10.61-5-22.85-12.59s-21.86-14.2-21.48-14.81,10.49,5,22.74,12.59S258.61,283.67,258.23,284.28Z" style="fill:#00CE00"></path><path d="M355.51,307.08l3.91,5.61a1.68,1.68,0,0,0,1.42.74l6.84,0a1.73,1.73,0,0,1,1.39,2.77l-4.13,5.45a1.72,1.72,0,0,0-.26,1.58l2.15,6.49a1.72,1.72,0,0,1-2.2,2.17l-6.46-2.24a1.77,1.77,0,0,0-1.59.24l-5.51,4.06a1.72,1.72,0,0,1-2.74-1.43l.13-6.83a1.74,1.74,0,0,0-.72-1.44l-5.55-4a1.71,1.71,0,0,1,.5-3l6.55-2a1.74,1.74,0,0,0,1.14-1.13l2.07-6.51A1.73,1.73,0,0,1,355.51,307.08Z" style="fill:#00CE00"></path><path d="M462,208.33c.48.53-8.23,9.12-19.46,19.17s-20.72,17.76-21.2,17.22,8.23-9.11,19.46-19.16S461.51,207.79,462,208.33Z" style="fill:#00CE00"></path><path d="M468.52,239.22c-.32.64-12.53-4.83-27.26-12.21s-26.43-13.9-26.1-14.55,12.52,4.83,27.26,12.22S468.84,238.58,468.52,239.22Z" style="fill:#00CE00"></path><polygon points="449.83 219.84 509.46 219.84 523.77 230.91 511.15 241.26 453.98 241.2 449.83 219.84" style="fill:#455a64"></polygon><path d="M355.51,307.08l3.91,5.61a1.68,1.68,0,0,0,1.42.74l6.84,0a1.73,1.73,0,0,1,1.39,2.77l-4.13,5.45a1.72,1.72,0,0,0-.26,1.58l2.15,6.49a1.72,1.72,0,0,1-2.2,2.17l-6.46-2.24a1.77,1.77,0,0,0-1.59.24l-5.51,4.06a1.72,1.72,0,0,1-2.74-1.43l.13-6.83a1.74,1.74,0,0,0-.72-1.44l-5.55-4a1.71,1.71,0,0,1,.5-3l6.55-2a1.74,1.74,0,0,0,1.14-1.13l2.07-6.51A1.73,1.73,0,0,1,355.51,307.08Z" style="fill:#fff;opacity:0.2"></path></g><g id="freepik--character-2--inject-131"><path d="M606.92,440.3l.05-8.42h15.77l.06,12.31-1,.07c-4.35.24-22.14.94-25,.06C593.53,443.32,606.92,440.3,606.92,440.3Z" style="fill:#00CE00"></path><g style="opacity:0.6000000000000001"><path d="M617.1,444.26a5.44,5.44,0,0,1,2-3.36,5.33,5.33,0,0,1,3.68-1.15v4.41Z" style="fill:#fff"></path></g><g style="opacity:0.6000000000000001"><path d="M600.4,442s-4.69,1.36-4.1,2.13,18.58.75,26.52,0l0-.35-21,.21S601.32,442,600.4,442Z" style="fill:#fff"></path></g><path d="M622.91,443.7l-.27,0-.78,0-2.87.12c-2.42.09-5.76.17-9.46.18s-7-.06-9.46-.14l-2.86-.11-.78-.05-.27,0h1.05l2.87.06c2.42,0,5.76.09,9.45.08s7-.07,9.46-.12l2.87-.07h1Z" style="fill:#263238"></path><path d="M601.8,444.33a6.31,6.31,0,0,0-.54-1.36,7.08,7.08,0,0,0-1-1.1,2.14,2.14,0,0,1,1.14,1A2.11,2.11,0,0,1,601.8,444.33Z" style="fill:#263238"></path><path d="M606.75,441.6s-.27-.24-.5-.61-.38-.67-.33-.7.26.24.49.6A1.75,1.75,0,0,1,606.75,441.6Z" style="fill:#263238"></path><path d="M608,440.92s-.29-.13-.56-.37-.46-.47-.43-.51.28.13.56.37S608.06,440.88,608,440.92Z" style="fill:#263238"></path><path d="M608.83,439.43c0,.06-.37.1-.82.11s-.83,0-.83-.09a1.89,1.89,0,0,1,.83-.1A1.86,1.86,0,0,1,608.83,439.43Z" style="fill:#263238"></path><path d="M609.11,438.38a1.63,1.63,0,0,1-.92.27,1.74,1.74,0,0,1-1-.12,4.34,4.34,0,0,1,.93-.07A5.22,5.22,0,0,1,609.11,438.38Z" style="fill:#263238"></path><path d="M606.21,440.22a3,3,0,0,1-1,0,6,6,0,0,1-1.08-.24,3.1,3.1,0,0,1-.62-.25.55.55,0,0,1-.25-.32.39.39,0,0,1,.16-.4,1.85,1.85,0,0,1,2.29.54,1.7,1.7,0,0,1,.33.67c.05.18,0,.28,0,.28a2.76,2.76,0,0,0-.46-.87,2,2,0,0,0-.87-.56,1.57,1.57,0,0,0-1.2.09c-.16.12-.1.31.08.41a2.64,2.64,0,0,0,.57.24,5.73,5.73,0,0,0,1,.27C605.83,440.19,606.21,440.19,606.21,440.22Z" style="fill:#263238"></path><path d="M606,440.27a1,1,0,0,1-.12-.7,1.75,1.75,0,0,1,.28-.74,1.05,1.05,0,0,1,.84-.52.4.4,0,0,1,.31.47.9.9,0,0,1-.17.45,3.33,3.33,0,0,1-.47.62,1.48,1.48,0,0,1-.58.41s.2-.18.48-.51a3.89,3.89,0,0,0,.42-.6c.14-.22.23-.6,0-.65s-.51.23-.67.43a1.68,1.68,0,0,0-.28.66A3.24,3.24,0,0,0,606,440.27Z" style="fill:#263238"></path><path d="M623,439.68s-.45,0-1.16.05a5.07,5.07,0,0,0-2.54,1,5.16,5.16,0,0,0-1.59,2.24c-.24.68-.26,1.13-.3,1.13a1.3,1.3,0,0,1,0-.32,5,5,0,0,1,.17-.85,4.82,4.82,0,0,1,4.24-3.39,4.6,4.6,0,0,1,.87,0A1.07,1.07,0,0,1,623,439.68Z" style="fill:#263238"></path><path d="M621.37,432.63a55.31,55.31,0,0,1,.09,6.48,55.31,55.31,0,0,1-.09-6.48Z" style="fill:#263238"></path><path d="M615.41,442.21a8.81,8.81,0,0,1-2.3.23,8.65,8.65,0,0,1-2.3-.18c0-.06,1,0,2.3,0S615.41,442.15,615.41,442.21Z" style="fill:#263238"></path><path d="M618.5,442.2s-.08.22-.18.46-.17.44-.22.44-.08-.25,0-.52S618.47,442.16,618.5,442.2Z" style="fill:#263238"></path><path d="M619.67,440.75s-.07.2-.23.37-.33.27-.36.23.06-.2.22-.37S619.63,440.71,619.67,440.75Z" style="fill:#263238"></path><path d="M621.33,440.09c0,.05-.22.05-.45.13s-.4.21-.44.17.09-.25.38-.35S621.35,440,621.33,440.09Z" style="fill:#263238"></path><path d="M622.52,439.77c0,.05-.07.13-.2.18s-.26.06-.28,0,.08-.13.21-.18S622.5,439.72,622.52,439.77Z" style="fill:#263238"></path><polygon points="553.46 162.41 692.24 168 692.24 200 551.41 194.83 553.46 162.41" style="fill:#00CE00"></polygon><path d="M528.68,174.31s-7.9-.94-9.77,2.46c0,0,1.6,4.32,9.43,4Z" style="fill:#00CE00"></path><path d="M528,172.82l-.79,8.85,9.51.93s3.91.32,8.42,5.17,6.29,7.06,6.29,7.06l2.05-32.42-6.25,5.86a15.26,15.26,0,0,1-4.22,2.79,23.73,23.73,0,0,1-5.93,2A67.88,67.88,0,0,1,528,172.82Z" style="fill:#263238"></path><path d="M692.24,168s8.37,4.79,6.7,17.17c-1.43,10.67-6.7,14.84-6.7,14.84Z" style="fill:#263238"></path><polygon points="552.8 174.23 692.24 179.33 692.24 187.99 552.28 182.42 552.8 174.23" style="fill:#fff;opacity:0.4"></polygon><g style="opacity:0.30000000000000004"><path d="M633,167.69c2.17.16,3.62,2.26,5.53,3.31s4.18,1,6,2.07a6,6,0,0,1,1.2,9.52c-1.63,1.55-4.26,2.4-4.74,4.6-.21,1-.35,2.48-1.34,2.32-.55-.08-.82-.7-1.22-1.08-.85-.82-2.33-.46-3.18.36a16,16,0,0,0-2,2.94,3.36,3.36,0,0,1-2.85,1.78c0,1.32,0,2.91,0,4.23l-6.84-.34.77-27.85Z"></path></g><path d="M655.24,440.8l0-8.41H639.42l-.06,12.31,1,.06c4.35.25,22.13.94,25,.06C668.63,443.83,655.24,440.8,655.24,440.8Z" style="fill:#00CE00"></path><g style="opacity:0.6000000000000001"><path d="M645.06,444.77a5.46,5.46,0,0,0-2-3.37,5.28,5.28,0,0,0-3.68-1.14v4.4Z" style="fill:#fff"></path></g><g style="opacity:0.6000000000000001"><path d="M661.76,442.5s4.69,1.36,4.1,2.13-18.58.75-26.52.05l0-.36,21,.21S660.84,442.54,661.76,442.5Z" style="fill:#fff"></path></g><path d="M639.25,444.2a.94.94,0,0,0,.27,0l.78,0,2.87.13c2.42.09,5.76.17,9.46.18s7-.06,9.46-.14l2.86-.12.78,0,.27,0h-1l-2.87.05c-2.42.05-5.76.09-9.45.08s-7-.06-9.46-.12l-2.87-.06-.78,0Z" style="fill:#263238"></path><path d="M660.36,444.84a6.08,6.08,0,0,1,.54-1.37,7.08,7.08,0,0,1,1-1.1,2.19,2.19,0,0,0-1.14,1A2.1,2.1,0,0,0,660.36,444.84Z" style="fill:#263238"></path><path d="M655.41,442.1s.27-.24.5-.6.38-.68.33-.71-.26.24-.49.6S655.36,442.07,655.41,442.1Z" style="fill:#263238"></path><path d="M654.13,441.42s.29-.12.56-.37.46-.47.43-.51-.29.13-.56.37S654.1,441.39,654.13,441.42Z" style="fill:#263238"></path><path d="M653.33,439.94a1.86,1.86,0,0,0,.82.1A1.92,1.92,0,0,0,655,440c0-.06-.37-.1-.83-.11S653.33,439.88,653.33,439.94Z" style="fill:#263238"></path><path d="M653.05,438.89a1.77,1.77,0,0,0,.92.26,1.57,1.57,0,0,0,.95-.12A4.34,4.34,0,0,0,654,439,4.7,4.7,0,0,0,653.05,438.89Z" style="fill:#263238"></path><path d="M656,440.73a2.84,2.84,0,0,0,1,0,6.81,6.81,0,0,0,1.08-.23,3.44,3.44,0,0,0,.62-.26.53.53,0,0,0,.25-.31.41.41,0,0,0-.16-.41,1.85,1.85,0,0,0-2.29.54,2,2,0,0,0-.34.68.52.52,0,0,0,0,.27,2.67,2.67,0,0,1,.46-.86,1.78,1.78,0,0,1,.87-.56,1.52,1.52,0,0,1,1.2.08c.16.12.1.31-.08.42a3.25,3.25,0,0,1-.57.24,8,8,0,0,1-1,.27C656.33,440.69,656,440.7,656,440.73Z" style="fill:#263238"></path><path d="M656.21,440.78a1.09,1.09,0,0,0,.12-.71,1.8,1.8,0,0,0-.28-.74,1,1,0,0,0-.84-.51.4.4,0,0,0-.32.46,1.11,1.11,0,0,0,.18.46,3.59,3.59,0,0,0,.47.61,1.48,1.48,0,0,0,.58.41s-.2-.18-.48-.5a3.41,3.41,0,0,1-.42-.61c-.14-.22-.23-.6,0-.65s.51.23.67.44a1.59,1.59,0,0,1,.28.65A4.53,4.53,0,0,1,656.21,440.78Z" style="fill:#263238"></path><path d="M639.15,440.19s.45,0,1.16,0a5.07,5.07,0,0,1,2.54,1,5.18,5.18,0,0,1,1.59,2.25,10.71,10.71,0,0,1,.29,1.12s0-.11,0-.32a4.49,4.49,0,0,0-.18-.85,4.77,4.77,0,0,0-4.23-3.38,3.88,3.88,0,0,0-.87,0A1.07,1.07,0,0,0,639.15,440.19Z" style="fill:#263238"></path><path d="M640.79,433.13a29.91,29.91,0,0,0-.14,3.24,27,27,0,0,0,.05,3.24,55.31,55.31,0,0,0,.09-6.48Z" style="fill:#263238"></path><path d="M646.74,442.71a8.89,8.89,0,0,0,2.3.23,8.7,8.7,0,0,0,2.31-.18c0-.05-1,0-2.3,0S646.75,442.66,646.74,442.71Z" style="fill:#263238"></path><path d="M643.65,442.7s.09.22.19.46.17.45.22.44.08-.25,0-.52S643.69,442.67,643.65,442.7Z" style="fill:#263238"></path><path d="M642.49,441.25s.07.21.23.37.32.27.36.23-.06-.2-.22-.36S642.53,441.22,642.49,441.25Z" style="fill:#263238"></path><path d="M640.83,440.59c0,.05.22.05.45.13s.4.21.44.17-.09-.25-.38-.35S640.81,440.54,640.83,440.59Z" style="fill:#263238"></path><path d="M639.64,440.28c0,.05.07.13.2.18s.26.05.27,0-.07-.13-.2-.18S639.66,440.23,639.64,440.28Z" style="fill:#263238"></path><path d="M598.37,204.92s-24.45,10.34-25.23,10-1.35-19.29-1.35-19.29l-12.2-.45s-2.28,28.86,5,33.54c10,6.4,34.28-6.91,34.28-6.91Z" style="fill:#ffbe9d"></path><path d="M610.68,198.15c0-3.06,0-5.72,0-5.72s-6.17-.65-6.55-6.77,0-20.23,0-20.23l11.24-5.49,12.36,9.36-1.3,29.13a7.86,7.86,0,0,1-7.85,7.5h0A7.85,7.85,0,0,1,610.68,198.15Z" style="fill:#ffbe9d"></path><path d="M605.4,175.72a.79.79,0,1,0,.78-.78A.78.78,0,0,0,605.4,175.72Z" style="fill:#263238"></path><path d="M604.64,174.86c.1.11.68-.39,1.53-.43s1.47.36,1.56.25-.06-.24-.34-.43a2.06,2.06,0,0,0-1.26-.33,2,2,0,0,0-1.2.48C604.68,174.62,604.59,174.82,604.64,174.86Z" style="fill:#263238"></path><path d="M614.48,175.72a.78.78,0,1,0,.78-.78A.78.78,0,0,0,614.48,175.72Z" style="fill:#263238"></path><path d="M614,174.86c.1.11.68-.39,1.52-.43s1.48.36,1.57.25-.07-.24-.34-.43a2.09,2.09,0,0,0-2.47.15C614,174.62,613.94,174.82,614,174.86Z" style="fill:#263238"></path><path d="M611,182a4,4,0,0,1-1.39.13,1.94,1.94,0,0,1-.39,0,.57.57,0,0,1-.4-.35,1.37,1.37,0,0,1,.07-.93l.54-1.76a23.08,23.08,0,0,1,1.7-4.42,21.26,21.26,0,0,1-1.2,4.58L609.3,181a1.13,1.13,0,0,0-.13.62c0,.11.18.16.4.17C610.42,181.83,611,181.91,611,182Z" style="fill:#263238"></path><path d="M615,182.4c0,.7,1.09,1.2,2.39,1.23s2.39-.43,2.42-1.12-1-1.37-2.39-1.4S615,181.71,615,182.4Z" style="fill:#eb996e"></path><path d="M613.73,182.78c.86-.56-2.35,1.41-4.07,1.41a2.33,2.33,0,0,0,2.79.79C614.25,184.22,613.73,182.78,613.73,182.78Z" style="fill:#fff"></path><path d="M610.34,192.43a15.2,15.2,0,0,0,8.1-2.74s-1.84,4.5-8,4.24Z" style="fill:#eb996e"></path><path d="M636.72,174.4l0,1.09c-.13-1.13-.45-3.71-.63-4.41-3.34-12.76-14.55-15.14-16.77-15.14-2.38,0-6.54-1.3-12.61,5A11.79,11.79,0,0,0,604,174l1-.94,9-2.31c-.71-2.41.33-5.41.92-6.8l.06-.06c1.78,9.16,11.87,10.11,11.87,10.11L626,191C638,188.47,636.72,174.4,636.72,174.4Z" style="fill:#263238"></path><path d="M636.42,173.78a3.26,3.26,0,0,1,2.46-3.22,5.89,5.89,0,0,1,4.25.67,5,5,0,0,1,2.82,3.22c.34,1.76-.8,3.44-1.94,4.84a10,10,0,0,1-2.37,2.32,3.75,3.75,0,0,1-3.19.49,4,4,0,0,1-2-1.9,7.32,7.32,0,0,1,1.57-8.87" style="fill:#263238"></path><path d="M614.39,159.18a25.37,25.37,0,0,1-2.84.94,14.6,14.6,0,0,0-9.21,9.9c-.51,1.74-.57,2.9-.74,2.89s-.32-1.17,0-3.06a13.36,13.36,0,0,1,9.71-10.43C613.19,158.94,614.39,159.06,614.39,159.18Z" style="fill:#263238"></path><path d="M628.43,181.73a7.66,7.66,0,0,1,.32-3,2.87,2.87,0,0,1,2.21-1.9,2.42,2.42,0,0,1,2.48,2,3,3,0,0,1-1.51,2.94,3.9,3.9,0,0,1-3.4.1" style="fill:#ffbe9d"></path><path d="M630.23,181.25c0-.08.24-.16.53-.42a1.81,1.81,0,0,0,.63-1.27,1.76,1.76,0,0,0-.58-1.29c-.28-.27-.53-.37-.51-.45s.31-.1.73.15a1.83,1.83,0,0,1-.06,3.16C630.54,181.36,630.23,181.31,630.23,181.25Z" style="fill:#eb996e"></path><path d="M611.47,175.33s0-.1,0-.3a3.61,3.61,0,0,1,.09-.89,4.78,4.78,0,0,1,1.73-2.76,5,5,0,0,1,4.73-.77,5,5,0,0,1,0,9.45,5,5,0,0,1-4.73-.77,4.78,4.78,0,0,1-1.73-2.76,3.61,3.61,0,0,1-.09-.89c0-.2,0-.31,0-.31s0,.43.25,1.15a4.76,4.76,0,0,0,1.76,2.52,4.57,4.57,0,1,0,0-7.33,4.76,4.76,0,0,0-1.76,2.52C611.52,174.91,611.52,175.34,611.47,175.33Z" style="fill:#263238"></path><path d="M600.42,175.33s0-.1,0-.3a3.61,3.61,0,0,1,.09-.89,4.78,4.78,0,0,1,1.73-2.76,5,5,0,0,1,4.73-.77,5,5,0,0,1,0,9.45,5,5,0,0,1-4.73-.77,4.78,4.78,0,0,1-1.73-2.76,3.61,3.61,0,0,1-.09-.89c0-.2,0-.31,0-.31s0,.43.25,1.15a4.79,4.79,0,0,0,1.75,2.52,4.63,4.63,0,0,0,4.35.61,4.56,4.56,0,0,0,0-8.55,4.63,4.63,0,0,0-4.35.61,4.79,4.79,0,0,0-1.75,2.52C600.46,174.91,600.47,175.34,600.42,175.33Z" style="fill:#263238"></path><path d="M610,175.49c0-.15.39-.26.88-.26s.88.11.88.26-.4.26-.88.26S610,175.63,610,175.49Z" style="fill:#263238"></path><path d="M620.9,176.34a18.35,18.35,0,0,1,4.29.58,18.16,18.16,0,0,1,4.2,1.09,17.78,17.78,0,0,1-4.3-.58A18.16,18.16,0,0,1,620.9,176.34Z" style="fill:#263238"></path><polyline points="593.18 275.7 600.84 437.43 625.39 437.95 619.02 298.19 635.64 437.36 660.71 437.98 641.09 273.93" style="fill:#263238"></polyline><path d="M612.4,437.68c-.14,0-1.91-36.14-3.94-80.73s-3.57-80.74-3.42-80.75S607,312.33,609,356.93,612.55,437.67,612.4,437.68Z" style="fill:#455a64"></path><path d="M649.05,436.37c-.15,0-4.56-35.08-9.86-78.39s-9.48-78.44-9.33-78.46,4.55,35.08,9.85,78.4S649.19,436.36,649.05,436.37Z" style="fill:#455a64"></path><path d="M647.35,238.05l12.58-15.73-15.46-15.59h0a27.67,27.67,0,0,0-10.67-6.91,22,22,0,0,0-6.12-1.23v-1.25l-6.78.13s-.35,1.07-.72,2.28c-.36,1-.54,2.94-1,2.94s-1.12-2-1.78-3l-1.16-2.33-6.26-.3v1.57a38.24,38.24,0,0,0-11.8,3.53h0l-23.09,9.36,7.4,20.41,15.66-5.27c-.1.28-.21.56-.29.85a10,10,0,0,0,2.54,9.77l-.3,16.46-7,21.92,47.91.5-5.45-23.67,2.48-23.46Z" style="fill:#455a64"></path><path d="M616.11,197.63a4.09,4.09,0,0,1-.33,1.45l-.49,1.51c-.11.29-.19.57-.33.91a.92.92,0,0,1-.42.5.74.74,0,0,1-.73-.05,24.31,24.31,0,0,1-4-3,24.71,24.71,0,0,1,4.29,2.56c.37.35.55-.54.78-1.06l.6-1.48A4.47,4.47,0,0,1,616.11,197.63Z" style="fill:#263238"></path><path d="M628.24,198.91a13.92,13.92,0,0,1-4.1,4.17l-.35.25-.21.15-.15-.22a12.73,12.73,0,0,1-2.25-4.94c.14,0,1,2.19,2.68,4.65l-.36-.07.33-.24C626.43,200.8,628.12,198.81,628.24,198.91Z" style="fill:#263238"></path><path d="M617.22,276a3.52,3.52,0,0,1-.06-.74c0-.54,0-1.25-.07-2.14,0-1.85,0-4.54,0-7.86.12-6.64.43-15.8.82-25.92s.73-19.23,1-25.91c.08-3.28.15-6,.2-7.86q0-1.33,0-2.13a3.39,3.39,0,0,1,.05-.75s0,.26.06.74,0,1.25.07,2.14c0,1.86,0,4.55,0,7.86-.12,6.64-.43,15.81-.83,25.93s-.72,19.23-1,25.91c-.09,3.27-.16,5.94-.21,7.85,0,.89,0,1.6,0,2.14A4.2,4.2,0,0,1,617.22,276Z" style="fill:#263238"></path><path d="M623.21,214.76c0-.06.41-.13.78.35a1.15,1.15,0,0,1,.2,1,1.18,1.18,0,0,1-1,.82,1.16,1.16,0,0,1-1.17-.5,1.19,1.19,0,0,1-.1-1c.22-.56.65-.62.65-.56s-.23.24-.29.66a.91.91,0,0,0,.14.65.73.73,0,0,0,.69.24.7.7,0,0,0,.59-.44.88.88,0,0,0-.05-.66C623.5,214.92,623.19,214.84,623.21,214.76Z" style="fill:#263238"></path><path d="M623.37,231.32c0-.06.36-.12.7.28a1.07,1.07,0,0,1,.21.86,1,1,0,0,1-.83.75,1,1,0,0,1-1-.45.93.93,0,0,1,0-.9c.28-.47.7-.4.67-.33s-.24.15-.34.48a.5.5,0,0,0,.58.69.59.59,0,0,0,.4-.9C623.61,231.49,623.36,231.4,623.37,231.32Z" style="fill:#263238"></path><path d="M586.33,230.43a21,21,0,0,1-1.22-2.9c-.76-1.95-1.72-4.37-2.77-7.05l-2.9-7a20.6,20.6,0,0,1-1.14-2.93,17.19,17.19,0,0,1,1.47,2.78c.84,1.75,1.94,4.21,3.05,7s2,5.28,2.64,7.13A16.29,16.29,0,0,1,586.33,230.43Z" style="fill:#263238"></path><path d="M658,220.19c.1.1-3,3.5-7,7.58a102,102,0,0,1-7.34,7.22,100.23,100.23,0,0,1,7-7.58C654.6,223.33,657.89,220.09,658,220.19Z" style="fill:#263238"></path><path d="M633.24,236.34H638A14.62,14.62,0,0,1,652.66,251v32.42a0,0,0,0,1,0,0h-34a0,0,0,0,1,0,0V251A14.62,14.62,0,0,1,633.24,236.34Z" transform="translate(509.75 934.93) rotate(-101.67)" style="fill:#00CE00"></path><path d="M681,233.1l-51.08,10.56h0a3.86,3.86,0,0,1,3-4.56l43.53-9a3.86,3.86,0,0,1,4.56,3Z" style="fill:#00CE00"></path><g style="opacity:0.4"><path d="M655.94,238.27a15.64,15.64,0,0,1-2.74.75c-1.7.41-4.06.92-6.67,1.47s-5,1-6.72,1.31a15.56,15.56,0,0,1-2.81.4,15.05,15.05,0,0,1,2.73-.76c1.71-.4,4.07-.92,6.68-1.46s5-1,6.71-1.31A15.71,15.71,0,0,1,655.94,238.27Z"></path></g><g style="opacity:0.30000000000000004"><path d="M657.86,251.41c-.12-.79-.24-1.58-.35-2.36a123,123,0,0,0-16.43,16.08,19.27,19.27,0,0,0-3.63,5.43,7.17,7.17,0,0,0,.27,6.33l13.27-3Z"></path></g><path d="M671.13,258.63a15.32,15.32,0,0,0-.07-20.19L658.3,224l-10.13,12.55c.45.3,10.92,12.73,10.92,12.73l-16,19.93c-2.46,3.08-3.8,7.4-2.52,11.13l2.13,4.47a6.58,6.58,0,0,0,8.61,3.16l3.83-1.72a1.42,1.42,0,0,0,.36-2.37l-.94-.81a3.27,3.27,0,0,0-2.49-.8l-4.87.5-.23-.9h0Z" style="fill:#ffbe9d"></path><path d="M655.92,284.51a10.7,10.7,0,0,1-1.54.58,11.12,11.12,0,0,1-3.92.92,3.24,3.24,0,0,1-2.06-1,5.36,5.36,0,0,1-1.06-1.51,2.62,2.62,0,0,1-.37-1.63c.09,0,.18.61.69,1.46a5.89,5.89,0,0,0,1.07,1.33,3,3,0,0,0,1.76.86,15,15,0,0,0,3.78-.75A3.52,3.52,0,0,1,655.92,284.51Z" style="fill:#eb996e"></path><path d="M654.56,283a13.9,13.9,0,0,1-3.67,1.29,4,4,0,0,1-2.82-.26c-.66-.37-.85-.84-.8-.86s.35.29,1,.53a4.28,4.28,0,0,0,2.55.08A14.94,14.94,0,0,1,654.56,283Z" style="fill:#eb996e"></path></g><g id="freepik--character-1--inject-131"><path d="M115.65,263.66c-.46-.12-9.55,13.23-9.85,24.72a29.52,29.52,0,0,0,.12,3.37,42.19,42.19,0,0,0,2.87,11.71c7.68,19.41,15.61,42.43,15.74,47.67.4,16.16,7.39,88.7,7.39,88.7l15.33.4,2.44-89.09-5.44-88.21Z" style="fill:#ffbe9d"></path><path d="M144.92,275.12s20.73,67.28,19.43,89-17.1,75.8-17.1,75.8Z" style="fill:#eb996e"></path><path d="M109.44,263.76S97.9,278.62,106,302c8,23.21,2.27,51.56,2.27,51.56s10.21-7.66,17.45-4.28c8.24,3.85,13.73,8.45,24,4,10.67-4.66,19.15-7.28,28.9,1.84l-15.08-52.6-8.72-33.49Z" style="fill:#263238"></path><path d="M169.93,246.37c-2.53-.23-7.08-23.44-7.08-23.44l-18.7,6.25s-.56,3.53,10.7,26c0,0,6.63,11.8,14.91,11.26Z" style="fill:#eb996e"></path><path d="M143,200.73s14.16-1.39,20.75,15.81h0l.06.16c.12.32.23.65.35,1l5.51,15.51-15.18,7.57,0,1.72,1.65,31.11-48.42-9.15,3.91-5.63c3.76-5.19,2.91-12.48,1.37-18.7l-.52-2.12-6.56,3.43a44.19,44.19,0,0,1-3.54-21.63c0-.19,0-.37,0-.55a21.74,21.74,0,0,1,23.16-19.69Z" style="fill:#00CE00"></path><g style="opacity:0.30000000000000004"><path d="M119.8,218.67c2.67,10.09,7.6,20.18,12.56,29.35.48.89,1.53,1.89,2.29,1.24.58-.49.27-1.43-.08-2.1L119.8,218.67"></path></g><path d="M153.28,224.16a13.56,13.56,0,0,1,1,2.36c.53,1.48,1.28,3.5,2,5.82a8.77,8.77,0,0,1,.37,3.43,8.29,8.29,0,0,1-.85,2.68,9,9,0,0,1-1.37,2.17,21.32,21.32,0,0,1,1-2.32,8.56,8.56,0,0,0,.71-2.58,8.69,8.69,0,0,0-.39-3.24c-.68-2.19-1.3-4.17-1.83-5.85A11.72,11.72,0,0,1,153.28,224.16Z" style="fill:#263238"></path><path d="M149.29,172.64a11.81,11.81,0,0,0,5.63,10.05,25.1,25.1,0,0,1,2.78,1.65,3.51,3.51,0,0,1,1.5,2.74c-.07,1.69-1.78,2.77-3.29,3.54a4.19,4.19,0,1,1-6,5.79,7.7,7.7,0,0,1-5.66,6.84,10.72,10.72,0,0,1-9-1.85,18.07,18.07,0,0,1-5.73-7.44" style="fill:#263238"></path><path d="M157.5,179.09s.2.22.19.73a2.29,2.29,0,0,1-1,1.78,3.1,3.1,0,0,1-3.05,0A6.49,6.49,0,0,1,151,179a16.39,16.39,0,0,1-2.13-6.29,8.06,8.06,0,0,1,0-2.74c.08,0,.11,1,.41,2.69a18.83,18.83,0,0,0,2.22,6.07,6.29,6.29,0,0,0,2.33,2.52,2.8,2.8,0,0,0,2.63.08,2.16,2.16,0,0,0,1-1.48C157.55,179.36,157.45,179.1,157.5,179.09Z" style="fill:#263238"></path><path d="M141.5,201.54c.22-3.84.49-7.65.49-7.65s6.14-.65,6.51-6.74,0-20.11,0-20.11l-11.18-5.46L125,170.89l1.26,30.53a7.61,7.61,0,0,0,7.15,7.29h0A7.6,7.6,0,0,0,141.5,201.54Z" style="fill:#ffbe9d"></path><path d="M147.28,177.27a.78.78,0,1,1-.78-.78A.78.78,0,0,1,147.28,177.27Z" style="fill:#263238"></path><path d="M148,176.42c-.1.1-.67-.39-1.51-.43s-1.47.35-1.56.24.06-.23.34-.42a2.06,2.06,0,0,1,2.45.15C148,176.18,148.08,176.37,148,176.42Z" style="fill:#263238"></path><path d="M138.25,177.27a.77.77,0,0,1-.77.78.78.78,0,0,1,0-1.56A.77.77,0,0,1,138.25,177.27Z" style="fill:#263238"></path><path d="M138.74,176.42c-.1.1-.68-.39-1.52-.43s-1.46.35-1.55.24.06-.23.34-.42a2.06,2.06,0,0,1,2.45.15C138.71,176.18,138.79,176.37,138.74,176.42Z" style="fill:#263238"></path><path d="M141.76,183.45a5.32,5.32,0,0,1,1.37-.17c.21,0,.43,0,.48-.2a1.11,1.11,0,0,0-.12-.67c-.19-.57-.38-1.13-.57-1.73-.4-1.22-.75-2.34-1-3.15a5.51,5.51,0,0,1-.31-1.34,5.88,5.88,0,0,1,.53,1.26c.29.8.67,1.91,1.07,3.14.18.59.36,1.16.55,1.73a1.28,1.28,0,0,1,.07.87.71.71,0,0,1-.71.32A6.54,6.54,0,0,1,141.76,183.45Z" style="fill:#263238"></path><path d="M139,184.29c-.84-.56,2.35,1.4,4.06,1.4a2.33,2.33,0,0,1-2.78.79C138.48,185.72,139,184.29,139,184.29Z" style="fill:#fff"></path><path d="M142,193.89a15.21,15.21,0,0,1-8.06-2.73s1.83,4.47,7.93,4.22Z" style="fill:#eb996e"></path><path d="M145.94,162.57c-6-6.26-10.17-5-12.54-5a19,19,0,0,0-13.18,7.61h0c-1.68,1.75-4.08,7.45-4.36,9.46a47.62,47.62,0,0,0,.06,6.09c0,2-.48,4.22-2,5.57-1,.85-2.32,1.34-2.9,2.49a3.23,3.23,0,0,0,1.34,3.9,7.27,7.27,0,0,0,4.34.89,6.14,6.14,0,0,0,5,6.53A5.93,5.93,0,0,0,126,199a34.61,34.61,0,0,0,3.24,2.78q.38-13.28-.56-26.55c4.06-.72,11.34-2.91,12.61-9.41,1.62,3.7,4.08,5.72,7.35,8.52C148.66,174.35,152,168.84,145.94,162.57Z" style="fill:#263238"></path><path d="M129.15,172.89a10,10,0,0,1,2.49,0,12.93,12.93,0,0,0,5.77-.68,5.43,5.43,0,0,0,2.41-1.95,6.74,6.74,0,0,0,1-2.4c.29-1.47.15-2.43.24-2.44a5.12,5.12,0,0,1,.14,2.51,6.56,6.56,0,0,1-.93,2.6,5.78,5.78,0,0,1-2.61,2.18,11.91,11.91,0,0,1-6,.56A13.49,13.49,0,0,1,129.15,172.89Z" style="fill:#263238"></path><path d="M113.31,187.78a3.13,3.13,0,0,0,1-.14,2.68,2.68,0,0,0,1.65-2,6.66,6.66,0,0,0-.74-3.94,16,16,0,0,1-.86-2.37,8,8,0,0,1-.17-2.73,11.12,11.12,0,0,1,1.81-4.9,18.76,18.76,0,0,1,2.75-3.24c.87-.84,1.62-1.46,2.14-1.88a3.57,3.57,0,0,1,.85-.61c.06.07-1,1.06-2.72,2.76a20.38,20.38,0,0,0-2.6,3.23,11.2,11.2,0,0,0-1.7,4.69,8.06,8.06,0,0,0,.15,2.56,16.41,16.41,0,0,0,.81,2.3,6.79,6.79,0,0,1,.65,4.22,2.84,2.84,0,0,1-1.95,2.08,1.74,1.74,0,0,1-.8,0C113.39,187.84,113.31,187.8,113.31,187.78Z" style="fill:#263238"></path><path d="M146.74,442.21l0-2-15.81-.3,0,6.17,1,.06c4.35.25,22.13.94,25,.06C160.13,445.24,146.74,442.21,146.74,442.21Z" style="fill:#00CE00"></path><g style="opacity:0.6000000000000001"><path d="M136.57,446.18a5.5,5.5,0,0,0-2-3.36,5.31,5.31,0,0,0-3.69-1.15v4.4Z" style="fill:#fff"></path></g><g style="opacity:0.6000000000000001"><path d="M153.26,443.92s4.69,1.35,4.11,2.13-18.59.74-26.53,0l0-.35,21,.2S152.34,444,153.26,443.92Z" style="fill:#fff"></path></g><path d="M130.76,445.61l.27,0,.78.05,2.86.13c2.42.09,5.77.17,9.46.18s7-.06,9.46-.14l2.87-.12.78,0,.27,0h-1.06l-2.86.05c-2.42,0-5.77.09-9.46.09s-7-.07-9.46-.13l-2.86-.06-.78,0Z" style="fill:#263238"></path><path d="M151.86,446.25a6.71,6.71,0,0,1,.54-1.37,6.33,6.33,0,0,1,1-1.1,2.16,2.16,0,0,0-1.14,1A2.21,2.21,0,0,0,151.86,446.25Z" style="fill:#263238"></path><path d="M146.91,443.51c.05,0,.27-.24.5-.6a1.75,1.75,0,0,0,.34-.71c-.05,0-.27.24-.5.61S146.87,443.48,146.91,443.51Z" style="fill:#263238"></path><path d="M145.64,442.84s.28-.13.55-.37.47-.48.43-.52-.28.13-.55.37S145.6,442.8,145.64,442.84Z" style="fill:#263238"></path><path d="M144.83,441.35a1.89,1.89,0,0,0,.83.1,1.86,1.86,0,0,0,.82-.08,2,2,0,0,0-.82-.11C145.2,441.26,144.83,441.29,144.83,441.35Z" style="fill:#263238"></path><path d="M144.56,440.3a1.64,1.64,0,0,0,.92.27,1.57,1.57,0,0,0,.94-.13,5.77,5.77,0,0,0-.93-.06A5.14,5.14,0,0,0,144.56,440.3Z" style="fill:#263238"></path><path d="M147.45,442.14a2.88,2.88,0,0,0,1,0,5.53,5.53,0,0,0,1.08-.23,2.93,2.93,0,0,0,.62-.26.53.53,0,0,0,.25-.31.42.42,0,0,0-.15-.41,1.86,1.86,0,0,0-2.3.54,1.8,1.8,0,0,0-.33.68.62.62,0,0,0,0,.27,3,3,0,0,1,.47-.86,1.75,1.75,0,0,1,.86-.56,1.59,1.59,0,0,1,1.21.08c.16.12.1.31-.08.42a4,4,0,0,1-.57.24,6.79,6.79,0,0,1-1.05.27C147.84,442.11,147.45,442.11,147.45,442.14Z" style="fill:#263238"></path><path d="M147.71,442.19a.94.94,0,0,0,.12-.7,1.68,1.68,0,0,0-.27-.74,1,1,0,0,0-.85-.52.4.4,0,0,0-.31.47,1.21,1.21,0,0,0,.17.45,2.88,2.88,0,0,0,.48.61,1.48,1.48,0,0,0,.58.41s-.2-.18-.48-.5a3.57,3.57,0,0,1-.43-.61c-.13-.21-.23-.6,0-.64s.51.22.66.43a1.65,1.65,0,0,1,.29.66A3.65,3.65,0,0,1,147.71,442.19Z" style="fill:#263238"></path><path d="M130.65,441.6s.45,0,1.17,0a5.14,5.14,0,0,1,2.54,1.05,5.07,5.07,0,0,1,1.58,2.25c.24.67.26,1.13.3,1.12a.83.83,0,0,0,0-.31,4.06,4.06,0,0,0-.17-.85,5,5,0,0,0-1.59-2.36,4.81,4.81,0,0,0-2.65-1,3.9,3.9,0,0,0-.87,0A1.07,1.07,0,0,0,130.65,441.6Z" style="fill:#263238"></path><path d="M138.25,444.13a13.06,13.06,0,0,0,4.61.05c0-.06-1,0-2.31,0S138.26,444.07,138.25,444.13Z" style="fill:#263238"></path><path d="M135.16,444.12s.08.21.19.45.16.45.21.44.09-.25,0-.52S135.19,444.08,135.16,444.12Z" style="fill:#263238"></path><path d="M134,442.67s.06.2.22.36.33.27.37.24-.07-.21-.23-.37S134,442.63,134,442.67Z" style="fill:#263238"></path><path d="M132.33,442c0,.06.22.05.45.14s.4.2.44.17-.09-.26-.37-.36S132.32,442,132.33,442Z" style="fill:#263238"></path><path d="M131.15,441.69c0,.05.07.13.2.18s.25.05.27,0-.07-.13-.2-.18S131.17,441.64,131.15,441.69Z" style="fill:#263238"></path><path d="M113.48,255.05s1.8,13.87,15.3,13.37a205.42,205.42,0,0,0,26.92-3l-.14-2.63Z" style="opacity:0.30000000000000004"></path><path d="M191.68,246.24c-1.2-1.93-9.45,2.67-10.18,3s-1.24-.71-.57-1c1-.39,11-4.71,9.87-6.61-.64-1-2.42.27-2.42.27s-9.12,4.74-9.63,3.82,4.73-3.89,6.57-4.76,2.16-2.08,1.1-2.57c-.71-.33-6.42,2.21-8.22,3.11s-6.71,3.48-5.32.25,1.23-6.24.62-7a1.1,1.1,0,0,0-1.89.87,12.88,12.88,0,0,1-.75,3.46,8.43,8.43,0,0,1-1.32,2.52c-.68.89-1.29,1.61-1.83,2.21-5.26,1.84-20.27,6.49-34.29,5.21-2.54-.23-9-17.19-9-17.19l-17.46,9s-.32.95,7.64,16.44c10.84,21.09,59.81-.79,59.81-.79l0-.05a106.28,106.28,0,0,0,11-2.8c4.92-1.78,4.77-2.23,4.46-2.76-.82-1.45-8.78,2.8-7.6.89S192.6,247.71,191.68,246.24Z" style="fill:#ffbe9d"></path></g></svg>