<svg width="3229" height="1363" viewBox="0 0 3229 1363" fill="none" xmlns="http://www.w3.org/2000/svg">
<path d="M303.333 1178.37L302.6 1177.6L302.533 1107.13L302.467 1036.67L262.433 1036.73C248.344 1036.79 234.255 1036.75 220.167 1036.6C218.667 1036.67 217.667 1036.6 217.533 1036.37C217.4 1036.13 215.867 1036.13 212.233 1036.37C209.882 1036.54 207.524 1036.6 205.167 1036.53C197.301 1036.38 189.434 1036.31 181.567 1036.33C169.567 1036.33 160.033 1036.2 160.133 1036.07C160.367 1035.67 158.933 1035.47 158.333 1035.83C158 1036.03 157.867 1036.03 158 1035.83C158.1 1035.67 157.667 1035.5 157.033 1035.5C155.3 1035.37 152.467 1035.77 152.633 1036.07C152.733 1036.2 152.367 1036.33 151.867 1036.33C151.3 1036.33 151 1036.2 151.1 1036C151.333 1035.67 150.533 1035.63 145.3 1035.67C142.533 1035.73 141.3 1035.67 141.3 1035.43C141.3 1035.23 140.967 1035.1 140.5 1035.17C140.038 1035.21 139.573 1035.15 139.133 1035C138.68 1034.86 138.202 1034.83 137.733 1034.9C137.233 1034.97 136.9 1034.9 137 1034.77C137.1 1034.63 136.933 1034.53 136.6 1034.6C136.3 1034.67 136.067 1034.53 136.067 1034.27C136.067 1033.7 135.3 1033.37 133.5 1033.17C128.003 1032.47 122.595 1031.2 117.367 1029.37C113.34 1027.78 109.459 1025.85 105.767 1023.6C104.785 1022.88 103.708 1022.29 102.567 1021.87C101.356 1020.6 100.015 1019.46 98.5667 1018.47C95.447 1015.73 92.518 1012.77 89.8 1009.63C89.2463 1008.86 88.6092 1008.14 87.9 1007.5C87.2884 1006.96 86.7605 1006.33 86.3333 1005.63C85.9844 1004.99 85.5712 1004.39 85.1 1003.83C84.7333 1003.43 84.5 1002.97 84.5667 1002.83C84.6667 1002.7 84.5667 1002.6 84.4 1002.6C84.2333 1002.6 84.1667 1002.4 84.2667 1002.2C84.3187 1002.08 84.3271 1001.95 84.2904 1001.83C84.2537 1001.71 84.1743 1001.6 84.0667 1001.53C83.8 1001.37 83.7666 1001.43 83.9333 1001.7C84.1 1001.97 84.0667 1002.03 83.8333 1001.87C83.6333 1001.73 83.5 1001.4 83.5 1001.07C83.5 1000.73 83.3333 1000.5 83.1666 1000.5C82.9333 1000.5 82.8667 1000.4 82.9667 1000.3C83.0667 1000.2 82.8333 999.7 82.4333 999.234C82.0333 998.767 81.7667 998.167 81.8667 997.9C81.9667 997.667 81.9 997.467 81.7333 997.467C81.4667 997.467 81.0667 996.7 80.9333 995.967C80.7313 995.556 80.5088 995.155 80.2667 994.767C79.6333 993.8 79.4667 993.2 79.5333 992.567C79.5667 992.434 79.4333 992.334 79.3 992.334C79.1667 992.334 78.7667 991.734 78.4 991C78.0667 990.234 77.6667 989.634 77.5 989.634C77.3667 989.634 77.1667 988.867 77.0667 987.9C76.9295 986.556 76.7181 985.221 76.4333 983.9C76.2006 982.335 75.9115 980.778 75.5667 979.234C75.3266 978.113 75.1707 976.977 75.1 975.834C74.7731 972.333 74.6729 968.814 74.8 965.3C74.8667 964.367 74.8 964.067 74.5 964.167C73.9667 964.367 74.1333 435.167 74.6667 433.767C74.8968 433.129 75.0643 432.47 75.1667 431.8C75.3667 430.4 75.4333 430.234 76.3667 427.434C76.7782 425.675 77.4287 423.982 78.3 422.4C78.5271 422.105 78.6865 421.764 78.7667 421.4C79.3824 419.48 80.3177 417.676 81.5333 416.067C81.6667 416.2 81.7 416.134 81.5667 415.934C81.4667 415.734 81.6667 415.267 82 414.8C82.3333 414.367 82.5333 414 82.4 414C82.2666 414 82.4 413.767 82.6333 413.5C84.9543 409.822 87.5624 406.334 90.4333 403.067C92.9 400.234 97.9333 395.534 99.7333 394.4C100.561 393.917 101.342 393.359 102.067 392.734C102.136 392.624 102.228 392.531 102.338 392.462C102.447 392.392 102.571 392.349 102.7 392.334C102.9 392.334 103.033 392.2 103.033 392C103.033 391.867 103.267 391.734 103.5 391.734C103.733 391.734 104 391.6 104 391.467C104 391.334 104.433 390.967 105 390.7C108.705 388.511 112.559 386.584 116.533 384.934C118.911 383.981 121.35 383.191 123.833 382.567C124.133 382.425 124.445 382.314 124.767 382.234C125.203 382.135 125.637 382.024 126.067 381.9C127.234 381.547 128.447 381.368 129.667 381.367C129.8 381.434 129.9 381.367 129.9 381.234C129.9 381.1 130.067 380.967 130.267 380.9C130.933 380.9 133.933 380.5 134.7 380.334C136.5 379.934 176.467 379.867 406.4 379.734C540.167 379.667 650.033 379.534 650.533 379.467C651.333 379.334 660.667 379 661.333 379.034L663.3 379.2C672.867 380.034 673.333 380.1 678.633 381.834C687.004 384.39 694.81 388.519 701.633 394C702.133 394.367 703.633 395.667 704.9 396.934C711.233 403.034 715.167 408.367 718.767 415.767C720.467 419.267 722.5 424.434 722.833 426.034C722.933 426.5 723.1 426.867 723.233 426.767C723.433 426.634 724.567 431.367 724.9 433.7L725.2 435.667C725.5 437.167 725.933 445.334 725.733 445.667C725.542 446.678 725.442 447.704 725.433 448.734C725.376 450.246 725.287 451.758 725.167 453.267C724.933 455.534 724.933 456.8 725.333 480.234C725.667 499.467 725.8 610.134 725.5 610.4C725.283 625.155 725.294 639.912 725.533 654.667C725.633 654.834 725.633 700.467 725.533 756.1L725.2 916.534C725.133 972.534 725.067 977.6 724.333 980.367L723.533 983.7C722.6 987.767 722.633 987.767 722.333 987.934C722.2 988.034 722.167 988.267 722.267 988.534C722.367 988.767 722.267 988.967 722.1 988.967C720.95 990.502 720.081 992.229 719.533 994.067C719.136 995.373 718.541 996.61 717.767 997.734C717.633 997.834 717.5 998.034 717.533 998.2C717.268 999.303 716.792 1000.34 716.133 1001.27C714.839 1003.96 713.154 1006.44 711.133 1008.63C710.933 1008.53 710.9 1008.53 711 1008.67C711.333 1009.03 710.667 1010.07 710.233 1009.83C710.033 1009.73 709.967 1009.73 710.1 1009.87C710.6 1010.43 704 1017.77 703.333 1017.37C703.133 1017.23 703.067 1017.27 703.2 1017.4C703.433 1017.67 701.1 1020.27 700.633 1020.27C700.5 1020.27 700.067 1020.53 699.7 1020.9C698.467 1022.07 696.8 1023.33 696.8 1023.1C696.8 1022.97 696.6 1023.17 696.333 1023.5C696.067 1023.87 695.667 1024.17 695.433 1024.17C691.836 1026.68 687.939 1028.74 683.833 1030.3C683.567 1030.3 683.333 1030.37 683.233 1030.47C682.9 1030.9 681.367 1031.4 681.033 1031.2C680.833 1031.1 680.8 1031.1 680.933 1031.27C681.2 1031.6 677.267 1033 676.867 1032.73C676.733 1032.63 676.6 1032.73 676.6 1032.87C676.6 1033.03 676.367 1033.2 676.1 1033.2C675.252 1033.32 674.416 1033.51 673.6 1033.77C672.408 1034.11 671.194 1034.38 669.967 1034.57L666.967 1035C666.233 1035.1 665.633 1035.33 665.7 1035.53C665.7 1035.73 665.533 1035.8 665.233 1035.73C664.249 1035.73 663.267 1035.82 662.3 1036C660.367 1036.33 652 1036.43 620.6 1036.53C568.6 1036.7 539.867 1036.7 534.133 1036.53C520.767 1036.41 507.4 1036.38 494.033 1036.43L458.567 1036.5L457.3 1038.4C452.265 1045.55 446.658 1052.29 440.533 1058.53C428.033 1071.3 415.867 1081.83 403.1 1090.83C398.4 1094.17 393 1097.8 387.6 1101.27C382.167 1104.77 380.567 1106.03 371.2 1114.1L357.8 1125.63C356.133 1127.03 353.967 1128.97 352.967 1129.87C351.967 1130.8 347.9 1134.33 343.9 1137.77C336.667 1144 336.667 1144.03 328.1 1154.03C308.167 1177.37 308.267 1177.23 306.9 1178.33C305.733 1179.23 304.333 1179.2 303.4 1178.23L303.333 1178.37ZM321.567 1143.5C325.969 1138.02 330.954 1133.04 336.433 1128.63C373.3 1096.8 374.133 1096.07 378.8 1093.1C392.803 1084.41 406.05 1074.55 418.4 1063.63C425.744 1056.96 432.753 1049.93 439.4 1042.57C442.417 1038.92 445.264 1035.14 447.933 1031.23C447.933 1031.03 449.733 1028.17 451.933 1024.83C463.033 1008.13 468.467 997.1 472.333 983.367L473.667 978.867C474.667 975.667 476 970.667 477.633 963.634L479.033 957.634L479.2 789.4L479.367 621.2L472 629.767L464.633 638.367L444.3 655.834C436.586 662.423 428.919 669.068 421.3 675.767C418.44 678.112 415.434 680.272 412.3 682.234C406.803 685.783 401.39 689.462 396.067 693.267C391.033 696.8 383.067 703.034 378.233 707.267C369.767 714.7 357.9 726.434 353.933 731.267C345.28 741.853 337.583 753.186 330.933 765.134C324.733 776.2 321.067 786.267 316.767 804.134C315.968 807.526 315.113 810.904 314.2 814.267C313.7 815.967 313.667 817.6 313.767 849.034C313.833 867.167 314 894.5 314.167 909.734C314.333 925.3 314.333 963.667 314.167 997.234L313.933 1104.77C313.933 1150.03 313.933 1152.47 314.433 1151.83C314.767 1151.5 317.933 1147.73 321.567 1143.5ZM286.1 895.234L302.4 895.034L302.3 854.234L302.2 813.467L302.867 811C303.679 808.135 304.402 805.244 305.033 802.334C305.267 801.234 308 790.8 308.7 788.5C311.8 777.967 315.233 769.334 319.2 762C327.3 747.041 336.965 732.985 348.033 720.067C354.3 713.167 367.9 700.4 375.867 693.834C383.633 687.5 394.4 679.767 404.867 673.034C408.967 670.367 411.8 668.267 415.533 665.034C423.858 657.821 432.202 650.632 440.567 643.467C444.033 640.467 449 636.234 451.567 633.967C456 630.2 457.133 628.967 467.567 616.8C479.9 602.4 486 595.567 486.833 595.134C488.267 594.334 489.833 594.967 490.433 596.534C490.6 597 490.7 656.7 490.7 746.167V895.034L518.033 895.234C533.067 895.334 554.4 895.434 565.433 895.434H585.5L585.367 793.1C585.367 756.511 585.267 719.922 585.067 683.334C585.267 671.2 585.3 531 585.1 523.667L584.9 516.534L578.7 516.434C575.3 516.434 491.2 516.367 391.867 516.434L211.2 516.5V895.1L226.033 895.167C246.066 895.366 266.1 895.366 286.133 895.167L286.1 895.234Z" fill="#33428E"/>
<path d="M784.307 685.702V609.636H1142.69V685.702H1009.09V1046H917.901V685.702H784.307ZM1209.8 1046V718.727H1258.38V768.159H1261.79C1267.76 751.966 1278.55 738.827 1294.18 728.741C1309.8 718.656 1327.42 713.614 1347.02 713.614C1350.71 713.614 1355.33 713.685 1360.87 713.827C1366.41 713.969 1370.6 714.182 1373.44 714.466V765.602C1371.74 765.176 1367.83 764.537 1361.72 763.685C1355.76 762.69 1349.43 762.193 1342.76 762.193C1326.85 762.193 1312.64 765.531 1300.14 772.207C1287.79 778.741 1277.99 787.832 1270.74 799.48C1263.64 810.986 1260.09 824.125 1260.09 838.898V1046H1209.8ZM1639.3 912.193V718.727H1689.58V1046H1639.3V990.602H1635.89C1628.22 1007.22 1616.28 1021.36 1600.09 1033C1583.9 1044.51 1563.44 1050.26 1538.73 1050.26C1518.27 1050.26 1500.09 1045.79 1484.18 1036.84C1468.27 1027.75 1455.77 1014.11 1446.68 995.929C1437.59 977.605 1433.05 954.523 1433.05 926.682V718.727H1483.33V923.273C1483.33 947.136 1490.01 966.17 1503.36 980.375C1516.85 994.58 1534.04 1001.68 1554.92 1001.68C1567.42 1001.68 1580.13 998.486 1593.06 992.094C1606.13 985.702 1617.07 975.901 1625.87 962.69C1634.82 949.48 1639.3 932.648 1639.3 912.193Z" fill="#33428E"/>
<path d="M1773.58 1046V609.636H1945.74C1978.84 609.636 2007.03 615.957 2030.33 628.599C2053.63 641.099 2071.38 658.5 2083.6 680.801C2095.95 702.96 2102.13 728.528 2102.13 757.506C2102.13 786.483 2095.88 812.051 2083.38 834.21C2070.88 856.369 2052.77 873.628 2029.05 885.986C2005.47 898.344 1976.92 904.523 1943.4 904.523H1833.67V830.588H1928.48C1946.24 830.588 1960.87 827.534 1972.38 821.426C1984.02 815.176 1992.69 806.582 1998.37 795.645C2004.19 784.565 2007.11 771.852 2007.11 757.506C2007.11 743.017 2004.19 730.375 1998.37 719.58C1992.69 708.642 1984.02 700.19 1972.38 694.224C1960.73 688.116 1945.95 685.062 1928.06 685.062H1865.84V1046H1773.58ZM2244.89 1052.18C2224.01 1052.18 2205.4 1048.56 2189.07 1041.31C2172.73 1033.93 2159.8 1023.06 2150.29 1008.71C2140.91 994.224 2136.22 976.185 2136.22 954.594C2136.22 936.412 2139.56 921.142 2146.24 908.784C2152.91 896.426 2162.01 886.483 2173.51 878.955C2185.02 871.426 2198.09 865.744 2212.72 861.909C2227.49 858.074 2242.97 855.375 2259.16 853.812C2278.2 851.824 2293.54 849.977 2305.19 848.273C2316.84 846.426 2325.29 843.727 2330.54 840.176C2335.8 836.625 2338.43 831.369 2338.43 824.409V823.131C2338.43 809.636 2334.16 799.196 2325.64 791.81C2317.26 784.423 2305.33 780.73 2289.85 780.73C2273.51 780.73 2260.51 784.352 2250.86 791.597C2241.2 798.699 2234.8 807.648 2231.68 818.443L2147.73 811.625C2151.99 791.739 2160.37 774.551 2172.87 760.062C2185.37 745.432 2201.49 734.21 2221.24 726.398C2241.13 718.443 2264.14 714.466 2290.27 714.466C2308.45 714.466 2325.86 716.597 2342.47 720.858C2359.24 725.119 2374.08 731.724 2387.01 740.673C2400.07 749.622 2410.37 761.128 2417.9 775.19C2425.43 789.111 2429.19 805.801 2429.19 825.261V1046H2343.11V1000.62H2340.56C2335.3 1010.84 2328.27 1019.86 2319.46 1027.68C2310.66 1035.35 2300.07 1041.38 2287.72 1045.79C2275.36 1050.05 2261.08 1052.18 2244.89 1052.18ZM2270.88 989.537C2284.24 989.537 2296.03 986.909 2306.25 981.653C2316.48 976.256 2324.51 969.011 2330.33 959.92C2336.15 950.83 2339.07 940.531 2339.07 929.026V894.295C2336.22 896.142 2332.32 897.847 2327.35 899.409C2322.52 900.83 2317.05 902.179 2310.94 903.457C2304.83 904.594 2298.72 905.659 2292.62 906.653C2286.51 907.506 2280.97 908.287 2276 908.997C2265.34 910.56 2256.04 913.045 2248.09 916.455C2240.13 919.864 2233.95 924.48 2229.55 930.304C2225.14 935.986 2222.94 943.088 2222.94 951.611C2222.94 963.969 2227.42 973.415 2236.37 979.949C2245.46 986.341 2256.96 989.537 2270.88 989.537ZM2499.61 1046V718.727H2590.38V1046H2499.61ZM2545.21 676.54C2531.71 676.54 2520.14 672.065 2510.48 663.116C2500.96 654.026 2496.2 643.159 2496.2 630.517C2496.2 618.017 2500.96 607.293 2510.48 598.344C2520.14 589.253 2531.71 584.707 2545.21 584.707C2558.7 584.707 2570.21 589.253 2579.73 598.344C2589.38 607.293 2594.21 618.017 2594.21 630.517C2594.21 643.159 2589.38 654.026 2579.73 663.116C2570.21 672.065 2558.7 676.54 2545.21 676.54ZM2783.69 1051.33C2758.83 1051.33 2736.31 1044.93 2716.14 1032.15C2696.11 1019.22 2680.21 1000.26 2668.42 975.261C2656.77 950.119 2650.94 919.295 2650.94 882.79C2650.94 845.29 2656.98 814.111 2669.05 789.253C2681.13 764.253 2697.18 745.574 2717.21 733.216C2737.38 720.716 2759.47 714.466 2783.47 714.466C2801.8 714.466 2817.07 717.591 2829.28 723.841C2841.64 729.949 2851.58 737.619 2859.11 746.852C2866.78 755.943 2872.61 764.892 2876.58 773.699H2879.35V609.636H2969.91V1046H2880.42V993.585H2876.58C2872.32 1002.68 2866.28 1011.7 2858.47 1020.64C2850.8 1029.45 2840.79 1036.77 2828.43 1042.59C2816.21 1048.41 2801.3 1051.33 2783.69 1051.33ZM2812.45 979.097C2827.08 979.097 2839.44 975.119 2849.52 967.165C2859.75 959.068 2867.56 947.776 2872.96 933.287C2878.5 918.798 2881.27 901.824 2881.27 882.364C2881.27 862.903 2878.57 846 2873.17 831.653C2867.78 817.307 2859.96 806.227 2849.74 798.415C2839.51 790.602 2827.08 786.696 2812.45 786.696C2797.53 786.696 2784.96 790.744 2774.74 798.841C2764.51 806.937 2756.77 818.159 2751.51 832.506C2746.26 846.852 2743.63 863.472 2743.63 882.364C2743.63 901.398 2746.26 918.23 2751.51 932.861C2756.91 947.349 2764.65 958.713 2774.74 966.952C2784.96 975.048 2797.53 979.097 2812.45 979.097Z" fill="#00CE00"/>
</svg>
