<svg width="565" height="461" viewBox="0 0 565 461" fill="none" xmlns="http://www.w3.org/2000/svg">
<circle cx="299.5" cy="215.5" r="124.5" fill="white"/>
<circle cx="300" cy="216" r="162" stroke="white" stroke-width="5"/>
<g filter="url(#filter0_d)">
<circle cx="292" cy="158" r="85" fill="url(#paint0_radial)"/>
<circle cx="292" cy="158" r="85" fill="url(#paint1_radial)"/>
</g>
<g filter="url(#filter1_d)">
<circle cx="152.5" cy="194.5" r="52.5" fill="url(#paint2_linear)"/>
<circle cx="152.5" cy="194.5" r="52.5" fill="url(#paint3_radial)"/>
</g>
<g filter="url(#filter2_d)">
<circle cx="412.5" cy="258.5" r="52.5" fill="url(#paint4_linear)"/>
<circle cx="412.5" cy="258.5" r="52.5" fill="url(#paint5_radial)"/>
</g>
<g filter="url(#filter3_d)">
<circle cx="426.5" cy="162.5" r="32.5" fill="url(#paint6_linear)"/>
<circle cx="426.5" cy="162.5" r="32.5" fill="url(#paint7_radial)"/>
</g>
<g filter="url(#filter4_d)">
<circle cx="215.5" cy="276.5" r="32.5" fill="url(#paint8_radial)"/>
<circle cx="215.5" cy="276.5" r="32.5" fill="url(#paint9_radial)"/>
</g>
<g filter="url(#filter5_d)">
<circle cx="400.5" cy="82.5" r="32.5" fill="url(#paint10_linear)"/>
<circle cx="400.5" cy="82.5" r="32.5" fill="url(#paint11_radial)"/>
</g>
<path d="M391.821 158.9H393.927V166.284H398.49V168H391.821V158.9ZM406.324 164.529C406.324 164.555 406.311 164.737 406.285 165.075H400.994C401.089 165.508 401.315 165.851 401.67 166.102C402.025 166.353 402.467 166.479 402.996 166.479C403.36 166.479 403.681 166.427 403.958 166.323C404.244 166.21 404.508 166.037 404.751 165.803L405.83 166.973C405.171 167.727 404.209 168.104 402.944 168.104C402.155 168.104 401.458 167.952 400.851 167.649C400.244 167.337 399.776 166.908 399.447 166.362C399.118 165.816 398.953 165.196 398.953 164.503C398.953 163.818 399.113 163.203 399.434 162.657C399.763 162.102 400.21 161.673 400.773 161.37C401.345 161.058 401.982 160.902 402.684 160.902C403.369 160.902 403.988 161.049 404.543 161.344C405.098 161.639 405.531 162.063 405.843 162.618C406.164 163.164 406.324 163.801 406.324 164.529ZM402.697 162.436C402.238 162.436 401.852 162.566 401.54 162.826C401.228 163.086 401.037 163.441 400.968 163.892H404.413C404.344 163.45 404.153 163.099 403.841 162.839C403.529 162.57 403.148 162.436 402.697 162.436ZM416.631 160.902C417.507 160.902 418.2 161.162 418.711 161.682C419.231 162.193 419.491 162.965 419.491 163.996V168H417.463V164.308C417.463 163.753 417.346 163.342 417.112 163.073C416.887 162.796 416.562 162.657 416.137 162.657C415.661 162.657 415.284 162.813 415.006 163.125C414.729 163.428 414.59 163.883 414.59 164.49V168H412.562V164.308C412.562 163.207 412.12 162.657 411.236 162.657C410.768 162.657 410.396 162.813 410.118 163.125C409.841 163.428 409.702 163.883 409.702 164.49V168H407.674V161.006H409.611V161.812C409.871 161.517 410.188 161.292 410.56 161.136C410.942 160.98 411.358 160.902 411.808 160.902C412.302 160.902 412.749 161.002 413.147 161.201C413.546 161.392 413.867 161.673 414.109 162.046C414.395 161.682 414.755 161.4 415.188 161.201C415.63 161.002 416.111 160.902 416.631 160.902ZM424.713 168.104C423.977 168.104 423.314 167.952 422.724 167.649C422.144 167.337 421.689 166.908 421.359 166.362C421.03 165.816 420.865 165.196 420.865 164.503C420.865 163.81 421.03 163.19 421.359 162.644C421.689 162.098 422.144 161.673 422.724 161.37C423.314 161.058 423.977 160.902 424.713 160.902C425.45 160.902 426.109 161.058 426.689 161.37C427.27 161.673 427.725 162.098 428.054 162.644C428.384 163.19 428.548 163.81 428.548 164.503C428.548 165.196 428.384 165.816 428.054 166.362C427.725 166.908 427.27 167.337 426.689 167.649C426.109 167.952 425.45 168.104 424.713 168.104ZM424.713 166.44C425.233 166.44 425.658 166.267 425.987 165.92C426.325 165.565 426.494 165.092 426.494 164.503C426.494 163.914 426.325 163.446 425.987 163.099C425.658 162.744 425.233 162.566 424.713 162.566C424.193 162.566 423.764 162.744 423.426 163.099C423.088 163.446 422.919 163.914 422.919 164.503C422.919 165.092 423.088 165.565 423.426 165.92C423.764 166.267 424.193 166.44 424.713 166.44ZM434.155 160.902C435.021 160.902 435.719 161.162 436.248 161.682C436.785 162.202 437.054 162.973 437.054 163.996V168H435.026V164.308C435.026 163.753 434.904 163.342 434.662 163.073C434.419 162.796 434.068 162.657 433.609 162.657C433.097 162.657 432.69 162.817 432.387 163.138C432.083 163.45 431.932 163.918 431.932 164.542V168H429.904V161.006H431.841V161.825C432.109 161.53 432.443 161.305 432.842 161.149C433.24 160.984 433.678 160.902 434.155 160.902ZM441.713 160.902C442.796 160.902 443.628 161.162 444.209 161.682C444.79 162.193 445.08 162.969 445.08 164.009V168H443.182V167.129C442.801 167.779 442.09 168.104 441.05 168.104C440.513 168.104 440.045 168.013 439.646 167.831C439.256 167.649 438.957 167.398 438.749 167.077C438.541 166.756 438.437 166.392 438.437 165.985C438.437 165.335 438.68 164.824 439.165 164.451C439.659 164.078 440.417 163.892 441.44 163.892H443.052C443.052 163.45 442.918 163.112 442.649 162.878C442.38 162.635 441.977 162.514 441.44 162.514C441.067 162.514 440.699 162.575 440.335 162.696C439.98 162.809 439.676 162.965 439.425 163.164L438.697 161.747C439.078 161.478 439.533 161.27 440.062 161.123C440.599 160.976 441.15 160.902 441.713 160.902ZM441.557 166.739C441.904 166.739 442.211 166.661 442.48 166.505C442.749 166.34 442.939 166.102 443.052 165.79V165.075H441.661C440.829 165.075 440.413 165.348 440.413 165.894C440.413 166.154 440.513 166.362 440.712 166.518C440.92 166.665 441.202 166.739 441.557 166.739ZM454.116 158.354V168H452.179V167.194C451.676 167.801 450.948 168.104 449.995 168.104C449.336 168.104 448.738 167.957 448.201 167.662C447.672 167.367 447.256 166.947 446.953 166.401C446.649 165.855 446.498 165.222 446.498 164.503C446.498 163.784 446.649 163.151 446.953 162.605C447.256 162.059 447.672 161.639 448.201 161.344C448.738 161.049 449.336 160.902 449.995 160.902C450.887 160.902 451.585 161.184 452.088 161.747V158.354H454.116ZM450.346 166.44C450.857 166.44 451.282 166.267 451.62 165.92C451.958 165.565 452.127 165.092 452.127 164.503C452.127 163.914 451.958 163.446 451.62 163.099C451.282 162.744 450.857 162.566 450.346 162.566C449.826 162.566 449.397 162.744 449.059 163.099C448.721 163.446 448.552 163.914 448.552 164.503C448.552 165.092 448.721 165.565 449.059 165.92C449.397 166.267 449.826 166.44 450.346 166.44ZM462.844 164.529C462.844 164.555 462.831 164.737 462.805 165.075H457.514C457.609 165.508 457.834 165.851 458.19 166.102C458.545 166.353 458.987 166.479 459.516 166.479C459.88 166.479 460.2 166.427 460.478 166.323C460.764 166.21 461.028 166.037 461.271 165.803L462.35 166.973C461.691 167.727 460.729 168.104 459.464 168.104C458.675 168.104 457.977 167.952 457.371 167.649C456.764 167.337 456.296 166.908 455.967 166.362C455.637 165.816 455.473 165.196 455.473 164.503C455.473 163.818 455.633 163.203 455.954 162.657C456.283 162.102 456.729 161.673 457.293 161.37C457.865 161.058 458.502 160.902 459.204 160.902C459.888 160.902 460.508 161.049 461.063 161.344C461.617 161.639 462.051 162.063 462.363 162.618C462.683 163.164 462.844 163.801 462.844 164.529ZM459.217 162.436C458.757 162.436 458.372 162.566 458.06 162.826C457.748 163.086 457.557 163.441 457.488 163.892H460.933C460.863 163.45 460.673 163.099 460.361 162.839C460.049 162.57 459.667 162.436 459.217 162.436Z" fill="white"/>
<path d="M203.687 274.616H200.775V272.9H208.705V274.616H205.793V282H203.687V274.616ZM209.542 275.006H211.57V282H209.542V275.006ZM210.556 274.031C210.184 274.031 209.88 273.923 209.646 273.706C209.412 273.489 209.295 273.221 209.295 272.9C209.295 272.579 209.412 272.311 209.646 272.094C209.88 271.877 210.184 271.769 210.556 271.769C210.929 271.769 211.232 271.873 211.466 272.081C211.7 272.289 211.817 272.549 211.817 272.861C211.817 273.199 211.7 273.481 211.466 273.706C211.232 273.923 210.929 274.031 210.556 274.031ZM217.964 281.662C217.764 281.809 217.517 281.922 217.223 282C216.937 282.069 216.633 282.104 216.313 282.104C215.481 282.104 214.835 281.892 214.376 281.467C213.925 281.042 213.7 280.418 213.7 279.595V276.722H212.621V275.162H213.7V273.459H215.728V275.162H217.47V276.722H215.728V279.569C215.728 279.864 215.801 280.093 215.949 280.258C216.105 280.414 216.321 280.492 216.599 280.492C216.919 280.492 217.192 280.405 217.418 280.232L217.964 281.662ZM219.102 272.354H221.13V282H219.102V272.354ZM229.863 278.529C229.863 278.555 229.85 278.737 229.824 279.075H224.533C224.629 279.508 224.854 279.851 225.209 280.102C225.565 280.353 226.007 280.479 226.535 280.479C226.899 280.479 227.22 280.427 227.497 280.323C227.783 280.21 228.048 280.037 228.29 279.803L229.369 280.973C228.711 281.727 227.749 282.104 226.483 282.104C225.695 282.104 224.997 281.952 224.39 281.649C223.784 281.337 223.316 280.908 222.986 280.362C222.657 279.816 222.492 279.196 222.492 278.503C222.492 277.818 222.653 277.203 222.973 276.657C223.303 276.102 223.749 275.673 224.312 275.37C224.884 275.058 225.521 274.902 226.223 274.902C226.908 274.902 227.528 275.049 228.082 275.344C228.637 275.639 229.07 276.063 229.382 276.618C229.703 277.164 229.863 277.801 229.863 278.529ZM226.236 276.436C225.777 276.436 225.391 276.566 225.079 276.826C224.767 277.086 224.577 277.441 224.507 277.892H227.952C227.883 277.45 227.692 277.099 227.38 276.839C227.068 276.57 226.687 276.436 226.236 276.436Z" fill="white"/>
<path d="M388.687 80.616H385.775V78.9H393.705V80.616H390.793V88H388.687V80.616ZM394.542 81.006H396.57V88H394.542V81.006ZM395.556 80.031C395.184 80.031 394.88 79.9227 394.646 79.706C394.412 79.4893 394.295 79.2207 394.295 78.9C394.295 78.5793 394.412 78.3107 394.646 78.094C394.88 77.8773 395.184 77.769 395.556 77.769C395.929 77.769 396.232 77.873 396.466 78.081C396.7 78.289 396.817 78.549 396.817 78.861C396.817 79.199 396.7 79.4807 396.466 79.706C396.232 79.9227 395.929 80.031 395.556 80.031ZM402.964 87.662C402.764 87.8093 402.517 87.922 402.223 88C401.937 88.0693 401.633 88.104 401.313 88.104C400.481 88.104 399.835 87.8917 399.376 87.467C398.925 87.0423 398.7 86.4183 398.7 85.595V82.722H397.621V81.162H398.7V79.459H400.728V81.162H402.47V82.722H400.728V85.569C400.728 85.8637 400.801 86.0933 400.949 86.258C401.105 86.414 401.321 86.492 401.599 86.492C401.919 86.492 402.192 86.4053 402.418 86.232L402.964 87.662ZM404.102 78.354H406.13V88H404.102V78.354ZM414.863 84.529C414.863 84.555 414.85 84.737 414.824 85.075H409.533C409.629 85.5083 409.854 85.8507 410.209 86.102C410.565 86.3533 411.007 86.479 411.535 86.479C411.899 86.479 412.22 86.427 412.497 86.323C412.783 86.2103 413.048 86.037 413.29 85.803L414.369 86.973C413.711 87.727 412.749 88.104 411.483 88.104C410.695 88.104 409.997 87.9523 409.39 87.649C408.784 87.337 408.316 86.908 407.986 86.362C407.657 85.816 407.492 85.1963 407.492 84.503C407.492 83.8183 407.653 83.203 407.973 82.657C408.303 82.1023 408.749 81.6733 409.312 81.37C409.884 81.058 410.521 80.902 411.223 80.902C411.908 80.902 412.528 81.0493 413.082 81.344C413.637 81.6387 414.07 82.0633 414.382 82.618C414.703 83.164 414.863 83.801 414.863 84.529ZM411.236 82.436C410.777 82.436 410.391 82.566 410.079 82.826C409.767 83.086 409.577 83.4413 409.507 83.892H412.952C412.883 83.45 412.692 83.099 412.38 82.839C412.068 82.5703 411.687 82.436 411.236 82.436Z" fill="white"/>
<path d="M244.966 151.259C245.416 151.457 245.767 151.754 246.019 152.15C246.271 152.546 246.397 153.014 246.397 153.554C246.397 154.328 246.154 154.958 245.668 155.444C245.182 155.912 244.561 156.146 243.805 156.146C243.049 156.146 242.419 155.903 241.915 155.417C241.429 154.931 241.186 154.31 241.186 153.554C241.186 153.194 241.231 152.834 241.321 152.474C241.411 152.114 241.609 151.574 241.915 150.854L243.481 146.966H246.154L244.966 151.259ZM258.62 167.324C256.694 167.324 254.948 166.91 253.382 166.082C251.834 165.236 250.61 164.075 249.71 162.599C248.828 161.105 248.387 159.422 248.387 157.55C248.387 155.678 248.828 154.004 249.71 152.528C250.61 151.034 251.834 149.873 253.382 149.045C254.948 148.199 256.703 147.776 258.647 147.776C260.285 147.776 261.761 148.064 263.075 148.64C264.407 149.216 265.523 150.044 266.423 151.124L263.615 153.716C262.337 152.24 260.753 151.502 258.863 151.502C257.693 151.502 256.649 151.763 255.731 152.285C254.813 152.789 254.093 153.5 253.571 154.418C253.067 155.336 252.815 156.38 252.815 157.55C252.815 158.72 253.067 159.764 253.571 160.682C254.093 161.6 254.813 162.32 255.731 162.842C256.649 163.346 257.693 163.598 258.863 163.598C260.753 163.598 262.337 162.851 263.615 161.357L266.423 163.949C265.523 165.047 264.407 165.884 263.075 166.46C261.743 167.036 260.258 167.324 258.62 167.324ZM277.909 152.258C279.709 152.258 281.158 152.798 282.256 153.878C283.372 154.958 283.93 156.56 283.93 158.684V167H279.718V159.332C279.718 158.18 279.466 157.325 278.962 156.767C278.458 156.191 277.729 155.903 276.775 155.903C275.713 155.903 274.867 156.236 274.237 156.902C273.607 157.55 273.292 158.522 273.292 159.818V167H269.08V146.966H273.292V153.986C273.85 153.428 274.525 153.005 275.317 152.717C276.109 152.411 276.973 152.258 277.909 152.258ZM302.135 159.791C302.135 159.845 302.108 160.223 302.054 160.925H291.065C291.263 161.825 291.731 162.536 292.469 163.058C293.207 163.58 294.125 163.841 295.223 163.841C295.979 163.841 296.645 163.733 297.221 163.517C297.815 163.283 298.364 162.923 298.868 162.437L301.109 164.867C299.741 166.433 297.743 167.216 295.115 167.216C293.477 167.216 292.028 166.901 290.768 166.271C289.508 165.623 288.536 164.732 287.852 163.598C287.168 162.464 286.826 161.177 286.826 159.737C286.826 158.315 287.159 157.037 287.825 155.903C288.509 154.751 289.436 153.86 290.606 153.23C291.794 152.582 293.117 152.258 294.575 152.258C295.997 152.258 297.284 152.564 298.436 153.176C299.588 153.788 300.488 154.67 301.136 155.822C301.802 156.956 302.135 158.279 302.135 159.791ZM294.602 155.444C293.648 155.444 292.847 155.714 292.199 156.254C291.551 156.794 291.155 157.532 291.011 158.468H298.166C298.022 157.55 297.626 156.821 296.978 156.281C296.33 155.723 295.538 155.444 294.602 155.444ZM311.959 167.216C310.411 167.216 309.016 166.901 307.774 166.271C306.55 165.623 305.587 164.732 304.885 163.598C304.201 162.464 303.859 161.177 303.859 159.737C303.859 158.297 304.201 157.01 304.885 155.876C305.587 154.742 306.55 153.86 307.774 153.23C309.016 152.582 310.411 152.258 311.959 152.258C313.489 152.258 314.821 152.582 315.955 153.23C317.107 153.86 317.944 154.769 318.466 155.957L315.199 157.712C314.443 156.38 313.354 155.714 311.932 155.714C310.834 155.714 309.925 156.074 309.205 156.794C308.485 157.514 308.125 158.495 308.125 159.737C308.125 160.979 308.485 161.96 309.205 162.68C309.925 163.4 310.834 163.76 311.932 163.76C313.372 163.76 314.461 163.094 315.199 161.762L318.466 163.544C317.944 164.696 317.107 165.596 315.955 166.244C314.821 166.892 313.489 167.216 311.959 167.216ZM327.023 161.303L324.998 163.301V167H320.786V146.966H324.998V158.306L331.154 152.474H336.176L330.128 158.63L336.716 167H331.613L327.023 161.303ZM340.23 146.75C340.986 146.75 341.607 146.993 342.093 147.479C342.579 147.947 342.822 148.568 342.822 149.342C342.822 149.702 342.777 150.062 342.687 150.422C342.597 150.782 342.408 151.322 342.12 152.042L340.554 155.93H337.881L339.042 151.664C338.592 151.466 338.241 151.169 337.989 150.773C337.737 150.377 337.611 149.9 337.611 149.342C337.611 148.568 337.854 147.947 338.34 147.479C338.844 146.993 339.474 146.75 340.23 146.75Z" fill="white"/>
<path d="M386.203 262.92V265H377.531V253.8H385.995V255.88H380.107V258.312H385.307V260.328H380.107V262.92H386.203ZM393.452 265L391.564 262.36L389.612 265H386.892L390.204 260.664L387.004 256.392H389.804L391.628 258.904L393.5 256.392H396.156L392.956 260.6L396.284 265H393.452ZM400.812 256.264C402.145 256.264 403.169 256.584 403.884 257.224C404.598 257.853 404.956 258.808 404.956 260.088V265H402.62V263.928C402.15 264.728 401.276 265.128 399.996 265.128C399.334 265.128 398.758 265.016 398.268 264.792C397.788 264.568 397.42 264.259 397.164 263.864C396.908 263.469 396.78 263.021 396.78 262.52C396.78 261.72 397.078 261.091 397.676 260.632C398.284 260.173 399.217 259.944 400.476 259.944H402.46C402.46 259.4 402.294 258.984 401.964 258.696C401.633 258.397 401.137 258.248 400.476 258.248C400.017 258.248 399.564 258.323 399.116 258.472C398.678 258.611 398.305 258.803 397.996 259.048L397.1 257.304C397.569 256.973 398.129 256.717 398.78 256.536C399.441 256.355 400.118 256.264 400.812 256.264ZM400.62 263.448C401.046 263.448 401.425 263.352 401.756 263.16C402.086 262.957 402.321 262.664 402.46 262.28V261.4H400.748C399.724 261.4 399.212 261.736 399.212 262.408C399.212 262.728 399.334 262.984 399.58 263.176C399.836 263.357 400.182 263.448 400.62 263.448ZM418.239 256.264C419.316 256.264 420.169 256.584 420.799 257.224C421.439 257.853 421.759 258.803 421.759 260.072V265H419.263V260.456C419.263 259.773 419.119 259.267 418.831 258.936C418.553 258.595 418.153 258.424 417.631 258.424C417.044 258.424 416.58 258.616 416.239 259C415.897 259.373 415.727 259.933 415.727 260.68V265H413.231V260.456C413.231 259.101 412.687 258.424 411.599 258.424C411.023 258.424 410.564 258.616 410.223 259C409.881 259.373 409.711 259.933 409.711 260.68V265H407.215V256.392H409.599V257.384C409.919 257.021 410.308 256.744 410.766 256.552C411.236 256.36 411.748 256.264 412.303 256.264C412.911 256.264 413.46 256.387 413.951 256.632C414.441 256.867 414.836 257.213 415.135 257.672C415.487 257.224 415.929 256.877 416.463 256.632C417.007 256.387 417.599 256.264 418.239 256.264ZM429.084 256.264C429.884 256.264 430.609 256.451 431.26 256.824C431.921 257.187 432.438 257.704 432.812 258.376C433.185 259.037 433.372 259.811 433.372 260.696C433.372 261.581 433.185 262.36 432.812 263.032C432.438 263.693 431.921 264.211 431.26 264.584C430.609 264.947 429.884 265.128 429.084 265.128C427.985 265.128 427.121 264.781 426.492 264.088V268.104H423.996V256.392H426.38V257.384C426.998 256.637 427.9 256.264 429.084 256.264ZM428.652 263.08C429.292 263.08 429.814 262.867 430.22 262.44C430.636 262.003 430.844 261.421 430.844 260.696C430.844 259.971 430.636 259.395 430.22 258.968C429.814 258.531 429.292 258.312 428.652 258.312C428.012 258.312 427.484 258.531 427.068 258.968C426.662 259.395 426.46 259.971 426.46 260.696C426.46 261.421 426.662 262.003 427.068 262.44C427.484 262.867 428.012 263.08 428.652 263.08ZM435.043 253.128H437.539V265H435.043V253.128ZM448.287 260.728C448.287 260.76 448.271 260.984 448.239 261.4H441.727C441.844 261.933 442.122 262.355 442.559 262.664C442.996 262.973 443.54 263.128 444.191 263.128C444.639 263.128 445.034 263.064 445.375 262.936C445.727 262.797 446.052 262.584 446.351 262.296L447.679 263.736C446.868 264.664 445.684 265.128 444.127 265.128C443.156 265.128 442.298 264.941 441.551 264.568C440.804 264.184 440.228 263.656 439.823 262.984C439.418 262.312 439.215 261.549 439.215 260.696C439.215 259.853 439.412 259.096 439.807 258.424C440.212 257.741 440.762 257.213 441.455 256.84C442.159 256.456 442.943 256.264 443.807 256.264C444.65 256.264 445.412 256.445 446.095 256.808C446.778 257.171 447.311 257.693 447.695 258.376C448.09 259.048 448.287 259.832 448.287 260.728ZM443.823 258.152C443.258 258.152 442.783 258.312 442.399 258.632C442.015 258.952 441.78 259.389 441.695 259.944H445.935C445.85 259.4 445.615 258.968 445.231 258.648C444.847 258.317 444.378 258.152 443.823 258.152Z" fill="white"/>
<path d="M143.748 189.8V201H141.156V196.408H136.068V201H133.476V189.8H136.068V194.216H141.156V189.8H143.748ZM154.894 192.392V201H152.526V199.976C152.196 200.349 151.801 200.637 151.342 200.84C150.884 201.032 150.388 201.128 149.854 201.128C148.724 201.128 147.828 200.803 147.166 200.152C146.505 199.501 146.174 198.536 146.174 197.256V192.392H148.67V196.888C148.67 198.275 149.252 198.968 150.414 198.968C151.012 198.968 151.492 198.776 151.854 198.392C152.217 197.997 152.398 197.416 152.398 196.648V192.392H154.894ZM157.207 189.128H159.703V201H157.207V189.128ZM170.691 192.392V201H168.323V199.976C167.993 200.349 167.598 200.637 167.139 200.84C166.681 201.032 166.185 201.128 165.651 201.128C164.521 201.128 163.625 200.803 162.963 200.152C162.302 199.501 161.971 198.536 161.971 197.256V192.392H164.467V196.888C164.467 198.275 165.049 198.968 166.211 198.968C166.809 198.968 167.289 198.776 167.651 198.392C168.014 197.997 168.195 197.416 168.195 196.648V192.392H170.691Z" fill="white"/>
<defs>
<filter id="filter0_d" x="107" y="23" width="370" height="370" filterUnits="userSpaceOnUse" color-interpolation-filters="sRGB">
<feFlood flood-opacity="0" result="BackgroundImageFix"/>
<feColorMatrix in="SourceAlpha" type="matrix" values="0 0 0 0 0 0 0 0 0 0 0 0 0 0 0 0 0 0 127 0" result="hardAlpha"/>
<feOffset dy="50"/>
<feGaussianBlur stdDeviation="50"/>
<feColorMatrix type="matrix" values="0 0 0 0 0.287945 0 0 0 0 0.690331 0 0 0 0 0.311159 0 0 0 0.511937 0"/>
<feBlend mode="normal" in2="BackgroundImageFix" result="effect1_dropShadow"/>
<feBlend mode="normal" in="SourceGraphic" in2="effect1_dropShadow" result="shape"/>
</filter>
<filter id="filter1_d" x="0" y="92" width="305" height="305" filterUnits="userSpaceOnUse" color-interpolation-filters="sRGB">
<feFlood flood-opacity="0" result="BackgroundImageFix"/>
<feColorMatrix in="SourceAlpha" type="matrix" values="0 0 0 0 0 0 0 0 0 0 0 0 0 0 0 0 0 0 127 0" result="hardAlpha"/>
<feOffset dy="50"/>
<feGaussianBlur stdDeviation="50"/>
<feColorMatrix type="matrix" values="0 0 0 0 0 0 0 0 0 0.878634 0 0 0 0 0.984422 0 0 0 0.397864 0"/>
<feBlend mode="normal" in2="BackgroundImageFix" result="effect1_dropShadow"/>
<feBlend mode="normal" in="SourceGraphic" in2="effect1_dropShadow" result="shape"/>
</filter>
<filter id="filter2_d" x="260" y="156" width="305" height="305" filterUnits="userSpaceOnUse" color-interpolation-filters="sRGB">
<feFlood flood-opacity="0" result="BackgroundImageFix"/>
<feColorMatrix in="SourceAlpha" type="matrix" values="0 0 0 0 0 0 0 0 0 0 0 0 0 0 0 0 0 0 127 0" result="hardAlpha"/>
<feOffset dy="50"/>
<feGaussianBlur stdDeviation="50"/>
<feColorMatrix type="matrix" values="0 0 0 0 1 0 0 0 0 0 0 0 0 0 0 0 0 0 0.351125 0"/>
<feBlend mode="normal" in2="BackgroundImageFix" result="effect1_dropShadow"/>
<feBlend mode="normal" in="SourceGraphic" in2="effect1_dropShadow" result="shape"/>
</filter>
<filter id="filter3_d" x="294" y="80" width="265" height="265" filterUnits="userSpaceOnUse" color-interpolation-filters="sRGB">
<feFlood flood-opacity="0" result="BackgroundImageFix"/>
<feColorMatrix in="SourceAlpha" type="matrix" values="0 0 0 0 0 0 0 0 0 0 0 0 0 0 0 0 0 0 127 0" result="hardAlpha"/>
<feOffset dy="50"/>
<feGaussianBlur stdDeviation="50"/>
<feColorMatrix type="matrix" values="0 0 0 0 1 0 0 0 0 0.765416 0 0 0 0 0 0 0 0 1 0"/>
<feBlend mode="normal" in2="BackgroundImageFix" result="effect1_dropShadow"/>
<feBlend mode="normal" in="SourceGraphic" in2="effect1_dropShadow" result="shape"/>
</filter>
<filter id="filter4_d" x="83" y="194" width="265" height="265" filterUnits="userSpaceOnUse" color-interpolation-filters="sRGB">
<feFlood flood-opacity="0" result="BackgroundImageFix"/>
<feColorMatrix in="SourceAlpha" type="matrix" values="0 0 0 0 0 0 0 0 0 0 0 0 0 0 0 0 0 0 127 0" result="hardAlpha"/>
<feOffset dy="50"/>
<feGaussianBlur stdDeviation="50"/>
<feColorMatrix type="matrix" values="0 0 0 0 0.287945 0 0 0 0 0.690331 0 0 0 0 0.311159 0 0 0 0.511937 0"/>
<feBlend mode="normal" in2="BackgroundImageFix" result="effect1_dropShadow"/>
<feBlend mode="normal" in="SourceGraphic" in2="effect1_dropShadow" result="shape"/>
</filter>
<filter id="filter5_d" x="268" y="0" width="265" height="265" filterUnits="userSpaceOnUse" color-interpolation-filters="sRGB">
<feFlood flood-opacity="0" result="BackgroundImageFix"/>
<feColorMatrix in="SourceAlpha" type="matrix" values="0 0 0 0 0 0 0 0 0 0 0 0 0 0 0 0 0 0 127 0" result="hardAlpha"/>
<feOffset dy="50"/>
<feGaussianBlur stdDeviation="50"/>
<feColorMatrix type="matrix" values="0 0 0 0 0 0 0 0 0 0.878634 0 0 0 0 0.984422 0 0 0 0.397864 0"/>
<feBlend mode="normal" in2="BackgroundImageFix" result="effect1_dropShadow"/>
<feBlend mode="normal" in="SourceGraphic" in2="effect1_dropShadow" result="shape"/>
</filter>
<radialGradient id="paint0_radial" cx="0" cy="0" r="1" gradientUnits="userSpaceOnUse" gradientTransform="translate(340.216 88.3328) rotate(124.61) scale(255.74)">
<stop stop-color="#FDE869"/>
<stop offset="1" stop-color="#00B1C1"/>
</radialGradient>
<radialGradient id="paint1_radial" cx="0" cy="0" r="1" gradientUnits="userSpaceOnUse" gradientTransform="translate(316.028 125.752) rotate(180) scale(123.778)">
<stop stop-color="white" stop-opacity="0.304196"/>
<stop offset="0.52929" stop-opacity="0.193537"/>
<stop offset="1" stop-color="white" stop-opacity="0.428813"/>
</radialGradient>
<linearGradient id="paint2_linear" x1="46.975" y1="195.55" x2="154.075" y2="301.6" gradientUnits="userSpaceOnUse">
<stop stop-color="#00EAF8"/>
<stop offset="1" stop-color="#6D42EF"/>
</linearGradient>
<radialGradient id="paint3_radial" cx="0" cy="0" r="1" gradientUnits="userSpaceOnUse" gradientTransform="translate(167.341 174.582) rotate(180) scale(76.4514)">
<stop stop-color="white" stop-opacity="0.304196"/>
<stop offset="0.52929" stop-opacity="0.193537"/>
<stop offset="1" stop-color="white" stop-opacity="0.428813"/>
</radialGradient>
<linearGradient id="paint4_linear" x1="307.5" y1="258.5" x2="412.5" y2="363.5" gradientUnits="userSpaceOnUse">
<stop stop-color="#FF1B1B"/>
<stop offset="1" stop-color="#880F0F"/>
</linearGradient>
<radialGradient id="paint5_radial" cx="0" cy="0" r="1" gradientUnits="userSpaceOnUse" gradientTransform="translate(427.341 238.582) rotate(180) scale(76.4514)">
<stop stop-color="white" stop-opacity="0.304196"/>
<stop offset="0.52929" stop-opacity="0.193537"/>
<stop offset="1" stop-color="white" stop-opacity="0.428813"/>
</radialGradient>
<linearGradient id="paint6_linear" x1="361.175" y1="163.15" x2="427.475" y2="228.8" gradientUnits="userSpaceOnUse">
<stop stop-color="#FFD529"/>
<stop offset="1" stop-color="#FD8440"/>
</linearGradient>
<radialGradient id="paint7_radial" cx="0" cy="0" r="1" gradientUnits="userSpaceOnUse" gradientTransform="translate(435.687 150.17) rotate(180) scale(47.327)">
<stop stop-color="white" stop-opacity="0.304196"/>
<stop offset="0.52929" stop-opacity="0.193537"/>
<stop offset="1" stop-color="white" stop-opacity="0.428813"/>
</radialGradient>
<radialGradient id="paint8_radial" cx="0" cy="0" r="1" gradientUnits="userSpaceOnUse" gradientTransform="translate(233.936 249.863) rotate(124.61) scale(97.7828)">
<stop stop-color="#FDE869"/>
<stop offset="1" stop-color="#00B1C1"/>
</radialGradient>
<radialGradient id="paint9_radial" cx="0" cy="0" r="1" gradientUnits="userSpaceOnUse" gradientTransform="translate(224.687 264.17) rotate(180) scale(47.327)">
<stop stop-color="white" stop-opacity="0.304196"/>
<stop offset="0.52929" stop-opacity="0.193537"/>
<stop offset="1" stop-color="white" stop-opacity="0.428813"/>
</radialGradient>
<linearGradient id="paint10_linear" x1="335.175" y1="83.15" x2="401.475" y2="148.8" gradientUnits="userSpaceOnUse">
<stop stop-color="#00EAF8"/>
<stop offset="1" stop-color="#6D42EF"/>
</linearGradient>
<radialGradient id="paint11_radial" cx="0" cy="0" r="1" gradientUnits="userSpaceOnUse" gradientTransform="translate(409.687 70.1701) rotate(180) scale(47.327)">
<stop stop-color="white" stop-opacity="0.304196"/>
<stop offset="0.52929" stop-opacity="0.193537"/>
<stop offset="1" stop-color="white" stop-opacity="0.428813"/>
</radialGradient>
</defs>
</svg>
