<?xml version="1.0" standalone="no"?>
<svg xmlns:xlink="http://www.w3.org/1999/xlink" id="wave" style="transform:rotate(0deg); transition: 0.3s" viewBox="0 0 1440 360" version="1.1" xmlns="http://www.w3.org/2000/svg"><defs><linearGradient id="sw-gradient-0" x1="0" x2="0" y1="1" y2="0"><stop stop-color="rgba(238, 241, 250, 1)" offset="0%"/><stop stop-color="rgba(238, 241, 250, 1)" offset="100%"/></linearGradient></defs><path style="transform:translate(0, 0px); opacity:1" fill="url(#sw-gradient-0)" d="M0,216L48,234C96,252,192,288,288,264C384,240,480,156,576,156C672,156,768,240,864,246C960,252,1056,180,1152,180C1248,180,1344,252,1440,252C1536,252,1632,180,1728,144C1824,108,1920,108,2016,126C2112,144,2208,180,2304,204C2400,228,2496,240,2592,216C2688,192,2784,132,2880,144C2976,156,3072,240,3168,270C3264,300,3360,276,3456,258C3552,240,3648,228,3744,234C3840,240,3936,264,4032,246C4128,228,4224,168,4320,174C4416,180,4512,252,4608,234C4704,216,4800,108,4896,96C4992,84,5088,168,5184,168C5280,168,5376,84,5472,54C5568,24,5664,48,5760,48C5856,48,5952,24,6048,18C6144,12,6240,24,6336,42C6432,60,6528,84,6624,84C6720,84,6816,60,6864,48L6912,36L6912,360L6864,360C6816,360,6720,360,6624,360C6528,360,6432,360,6336,360C6240,360,6144,360,6048,360C5952,360,5856,360,5760,360C5664,360,5568,360,5472,360C5376,360,5280,360,5184,360C5088,360,4992,360,4896,360C4800,360,4704,360,4608,360C4512,360,4416,360,4320,360C4224,360,4128,360,4032,360C3936,360,3840,360,3744,360C3648,360,3552,360,3456,360C3360,360,3264,360,3168,360C3072,360,2976,360,2880,360C2784,360,2688,360,2592,360C2496,360,2400,360,2304,360C2208,360,2112,360,2016,360C1920,360,1824,360,1728,360C1632,360,1536,360,1440,360C1344,360,1248,360,1152,360C1056,360,960,360,864,360C768,360,672,360,576,360C480,360,384,360,288,360C192,360,96,360,48,360L0,360Z"/><defs><linearGradient id="sw-gradient-1" x1="0" x2="0" y1="1" y2="0"><stop stop-color="rgba(238, 241, 250, 1)" offset="0%"/><stop stop-color="rgba(238, 241, 250, 1)" offset="100%"/></linearGradient></defs><path style="transform:translate(0, 50px); opacity:0.9" fill="url(#sw-gradient-1)" d="M0,180L48,198C96,216,192,252,288,246C384,240,480,192,576,192C672,192,768,240,864,216C960,192,1056,96,1152,84C1248,72,1344,144,1440,168C1536,192,1632,168,1728,186C1824,204,1920,264,2016,288C2112,312,2208,300,2304,300C2400,300,2496,312,2592,264C2688,216,2784,108,2880,72C2976,36,3072,72,3168,120C3264,168,3360,228,3456,246C3552,264,3648,240,3744,216C3840,192,3936,168,4032,174C4128,180,4224,216,4320,228C4416,240,4512,228,4608,204C4704,180,4800,144,4896,144C4992,144,5088,180,5184,204C5280,228,5376,240,5472,228C5568,216,5664,180,5760,192C5856,204,5952,264,6048,294C6144,324,6240,324,6336,306C6432,288,6528,252,6624,198C6720,144,6816,72,6864,36L6912,0L6912,360L6864,360C6816,360,6720,360,6624,360C6528,360,6432,360,6336,360C6240,360,6144,360,6048,360C5952,360,5856,360,5760,360C5664,360,5568,360,5472,360C5376,360,5280,360,5184,360C5088,360,4992,360,4896,360C4800,360,4704,360,4608,360C4512,360,4416,360,4320,360C4224,360,4128,360,4032,360C3936,360,3840,360,3744,360C3648,360,3552,360,3456,360C3360,360,3264,360,3168,360C3072,360,2976,360,2880,360C2784,360,2688,360,2592,360C2496,360,2400,360,2304,360C2208,360,2112,360,2016,360C1920,360,1824,360,1728,360C1632,360,1536,360,1440,360C1344,360,1248,360,1152,360C1056,360,960,360,864,360C768,360,672,360,576,360C480,360,384,360,288,360C192,360,96,360,48,360L0,360Z"/></svg>