<svg xmlns="http://www.w3.org/2000/svg" xmlns:xlink="http://www.w3.org/1999/xlink" viewBox="0 0 500 500"><defs><clipPath id="freepik--clip-path--inject-49"><path d="M305.38,293.31s13.52,1.47,20.28.88,12.34-2.06,14.4-3.82-.3-72.58-.3-76.4-6.46-10.28-10.28-13.22-18.22-4.7-25.27,1.17-8.52,23.81-8.52,44.67-3.23,40.84-1.47,43.19S305.38,293.31,305.38,293.31Z" style="fill:#fff;stroke:#263238;stroke-linecap:round;stroke-linejoin:round"></path></clipPath><clipPath id="freepik--clip-path-2--inject-49"><path d="M277.47,325.34c-11.75.88-16.75-1.47-18.51,4.41s-.59,12,7.93,13.81S283.58,339.41,298,335c2.81-.86,5.12-1.46,7.18-1.9-2.65-3.26-3.65-8.05-4-10.51C291.73,324.19,283.89,324.86,277.47,325.34Z" style="fill:#fff;stroke:#263238;stroke-linecap:round;stroke-linejoin:round"></path></clipPath><clipPath id="freepik--clip-path-3--inject-49"><path d="M352.4,334.45s15.87-1.77,23.21-3.53,12.34-2.64,15,3.23-1.18,11.17-10.29,12.93c-10.92,2.12-29.09-3.23-29.09-3.23Z" style="fill:#fff;stroke:#263238;stroke-linecap:round;stroke-linejoin:round"></path></clipPath></defs><g id="freepik--background-simple--inject-49"><path d="M419.05,267.13c7.2-51.59-27.7-118.22-63.88-144.77-65.32-47.94-119.59-35.74-161.8-15.69S145.14,187.73,116,216.5s-64.31,73.22-20.1,108.09,98.49,7.84,144.72,3.48S348.13,339.41,381.3,322C404.46,309.8,415.86,289.93,419.05,267.13Z" style="fill:#00CEDD"></path><path d="M419.05,267.13c7.2-51.59-27.7-118.22-63.88-144.77-65.32-47.94-119.59-35.74-161.8-15.69S145.14,187.73,116,216.5s-64.31,73.22-20.1,108.09,98.49,7.84,144.72,3.48S348.13,339.41,381.3,322C404.46,309.8,415.86,289.93,419.05,267.13Z" style="fill:#fff;opacity:0.7000000000000001"></path></g><g id="freepik--Blanket--inject-49"><polygon points="453.06 398.93 61.65 398.93 106.81 298.82 407.9 298.82 453.06 398.93" style="fill:#fff;stroke:#263238;stroke-linecap:round;stroke-linejoin:round"></polygon></g><g id="freepik--Shadow--inject-49"><ellipse cx="258.76" cy="342.33" rx="162.99" ry="38.67" style="fill:#00CEDD"></ellipse><ellipse cx="258.76" cy="342.33" rx="162.99" ry="38.67" style="fill:#fff;opacity:0.5"></ellipse></g><g id="freepik--Plants--inject-49"><path d="M362.8,139.29c.05,0-.64-3.43-.71-3.64-.79-2.45-3.76-6.72-6.65-6.71a3.41,3.41,0,0,0-3.28,3.88c.21,2,2,3.75,3.67,4.74C357.77,138.73,362.8,139.29,362.8,139.29Z" style="fill:#00CEDD"></path><path d="M368.39,116.19c-2.72,1-4.07,6-4,8.57,0,.23.52,3.69.57,3.67l0,0c-.22.79-.45,1.64-.67,2.58-.41,1.72-.86,3.68-1.2,5.85a60.08,60.08,0,0,0-.76,7,45.09,45.09,0,0,0,.26,7.9.36.36,0,0,1,0,.1c-.35-.77-1.42-2.88-1.52-3-1.41-2.15-5.41-5.48-8.19-4.72a3.42,3.42,0,0,0-2.14,4.61c.74,1.9,2.95,3.08,4.8,3.61,2.09.59,6.74-.11,7.11-.17a59.79,59.79,0,0,0,1.71,7.88c.43,1.51.9,3,1.4,4.52-.33-.66-.63-1.24-.68-1.32-1.41-2.15-5.41-5.48-8.19-4.71a3.41,3.41,0,0,0-2.14,4.6c.74,1.9,3,3.09,4.8,3.61s5.85,0,6.9-.13c.2.57.39,1.15.59,1.72.95,2.76,1.91,5.5,2.77,8.22.31,1,.57,1.92.84,2.87-.29-.58-.54-1.06-.59-1.13-1.41-2.16-5.41-5.49-8.19-4.72a3.42,3.42,0,0,0-2.14,4.61c.74,1.89,2.95,3.08,4.8,3.61s5.46.06,6.71-.11c.25,1,.5,2,.69,2.94.12.66.27,1.29.35,2s.19,1.32.28,2c.13,1.26.27,2.56.37,3.8.07.85.13,1.67.18,2.5-.29-1-.9-2.83-1-3a13.27,13.27,0,0,0-4.41-5,4.28,4.28,0,0,0-.37-.66,3.42,3.42,0,0,0-5-.78c-2.18,1.88-1.64,7.06-.63,9.43.06.14.87,1.58,1.4,2.49-.4-.49-.77-1-1.18-1.45-.8-1-1.63-1.94-2.51-3l-1.36-1.47c-.44-.5-1-1-1.45-1.46-1.16-1.11-2.38-2.19-3.64-3.24.86-.7,3.87-3.25,4.74-5s1.48-4.15.58-6a3.43,3.43,0,0,0-4.85-1.53c-2.44,1.53-2.68,6.73-2,9.22,0,.16.7,1.9,1.07,2.85-.76-.63-1.51-1.26-2.3-1.87-2.28-1.77-4.64-3.48-7-5.2-.72-.52-1.43-1.06-2.15-1.59.31-.24,3.95-3.19,4.92-5.12.86-1.72,1.48-4.15.58-6a3.42,3.42,0,0,0-4.84-1.53c-2.44,1.53-2.69,6.73-2,9.22,0,.19,1,2.69,1.26,3.32-1.57-1.17-3.12-2.35-4.61-3.58a60.4,60.4,0,0,1-5.7-5.31c.14-.11,3.95-3.17,4.95-5.15.86-1.72,1.48-4.15.58-6a3.42,3.42,0,0,0-4.84-1.54c-2.45,1.53-2.69,6.73-2.06,9.22,0,.17.76,2.08,1.13,3l-.14.09A43.85,43.85,0,0,1,325.6,162c-.77-1.21-1.43-2.42-2.06-3.61.77-.5,4.26-2.8,5.35-4.49s1.93-4,1.23-5.87a3.41,3.41,0,0,0-4.64-2.06c-2.6,1.25-3.41,6.39-3.05,8.94,0,.14.37,1.53.64,2.54-.27-.54-.57-1.1-.82-1.62-.95-2-1.69-3.82-2.34-5.47-.36-.94-.67-1.8-1-2.61.5-.88,2.47-4.45,2.66-6.41s-.12-4.41-1.61-5.78a3.42,3.42,0,0,0-5.07.31c-1.73,2.31-.08,7.24,1.41,9.34.12.19,2.46,2.79,2.49,2.75l0-.06c.26.78.54,1.62.86,2.52.62,1.67,1.33,3.55,2.23,5.54a64.16,64.16,0,0,0,3.24,6.29,44.51,44.51,0,0,0,4.59,6.45l.06.06c-.72-.44-2.77-1.61-2.94-1.68-2.36-1-7.53-1.59-9.43.58a3.41,3.41,0,0,0,.76,5c1.66,1.18,4.16,1,6,.37,2.07-.66,5.56-3.81,5.84-4.06a59.12,59.12,0,0,0,5.77,5.62c1.19,1,2.42,2,3.66,3-.63-.36-1.2-.68-1.29-.72-2.37-1-7.53-1.59-9.43.58a3.42,3.42,0,0,0,.76,5c1.66,1.17,4.15.94,6,.36s4.89-3.22,5.68-3.92l1.44,1.11c2.32,1.78,4.63,3.53,6.85,5.33.78.63,1.53,1.28,2.28,1.93-.56-.32-1-.59-1.12-.62-2.36-1-7.53-1.59-9.43.58a3.41,3.41,0,0,0,.76,5c1.66,1.18,4.16.95,6,.37s4.6-3,5.54-3.8c.75.69,1.5,1.38,2.19,2.08.47.49,1,.92,1.38,1.44l1.32,1.49c.81,1,1.64,2,2.4,3,.54.68,1,1.33,1.53,2-.77-.64-2.3-1.86-2.44-2-2.19-1.36-7.21-2.71-9.41-.85a3.41,3.41,0,0,0,0,5.08c1.47,1.41,4,1.56,5.87,1.27,2.09-.33,5.88-2.8,6.35-3.11.83,1.09,1.62,2.16,2.35,3.17,2.55,3.53,4.54,6.56,5.9,8.69l.14.22,1.76-.85c-.09-.14-.18-.28-.28-.42-1.42-2.14-3.49-5.15-6.14-8.65-.84-1.11-1.75-2.28-2.7-3.47a40.38,40.38,0,0,0,2.74-3.39c2,.8,6.24.83,6.78.83.09,1.36.17,2.69.22,3.94.18,4.35.17,8,.12,10.5v.3l1.94-.94c0-2.52-.1-5.92-.36-10-.08-1.38-.2-2.86-.34-4.38.54-.13,4.93-1.26,6.59-2.58,1.5-1.2,3.08-3.15,3-5.18a3.4,3.4,0,0,0-3.75-3.42c-2.86.36-5.26,5-5.73,7.51,0,.15-.15,1.8-.21,2.85-.05-.62-.1-1.22-.17-1.86-.13-1.26-.29-2.52-.46-3.87-.11-.64-.22-1.3-.32-2s-.28-1.34-.41-2c-.35-1.57-.78-3.14-1.24-4.71,1.1-.12,5-.58,6.69-1.54s3.52-2.64,3.77-4.66a3.41,3.41,0,0,0-3.19-3.95c-2.88-.07-6,4.13-6.8,6.56-.05.15-.46,2-.67,3-.29-.94-.57-1.89-.89-2.83-.93-2.73-2-5.46-3-8.19-.31-.83-.61-1.67-.91-2.51.39,0,5.05-.48,6.93-1.56,1.67-1,3.52-2.64,3.78-4.66a3.41,3.41,0,0,0-3.19-3.95c-2.89-.07-6,4.13-6.8,6.56-.07.18-.66,2.79-.78,3.46-.66-1.84-1.31-3.68-1.87-5.53a59.43,59.43,0,0,1-1.83-7.57c.18,0,5-.46,7-1.57,1.67-1,3.53-2.64,3.78-4.66a3.41,3.41,0,0,0-3.19-3.95c-2.88-.07-6,4.13-6.8,6.56-.06.16-.51,2.14-.7,3.09h-.17a43.79,43.79,0,0,1-.43-7.83c0-1.44.14-2.81.27-4.15.92,0,5.1,0,6.94-.79s3.79-2.24,4.27-4.22a3.42,3.42,0,0,0-2.74-4.28c-2.86-.38-6.37,3.45-7.48,5.78-.06.12-.53,1.47-.86,2.46.07-.6.13-1.22.21-1.8.29-2.16.69-4.12,1.06-5.85.22-1,.43-1.87.64-2.7.91-.46,4.52-2.35,5.76-3.88s2.34-3.74,1.85-5.71A3.41,3.41,0,0,0,368.39,116.19Z" style="fill:#00CEDD"></path><path d="M316.26,160.64c2.25-.09,6.76-2.4,6.76-2.4s-2.42-2.51-2.6-2.65c-2-1.6-6.85-3.52-9.25-1.93a3.42,3.42,0,0,0-.59,5.05C311.87,160.28,314.34,160.72,316.26,160.64Z" style="fill:#00CEDD"></path><g style="opacity:0.5"><path d="M362.8,139.29c.05,0-.64-3.43-.71-3.64-.79-2.45-3.76-6.72-6.65-6.71a3.41,3.41,0,0,0-3.28,3.88c.21,2,2,3.75,3.67,4.74C357.77,138.73,362.8,139.29,362.8,139.29Z" style="fill:#fff"></path><path d="M368.39,116.19c-2.72,1-4.07,6-4,8.57,0,.23.52,3.69.57,3.67l0,0c-.22.79-.45,1.64-.67,2.58-.41,1.72-.86,3.68-1.2,5.85a60.08,60.08,0,0,0-.76,7,45.09,45.09,0,0,0,.26,7.9.36.36,0,0,1,0,.1c-.35-.77-1.42-2.88-1.52-3-1.41-2.15-5.41-5.48-8.19-4.72a3.42,3.42,0,0,0-2.14,4.61c.74,1.9,2.95,3.08,4.8,3.61,2.09.59,6.74-.11,7.11-.17a59.79,59.79,0,0,0,1.71,7.88c.43,1.51.9,3,1.4,4.52-.33-.66-.63-1.24-.68-1.32-1.41-2.15-5.41-5.48-8.19-4.71a3.41,3.41,0,0,0-2.14,4.6c.74,1.9,3,3.09,4.8,3.61s5.85,0,6.9-.13c.2.57.39,1.15.59,1.72.95,2.76,1.91,5.5,2.77,8.22.31,1,.57,1.92.84,2.87-.29-.58-.54-1.06-.59-1.13-1.41-2.16-5.41-5.49-8.19-4.72a3.42,3.42,0,0,0-2.14,4.61c.74,1.89,2.95,3.08,4.8,3.61s5.46.06,6.71-.11c.25,1,.5,2,.69,2.94.12.66.27,1.29.35,2s.19,1.32.28,2c.13,1.26.27,2.56.37,3.8.07.85.13,1.67.18,2.5-.29-1-.9-2.83-1-3a13.27,13.27,0,0,0-4.41-5,4.28,4.28,0,0,0-.37-.66,3.42,3.42,0,0,0-5-.78c-2.18,1.88-1.64,7.06-.63,9.43.06.14.87,1.58,1.4,2.49-.4-.49-.77-1-1.18-1.45-.8-1-1.63-1.94-2.51-3l-1.36-1.47c-.44-.5-1-1-1.45-1.46-1.16-1.11-2.38-2.19-3.64-3.24.86-.7,3.87-3.25,4.74-5s1.48-4.15.58-6a3.43,3.43,0,0,0-4.85-1.53c-2.44,1.53-2.68,6.73-2,9.22,0,.16.7,1.9,1.07,2.85-.76-.63-1.51-1.26-2.3-1.87-2.28-1.77-4.64-3.48-7-5.2-.72-.52-1.43-1.06-2.15-1.59.31-.24,3.95-3.19,4.92-5.12.86-1.72,1.48-4.15.58-6a3.42,3.42,0,0,0-4.84-1.53c-2.44,1.53-2.69,6.73-2,9.22,0,.19,1,2.69,1.26,3.32-1.57-1.17-3.12-2.35-4.61-3.58a60.4,60.4,0,0,1-5.7-5.31c.14-.11,3.95-3.17,4.95-5.15.86-1.72,1.48-4.15.58-6a3.42,3.42,0,0,0-4.84-1.54c-2.45,1.53-2.69,6.73-2.06,9.22,0,.17.76,2.08,1.13,3l-.14.09A43.85,43.85,0,0,1,325.6,162c-.77-1.21-1.43-2.42-2.06-3.61.77-.5,4.26-2.8,5.35-4.49s1.93-4,1.23-5.87a3.41,3.41,0,0,0-4.64-2.06c-2.6,1.25-3.41,6.39-3.05,8.94,0,.14.37,1.53.64,2.54-.27-.54-.57-1.1-.82-1.62-.95-2-1.69-3.82-2.34-5.47-.36-.94-.67-1.8-1-2.61.5-.88,2.47-4.45,2.66-6.41s-.12-4.41-1.61-5.78a3.42,3.42,0,0,0-5.07.31c-1.73,2.31-.08,7.24,1.41,9.34.12.19,2.46,2.79,2.49,2.75l0-.06c.26.78.54,1.62.86,2.52.62,1.67,1.33,3.55,2.23,5.54a64.16,64.16,0,0,0,3.24,6.29,44.51,44.51,0,0,0,4.59,6.45l.06.06c-.72-.44-2.77-1.61-2.94-1.68-2.36-1-7.53-1.59-9.43.58a3.41,3.41,0,0,0,.76,5c1.66,1.18,4.16,1,6,.37,2.07-.66,5.56-3.81,5.84-4.06a59.12,59.12,0,0,0,5.77,5.62c1.19,1,2.42,2,3.66,3-.63-.36-1.2-.68-1.29-.72-2.37-1-7.53-1.59-9.43.58a3.42,3.42,0,0,0,.76,5c1.66,1.17,4.15.94,6,.36s4.89-3.22,5.68-3.92l1.44,1.11c2.32,1.78,4.63,3.53,6.85,5.33.78.63,1.53,1.28,2.28,1.93-.56-.32-1-.59-1.12-.62-2.36-1-7.53-1.59-9.43.58a3.41,3.41,0,0,0,.76,5c1.66,1.18,4.16.95,6,.37s4.6-3,5.54-3.8c.75.69,1.5,1.38,2.19,2.08.47.49,1,.92,1.38,1.44l1.32,1.49c.81,1,1.64,2,2.4,3,.54.68,1,1.33,1.53,2-.77-.64-2.3-1.86-2.44-2-2.19-1.36-7.21-2.71-9.41-.85a3.41,3.41,0,0,0,0,5.08c1.47,1.41,4,1.56,5.87,1.27,2.09-.33,5.88-2.8,6.35-3.11.83,1.09,1.62,2.16,2.35,3.17,2.55,3.53,4.54,6.56,5.9,8.69l.14.22,1.76-.85c-.09-.14-.18-.28-.28-.42-1.42-2.14-3.49-5.15-6.14-8.65-.84-1.11-1.75-2.28-2.7-3.47a40.38,40.38,0,0,0,2.74-3.39c2,.8,6.24.83,6.78.83.09,1.36.17,2.69.22,3.94.18,4.35.17,8,.12,10.5v.3l1.94-.94c0-2.52-.1-5.92-.36-10-.08-1.38-.2-2.86-.34-4.38.54-.13,4.93-1.26,6.59-2.58,1.5-1.2,3.08-3.15,3-5.18a3.4,3.4,0,0,0-3.75-3.42c-2.86.36-5.26,5-5.73,7.51,0,.15-.15,1.8-.21,2.85-.05-.62-.1-1.22-.17-1.86-.13-1.26-.29-2.52-.46-3.87-.11-.64-.22-1.3-.32-2s-.28-1.34-.41-2c-.35-1.57-.78-3.14-1.24-4.71,1.1-.12,5-.58,6.69-1.54s3.52-2.64,3.77-4.66a3.41,3.41,0,0,0-3.19-3.95c-2.88-.07-6,4.13-6.8,6.56-.05.15-.46,2-.67,3-.29-.94-.57-1.89-.89-2.83-.93-2.73-2-5.46-3-8.19-.31-.83-.61-1.67-.91-2.51.39,0,5.05-.48,6.93-1.56,1.67-1,3.52-2.64,3.78-4.66a3.41,3.41,0,0,0-3.19-3.95c-2.89-.07-6,4.13-6.8,6.56-.07.18-.66,2.79-.78,3.46-.66-1.84-1.31-3.68-1.87-5.53a59.43,59.43,0,0,1-1.83-7.57c.18,0,5-.46,7-1.57,1.67-1,3.53-2.64,3.78-4.66a3.41,3.41,0,0,0-3.19-3.95c-2.88-.07-6,4.13-6.8,6.56-.06.16-.51,2.14-.7,3.09h-.17a43.79,43.79,0,0,1-.43-7.83c0-1.44.14-2.81.27-4.15.92,0,5.1,0,6.94-.79s3.79-2.24,4.27-4.22a3.42,3.42,0,0,0-2.74-4.28c-2.86-.38-6.37,3.45-7.48,5.78-.06.12-.53,1.47-.86,2.46.07-.6.13-1.22.21-1.8.29-2.16.69-4.12,1.06-5.85.22-1,.43-1.87.64-2.7.91-.46,4.52-2.35,5.76-3.88s2.34-3.74,1.85-5.71A3.41,3.41,0,0,0,368.39,116.19Z" style="fill:#fff"></path><path d="M316.26,160.64c2.25-.09,6.76-2.4,6.76-2.4s-2.42-2.51-2.6-2.65c-2-1.6-6.85-3.52-9.25-1.93a3.42,3.42,0,0,0-.59,5.05C311.87,160.28,314.34,160.72,316.26,160.64Z" style="fill:#fff"></path></g><path d="M342.57,217.06s13.67-33,21.33-31.52-13.13,52.54-13.13,52.54,24.06-45.38,40.47-45.38-6,50.16-26.8,66.88c0,0,32.81-35.35,51.95-27.71s-38.28,43.47-38.28,43.47,33.36-10.51,29.53-2.39-14.22,9.56-14.22,9.56l37.73,1.91H299.92l29.53-2.87S298.82,266.27,307,260.06s26.24,7.16,26.24,7.16-31.16-34.39-25.15-47.29,32.81,23.41,32.81,23.41-21.87-46.34-17.5-54.46S342.57,217.06,342.57,217.06Z" style="fill:#00CEDD"></path><path d="M342.57,217.06s13.67-33,21.33-31.52-13.13,52.54-13.13,52.54,24.06-45.38,40.47-45.38-6,50.16-26.8,66.88c0,0,32.81-35.35,51.95-27.71s-38.28,43.47-38.28,43.47,33.36-10.51,29.53-2.39-14.22,9.56-14.22,9.56l37.73,1.91H299.92l29.53-2.87S298.82,266.27,307,260.06s26.24,7.16,26.24,7.16-31.16-34.39-25.15-47.29,32.81,23.41,32.81,23.41-21.87-46.34-17.5-54.46S342.57,217.06,342.57,217.06Z" style="fill:#fff;opacity:0.4"></path><path d="M338.2,218.8c12,35.54,12,60.7,12,60.7s-14.22.54-29-10.39" style="fill:none;stroke:#263238;stroke-linecap:round;stroke-linejoin:round"></path><path d="M344.21,237.94a212.73,212.73,0,0,1,9.84-31.17" style="fill:none;stroke:#263238;stroke-linecap:round;stroke-linejoin:round"></path><path d="M379.75,217.16l-30.62,45.39s-20.78-17.5-27.89-27.34" style="fill:none;stroke:#263238;stroke-linecap:round;stroke-linejoin:round"></path><path d="M349.68,273.48s32.26-15.31,45.38-24.06" style="fill:none;stroke:#263238;stroke-linecap:round;stroke-linejoin:round"></path><path d="M156.06,177.21s-.47-2.54-.52-2.69c-.59-1.81-2.79-5-4.92-5a2.52,2.52,0,0,0-2.42,2.86,5.3,5.3,0,0,0,2.71,3.51C152.34,176.79,156.06,177.2,156.06,177.21Z" style="fill:#00CEDD"></path><path d="M160.19,160.14c-2,.72-3,4.43-2.94,6.33,0,.17.38,2.73.42,2.71l0,0c-.16.58-.33,1.21-.5,1.9-.3,1.28-.63,2.73-.88,4.32a44,44,0,0,0-.57,5.2,33.1,33.1,0,0,0,.2,5.84s0,.05,0,.07c-.26-.57-1.05-2.13-1.12-2.24-1-1.59-4-4.05-6-3.48a2.52,2.52,0,0,0-1.58,3.4c.54,1.4,2.18,2.28,3.54,2.67,1.54.44,5-.08,5.25-.13a45.62,45.62,0,0,0,1.27,5.82c.31,1.12.66,2.23,1,3.34-.24-.48-.46-.91-.5-1-1-1.59-4-4.05-6.05-3.48a2.52,2.52,0,0,0-1.58,3.4,5.31,5.31,0,0,0,3.54,2.67,17,17,0,0,0,5.11-.1c.14.42.28.85.43,1.27.7,2,1.41,4.06,2.05,6.07.22.71.42,1.42.62,2.12-.22-.43-.41-.78-.44-.84-1-1.59-4-4-6.05-3.48a2.52,2.52,0,0,0-1.58,3.4c.54,1.4,2.18,2.28,3.54,2.67a15.92,15.92,0,0,0,5-.08c.19.73.37,1.46.51,2.17.09.49.2,1,.26,1.45l.21,1.46c.09.93.2,1.89.27,2.8,0,.63.09,1.24.14,1.85-.22-.71-.67-2.09-.72-2.2a9.86,9.86,0,0,0-3.26-3.71,3.43,3.43,0,0,0-.28-.49,2.51,2.51,0,0,0-3.7-.57c-1.62,1.39-1.21,5.21-.47,7,0,.1.64,1.17,1,1.84-.29-.36-.56-.71-.86-1.07-.6-.73-1.21-1.43-1.86-2.2-.33-.35-.67-.71-1-1.08s-.72-.71-1.08-1.08c-.85-.82-1.75-1.61-2.68-2.39a16.76,16.76,0,0,0,3.49-3.67c.64-1.27,1.1-3.07.43-4.42a2.51,2.51,0,0,0-3.57-1.13c-1.81,1.13-2,5-1.52,6.81,0,.12.51,1.4.79,2.1-.56-.46-1.12-.93-1.7-1.38-1.69-1.3-3.43-2.56-5.17-3.83L140,205.56c.23-.18,2.92-2.36,3.63-3.79.64-1.27,1.1-3.06.43-4.41a2.51,2.51,0,0,0-3.57-1.13c-1.81,1.13-2,5-1.52,6.81,0,.14.73,2,.93,2.45-1.16-.86-2.31-1.74-3.4-2.64a45.37,45.37,0,0,1-4.22-3.92c.11-.09,2.93-2.35,3.66-3.81a5.28,5.28,0,0,0,.43-4.41,2.53,2.53,0,0,0-3.58-1.14c-1.8,1.13-2,5-1.52,6.82,0,.12.57,1.53.83,2.19l-.1.07a33.12,33.12,0,0,1-3.46-4.65c-.57-.9-1.06-1.79-1.52-2.67.57-.37,3.15-2.07,3.95-3.32s1.43-2.92.91-4.34a2.52,2.52,0,0,0-3.43-1.51c-1.92.92-2.52,4.72-2.26,6.6,0,.1.28,1.13.48,1.87-.2-.4-.42-.81-.6-1.19-.71-1.45-1.26-2.82-1.74-4-.26-.7-.49-1.33-.7-1.93a16.86,16.86,0,0,0,2-4.74,5.32,5.32,0,0,0-1.19-4.27,2.54,2.54,0,0,0-3.75.23c-1.27,1.71-.06,5.36,1,6.91.1.13,1.83,2.06,1.85,2l0,0c.19.58.39,1.2.63,1.87.46,1.23,1,2.61,1.65,4.09a44.92,44.92,0,0,0,2.4,4.64,31.74,31.74,0,0,0,3.38,4.76l.05.05c-.53-.32-2.05-1.19-2.17-1.24-1.75-.75-5.57-1.18-7,.43a2.52,2.52,0,0,0,.56,3.71,5.27,5.27,0,0,0,4.43.27c1.52-.49,4.1-2.81,4.31-3a45.29,45.29,0,0,0,4.26,4.15c.88.76,1.79,1.49,2.71,2.22-.47-.27-.89-.51-.95-.53-1.75-.75-5.57-1.18-7,.43a2.52,2.52,0,0,0,.56,3.71c1.22.87,3.07.7,4.42.27a16.65,16.65,0,0,0,4.2-2.9l1.07.82c1.7,1.31,3.42,2.61,5.06,3.94.57.46,1.13.95,1.68,1.42-.42-.23-.77-.43-.83-.45-1.74-.76-5.56-1.18-7,.43a2.51,2.51,0,0,0,.56,3.71c1.22.87,3.07.7,4.42.27a16.19,16.19,0,0,0,4.1-2.81c.55.51,1.1,1,1.62,1.53.34.37.69.69,1,1.07l1,1.1c.59.73,1.21,1.47,1.77,2.19.4.5.76,1,1.13,1.46-.57-.47-1.7-1.37-1.8-1.43-1.62-1-5.33-2-7-.63a2.53,2.53,0,0,0,0,3.75,5.27,5.27,0,0,0,4.34.94c1.54-.24,4.34-2.07,4.69-2.3.61.81,1.2,1.6,1.74,2.35,1.88,2.6,3.35,4.84,4.35,6.42l.11.16,1.3-.63a3.37,3.37,0,0,0-.21-.31c-1.05-1.58-2.58-3.81-4.54-6.39-.61-.82-1.29-1.68-2-2.56a27.7,27.7,0,0,0,2-2.51,18.31,18.31,0,0,0,5,.61c.06,1,.12,2,.15,2.92.14,3.2.13,5.88.1,7.75a1.7,1.7,0,0,0,0,.22l1.43-.69c0-1.86-.07-4.38-.26-7.35-.06-1-.15-2.11-.25-3.24.4-.09,3.64-.93,4.86-1.9s2.28-2.33,2.24-3.83a2.52,2.52,0,0,0-2.77-2.53c-2.11.27-3.89,3.68-4.23,5.55,0,.11-.11,1.33-.16,2.1,0-.45-.08-.9-.13-1.37-.09-.93-.21-1.86-.34-2.85-.08-.48-.15-1-.23-1.46s-.21-1-.31-1.49c-.25-1.16-.57-2.32-.91-3.48a16.5,16.5,0,0,0,4.94-1.13,5.29,5.29,0,0,0,2.79-3.45,2.52,2.52,0,0,0-2.36-2.92c-2.13,0-4.39,3.05-5,4.85,0,.11-.35,1.45-.5,2.19-.21-.7-.42-1.39-.66-2.09-.68-2-1.44-4-2.19-6.05-.23-.62-.45-1.24-.67-1.85.29,0,3.73-.36,5.12-1.16,1.23-.71,2.6-2,2.79-3.44a2.52,2.52,0,0,0-2.36-2.92c-2.13,0-4.4,3.05-5,4.84,0,.14-.49,2.07-.57,2.56-.49-1.36-1-2.72-1.39-4.08a45.05,45.05,0,0,1-1.35-5.6c.14,0,3.73-.34,5.15-1.15,1.23-.71,2.61-2,2.79-3.45a2.52,2.52,0,0,0-2.35-2.92c-2.13-.05-4.4,3-5,4.85,0,.12-.37,1.58-.52,2.29h-.12a32.74,32.74,0,0,1-.32-5.78c0-1.06.1-2.08.2-3.07a17,17,0,0,0,5.13-.58c1.3-.57,2.8-1.66,3.15-3.12a2.52,2.52,0,0,0-2-3.16c-2.11-.28-4.71,2.55-5.53,4.27,0,.09-.39,1.09-.64,1.82.06-.44.1-.9.16-1.33.22-1.6.51-3,.78-4.33.17-.72.33-1.38.48-2a16.74,16.74,0,0,0,4.26-2.87,5.28,5.28,0,0,0,1.36-4.22A2.53,2.53,0,0,0,160.19,160.14Z" style="fill:#00CEDD"></path><path d="M121.68,193c1.66-.07,5-1.78,5-1.78s-1.79-1.85-1.92-1.95c-1.48-1.19-5-2.6-6.83-1.43a2.53,2.53,0,0,0-.44,3.73C118.43,192.71,120.26,193,121.68,193Z" style="fill:#00CEDD"></path><g style="opacity:0.5"><path d="M156.06,177.21s-.47-2.54-.52-2.69c-.59-1.81-2.79-5-4.92-5a2.52,2.52,0,0,0-2.42,2.86,5.3,5.3,0,0,0,2.71,3.51C152.34,176.79,156.06,177.2,156.06,177.21Z" style="fill:#fff"></path><path d="M160.19,160.14c-2,.72-3,4.43-2.94,6.33,0,.17.38,2.73.42,2.71l0,0c-.16.58-.33,1.21-.5,1.9-.3,1.28-.63,2.73-.88,4.32a44,44,0,0,0-.57,5.2,33.1,33.1,0,0,0,.2,5.84s0,.05,0,.07c-.26-.57-1.05-2.13-1.12-2.24-1-1.59-4-4.05-6-3.48a2.52,2.52,0,0,0-1.58,3.4c.54,1.4,2.18,2.28,3.54,2.67,1.54.44,5-.08,5.25-.13a45.62,45.62,0,0,0,1.27,5.82c.31,1.12.66,2.23,1,3.34-.24-.48-.46-.91-.5-1-1-1.59-4-4.05-6.05-3.48a2.52,2.52,0,0,0-1.58,3.4,5.31,5.31,0,0,0,3.54,2.67,17,17,0,0,0,5.11-.1c.14.42.28.85.43,1.27.7,2,1.41,4.06,2.05,6.07.22.71.42,1.42.62,2.12-.22-.43-.41-.78-.44-.84-1-1.59-4-4-6.05-3.48a2.52,2.52,0,0,0-1.58,3.4c.54,1.4,2.18,2.28,3.54,2.67a15.92,15.92,0,0,0,5-.08c.19.73.37,1.46.51,2.17.09.49.2,1,.26,1.45l.21,1.46c.09.93.2,1.89.27,2.8,0,.63.09,1.24.14,1.85-.22-.71-.67-2.09-.72-2.2a9.86,9.86,0,0,0-3.26-3.71,3.43,3.43,0,0,0-.28-.49,2.51,2.51,0,0,0-3.7-.57c-1.62,1.39-1.21,5.21-.47,7,0,.1.64,1.17,1,1.84-.29-.36-.56-.71-.86-1.07-.6-.73-1.21-1.43-1.86-2.2-.33-.35-.67-.71-1-1.08s-.72-.71-1.08-1.08c-.85-.82-1.75-1.61-2.68-2.39a16.76,16.76,0,0,0,3.49-3.67c.64-1.27,1.1-3.07.43-4.42a2.51,2.51,0,0,0-3.57-1.13c-1.81,1.13-2,5-1.52,6.81,0,.12.51,1.4.79,2.1-.56-.46-1.12-.93-1.7-1.38-1.69-1.3-3.43-2.56-5.17-3.83L140,205.56c.23-.18,2.92-2.36,3.63-3.79.64-1.27,1.1-3.06.43-4.41a2.51,2.51,0,0,0-3.57-1.13c-1.81,1.13-2,5-1.52,6.81,0,.14.73,2,.93,2.45-1.16-.86-2.31-1.74-3.4-2.64a45.37,45.37,0,0,1-4.22-3.92c.11-.09,2.93-2.35,3.66-3.81a5.28,5.28,0,0,0,.43-4.41,2.53,2.53,0,0,0-3.58-1.14c-1.8,1.13-2,5-1.52,6.82,0,.12.57,1.53.83,2.19l-.1.07a33.12,33.12,0,0,1-3.46-4.65c-.57-.9-1.06-1.79-1.52-2.67.57-.37,3.15-2.07,3.95-3.32s1.43-2.92.91-4.34a2.52,2.52,0,0,0-3.43-1.51c-1.92.92-2.52,4.72-2.26,6.6,0,.1.28,1.13.48,1.87-.2-.4-.42-.81-.6-1.19-.71-1.45-1.26-2.82-1.74-4-.26-.7-.49-1.33-.7-1.93a16.86,16.86,0,0,0,2-4.74,5.32,5.32,0,0,0-1.19-4.27,2.54,2.54,0,0,0-3.75.23c-1.27,1.71-.06,5.36,1,6.91.1.13,1.83,2.06,1.85,2l0,0c.19.58.39,1.2.63,1.87.46,1.23,1,2.61,1.65,4.09a44.92,44.92,0,0,0,2.4,4.64,31.74,31.74,0,0,0,3.38,4.76l.05.05c-.53-.32-2.05-1.19-2.17-1.24-1.75-.75-5.57-1.18-7,.43a2.52,2.52,0,0,0,.56,3.71,5.27,5.27,0,0,0,4.43.27c1.52-.49,4.1-2.81,4.31-3a45.29,45.29,0,0,0,4.26,4.15c.88.76,1.79,1.49,2.71,2.22-.47-.27-.89-.51-.95-.53-1.75-.75-5.57-1.18-7,.43a2.52,2.52,0,0,0,.56,3.71c1.22.87,3.07.7,4.42.27a16.65,16.65,0,0,0,4.2-2.9l1.07.82c1.7,1.31,3.42,2.61,5.06,3.94.57.46,1.13.95,1.68,1.42-.42-.23-.77-.43-.83-.45-1.74-.76-5.56-1.18-7,.43a2.51,2.51,0,0,0,.56,3.71c1.22.87,3.07.7,4.42.27a16.19,16.19,0,0,0,4.1-2.81c.55.51,1.1,1,1.62,1.53.34.37.69.69,1,1.07l1,1.1c.59.73,1.21,1.47,1.77,2.19.4.5.76,1,1.13,1.46-.57-.47-1.7-1.37-1.8-1.43-1.62-1-5.33-2-7-.63a2.53,2.53,0,0,0,0,3.75,5.27,5.27,0,0,0,4.34.94c1.54-.24,4.34-2.07,4.69-2.3.61.81,1.2,1.6,1.74,2.35,1.88,2.6,3.35,4.84,4.35,6.42l.11.16,1.3-.63a3.37,3.37,0,0,0-.21-.31c-1.05-1.58-2.58-3.81-4.54-6.39-.61-.82-1.29-1.68-2-2.56a27.7,27.7,0,0,0,2-2.51,18.31,18.31,0,0,0,5,.61c.06,1,.12,2,.15,2.92.14,3.2.13,5.88.1,7.75a1.7,1.7,0,0,0,0,.22l1.43-.69c0-1.86-.07-4.38-.26-7.35-.06-1-.15-2.11-.25-3.24.4-.09,3.64-.93,4.86-1.9s2.28-2.33,2.24-3.83a2.52,2.52,0,0,0-2.77-2.53c-2.11.27-3.89,3.68-4.23,5.55,0,.11-.11,1.33-.16,2.1,0-.45-.08-.9-.13-1.37-.09-.93-.21-1.86-.34-2.85-.08-.48-.15-1-.23-1.46s-.21-1-.31-1.49c-.25-1.16-.57-2.32-.91-3.48a16.5,16.5,0,0,0,4.94-1.13,5.29,5.29,0,0,0,2.79-3.45,2.52,2.52,0,0,0-2.36-2.92c-2.13,0-4.39,3.05-5,4.85,0,.11-.35,1.45-.5,2.19-.21-.7-.42-1.39-.66-2.09-.68-2-1.44-4-2.19-6.05-.23-.62-.45-1.24-.67-1.85.29,0,3.73-.36,5.12-1.16,1.23-.71,2.6-2,2.79-3.44a2.52,2.52,0,0,0-2.36-2.92c-2.13,0-4.4,3.05-5,4.84,0,.14-.49,2.07-.57,2.56-.49-1.36-1-2.72-1.39-4.08a45.05,45.05,0,0,1-1.35-5.6c.14,0,3.73-.34,5.15-1.15,1.23-.71,2.61-2,2.79-3.45a2.52,2.52,0,0,0-2.35-2.92c-2.13-.05-4.4,3-5,4.85,0,.12-.37,1.58-.52,2.29h-.12a32.74,32.74,0,0,1-.32-5.78c0-1.06.1-2.08.2-3.07a17,17,0,0,0,5.13-.58c1.3-.57,2.8-1.66,3.15-3.12a2.52,2.52,0,0,0-2-3.16c-2.11-.28-4.71,2.55-5.53,4.27,0,.09-.39,1.09-.64,1.82.06-.44.1-.9.16-1.33.22-1.6.51-3,.78-4.33.17-.72.33-1.38.48-2a16.74,16.74,0,0,0,4.26-2.87,5.28,5.28,0,0,0,1.36-4.22A2.53,2.53,0,0,0,160.19,160.14Z" style="fill:#fff"></path><path d="M121.68,193c1.66-.07,5-1.78,5-1.78s-1.79-1.85-1.92-1.95c-1.48-1.19-5-2.6-6.83-1.43a2.53,2.53,0,0,0-.44,3.73C118.43,192.71,120.26,193,121.68,193Z" style="fill:#fff"></path></g><path d="M141.11,234.66s10.1-24.35,15.76-23.29-9.7,38.82-9.7,38.82,17.78-33.53,29.9-33.53-4.45,37.06-19.8,49.41c0,0,24.24-26.12,38.38-20.47s-28.28,32.11-28.28,32.11S192,270,189.19,276,178.68,283,178.68,283l27.88,1.41H109.61l21.81-2.12S108.8,271,114.86,266.42s19.39,5.29,19.39,5.29-23-25.4-18.58-34.93,24.23,17.29,24.23,17.29S123.74,219.84,127,213.84,141.11,234.66,141.11,234.66Z" style="fill:#00CEDD"></path><path d="M141.11,234.66s10.1-24.35,15.76-23.29-9.7,38.82-9.7,38.82,17.78-33.53,29.9-33.53-4.45,37.06-19.8,49.41c0,0,24.24-26.12,38.38-20.47s-28.28,32.11-28.28,32.11S192,270,189.19,276,178.68,283,178.68,283l27.88,1.41H109.61l21.81-2.12S108.8,271,114.86,266.42s19.39,5.29,19.39,5.29-23-25.4-18.58-34.93,24.23,17.29,24.23,17.29S123.74,219.84,127,213.84,141.11,234.66,141.11,234.66Z" style="fill:#fff;opacity:0.4"></path><path d="M137.88,235.94c8.89,26.26,8.89,44.84,8.89,44.84s-10.5.41-21.41-7.67" style="fill:none;stroke:#263238;stroke-linecap:round;stroke-linejoin:round"></path><path d="M142.33,250.08a157.5,157.5,0,0,1,7.27-23" style="fill:none;stroke:#263238;stroke-linecap:round;stroke-linejoin:round"></path><path d="M168.58,234.73,146,268.26s-15.35-12.93-20.6-20.2" style="fill:none;stroke:#263238;stroke-linecap:round;stroke-linejoin:round"></path><path d="M146.37,276.34S170.2,265,179.9,258.57" style="fill:none;stroke:#263238;stroke-linecap:round;stroke-linejoin:round"></path></g><g id="freepik--character-2--inject-49"><path d="M340.06,290.37s-22,1.18-34.09.88-18.51-1.76-31.44-3.52S245.15,283.61,244,298.3s8.23,16.17,42.61,25,65.53,11.46,92-1.47,27.62-37,19.39-39.37-18.51,2.64-37.31,4.7S340.06,290.37,340.06,290.37Z" style="fill:#263238;stroke:#263238;stroke-linecap:round;stroke-linejoin:round"></path><path d="M305.38,293.31s13.52,1.47,20.28.88,12.34-2.06,14.4-3.82-.3-72.58-.3-76.4-6.46-10.28-10.28-13.22-18.22-4.7-25.27,1.17-8.52,23.81-8.52,44.67-3.23,40.84-1.47,43.19S305.38,293.31,305.38,293.31Z" style="fill:#fff"></path><g style="clip-path:url(#freepik--clip-path--inject-49)"><path d="M305.38,293.31s13.52,1.47,20.28.88,12.34-2.06,14.4-3.82-.3-72.58-.3-76.4-6.46-10.28-10.28-13.22-18.22-4.7-25.27,1.17-8.52,23.81-8.52,44.67-3.23,40.84-1.47,43.19S305.38,293.31,305.38,293.31Z" style="opacity:0.4"></path></g><path d="M305.38,293.31s13.52,1.47,20.28.88,12.34-2.06,14.4-3.82-.3-72.58-.3-76.4-6.46-10.28-10.28-13.22-18.22-4.7-25.27,1.17-8.52,23.81-8.52,44.67-3.23,40.84-1.47,43.19S305.38,293.31,305.38,293.31Z" style="fill:none;stroke:#263238;stroke-linecap:round;stroke-linejoin:round"></path><path d="M331.48,208.94a41.25,41.25,0,0,0-5.77-8.19c-2.73-2.94-13-4.7-18,1.17-1.85,2.16-3.16,5.94-4.08,10.89,1.75,3.78,5.17,7.77,11.84,7.92C321.53,220.87,327.21,215.06,331.48,208.94Z" style="fill:#fff;stroke:#263238;stroke-linecap:round;stroke-linejoin:round"></path><path d="M316.84,298a11.23,11.23,0,0,0-2.64,9.7c1.18,5.87,10.28-4.41,17-6.76s0-5-3.52-4.41S316.84,298,316.84,298Z" style="fill:#00CEDD;stroke:#263238;stroke-linecap:round;stroke-linejoin:round"></path><path d="M324.48,305.36s-5,1.76-6.46-2.06-1.18-5.29-1.18-5.29,10.88-1.76,13.23-2.35S326.54,304.77,324.48,305.36Z" style="fill:#fff;stroke:#263238;stroke-linecap:round;stroke-linejoin:round"></path><path d="M323.9,196.64a191.6,191.6,0,0,0-.89,33.79c1.18,18.51,4.71,60.82,3.24,67s-1.77,7.94-1.77,7.94-.29.29,6.76-4.41,19.1-9.11,21.75-9.7,4.7-6.17,3.52-12.34-2.27-19-2.27-19l26.07-7.12s-17.33-32-20-40.26-9.4-8.81-14.4-8.81S326,199.57,323.9,196.64Z" style="fill:#00CEDD;stroke:#263238;stroke-linecap:round;stroke-linejoin:round"></path><path d="M354.05,259.33s-2.53-37.13-2.53-43" style="fill:#fff;stroke:#263238;stroke-linecap:round;stroke-linejoin:round"></path><path d="M356.22,256.28s.29-7.34,11.17-12,18.51,2.94,19.39,7.93-.88,14.4-10,12.93S357.69,261.87,356.22,256.28Z" style="fill:#fff;stroke:#263238;stroke-linecap:round;stroke-linejoin:round"></path><path d="M307.15,199.28s-13.23,7.93-22.33,10.58-17.34,3.52-18.52,6.46-8.52,53.78-8.52,53.78l21.16-2.65s.88,18.22-.88,20.86,1.76,4.12,5,5,24.1,2.64,24.1,2.64a2.18,2.18,0,0,0,1.76-2.94c-.59-2.64-5.88-6.17-5.88-7.63s1.77-22.92,3.82-39.38S309.5,204,307.15,199.28Z" style="fill:#00CEDD;stroke:#263238;stroke-linecap:round;stroke-linejoin:round"></path><line x1="278.94" y1="256.28" x2="279.53" y2="228.37" style="fill:#fff;stroke:#263238;stroke-linecap:round;stroke-linejoin:round"></line><path d="M256,271.56a17.65,17.65,0,0,1-.88-11.46c1.76-5.87,7.64-7.63,14.69-7.63s10.28,4.4,10.28,9.4-5.58,9.4-12,11.16S258.66,273.62,256,271.56Z" style="fill:#fff;stroke:#263238;stroke-linecap:round;stroke-linejoin:round"></path><path d="M316.07,230.18a4.85,4.85,0,1,0,4.7,4.85A4.77,4.77,0,0,0,316.07,230.18Zm0,7.93a3.09,3.09,0,1,1,3-3.08A3,3,0,0,1,316.07,238.11Z" style="fill:#fff;stroke:#263238;stroke-linecap:round;stroke-linejoin:round"></path><path d="M317,229h14.1a0,0,0,0,1,0,0v11.17a3.53,3.53,0,0,1-3.53,3.53h-7.05a3.53,3.53,0,0,1-3.53-3.53V229A0,0,0,0,1,317,229Z" style="fill:#fff;stroke:#263238;stroke-linecap:round;stroke-linejoin:round"></path><path d="M372.09,292.72S350.34,309.47,328,316.23a219.32,219.32,0,0,1-50.54,9.11c-11.75.88-16.75-1.47-18.51,4.41s-.59,12,7.93,13.81S283.58,339.41,298,335s15.5-2,38.55-5.25c17.86-2.53,44.08-2.65,60.53-13.52s18.22-30.56,7.94-34.38-22.92,4.7-25.86,5.58" style="fill:#263238;stroke:#263238;stroke-linecap:round;stroke-linejoin:round"></path><path d="M317,320s22-7,33.5-13,24-14.5,26.5-16" style="fill:none;stroke:#fff;stroke-linecap:round;stroke-linejoin:round"></path><path d="M277.47,325.34c-11.75.88-16.75-1.47-18.51,4.41s-.59,12,7.93,13.81S283.58,339.41,298,335c2.81-.86,5.12-1.46,7.18-1.9-2.65-3.26-3.65-8.05-4-10.51C291.73,324.19,283.89,324.86,277.47,325.34Z" style="fill:#fff"></path><g style="clip-path:url(#freepik--clip-path-2--inject-49)"><path d="M277.47,325.34c-11.75.88-16.75-1.47-18.51,4.41s-.59,12,7.93,13.81S283.58,339.41,298,335c2.81-.86,5.12-1.46,7.18-1.9-2.65-3.26-3.65-8.05-4-10.51C291.73,324.19,283.89,324.86,277.47,325.34Z" style="opacity:0.4"></path></g><path d="M277.47,325.34c-11.75.88-16.75-1.47-18.51,4.41s-.59,12,7.93,13.81S283.58,339.41,298,335c2.81-.86,5.12-1.46,7.18-1.9-2.65-3.26-3.65-8.05-4-10.51C291.73,324.19,283.89,324.86,277.47,325.34Z" style="fill:none;stroke:#263238;stroke-linecap:round;stroke-linejoin:round"></path><path d="M272.48,343c-6.5-1-11.18-3.9-11-9,.14-4.12,2.76-6.75,4.64-8.41-4,.1-6.13.71-7.16,4.16-1.77,5.87-.59,12,7.93,13.81a18,18,0,0,0,7.67-.23Z" style="fill:#fff;stroke:#263238;stroke-linecap:round;stroke-linejoin:round"></path><path d="M275.71,301.24s41.13,20,55.24,26.45,21.45,6.76,21.45,6.76l-1.18,9.4s-7.64,1.76-31.14-4.41S267.19,327.1,251.61,318s-10.87-27.33-3.23-30.56,15.87-.59,15.87-.59" style="fill:#263238;stroke:#263238;stroke-linecap:round;stroke-linejoin:round"></path><path d="M269,296q30.78,16.29,62,31.69" style="fill:none;stroke:#fff;stroke-linecap:round;stroke-linejoin:round"></path><path d="M352.4,334.45s15.87-1.77,23.21-3.53,12.34-2.64,15,3.23-1.18,11.17-10.29,12.93c-10.92,2.12-29.09-3.23-29.09-3.23Z" style="fill:#fff"></path><g style="clip-path:url(#freepik--clip-path-3--inject-49)"><path d="M352.4,334.45s15.87-1.77,23.21-3.53,12.34-2.64,15,3.23-1.18,11.17-10.29,12.93c-10.92,2.12-29.09-3.23-29.09-3.23Z" style="opacity:0.4"></path></g><path d="M352.4,334.45s15.87-1.77,23.21-3.53,12.34-2.64,15,3.23-1.18,11.17-10.29,12.93c-10.92,2.12-29.09-3.23-29.09-3.23Z" style="fill:none;stroke:#263238;stroke-linecap:round;stroke-linejoin:round"></path><path d="M310.89,231s4.61,1.15,5.5,2.62a2.35,2.35,0,0,1-1.68,3.59,48,48,0,0,1-6.68,0s5.58.29,5.58,2.64-.88,7.35-1.76,8.52-1.76,2.94-4.41,2.94h-3.52s-1.77.59-4.71,1.76a24.07,24.07,0,0,1-5.87,1.47s-8.52,11.17-14.11,16.75-10.58,10-14.1,10-11.17-7.34-8.82-13.52,24.1-13.22,28.8-16.16,9.79-6.82,12.05-9.4c3.71-4.25,3.94-10,6.46-10.58A55.36,55.36,0,0,1,310.89,231Z" style="fill:#fff;stroke:#263238;stroke-linecap:round;stroke-linejoin:round"></path><path d="M304.69,241a18.5,18.5,0,0,1,8.35,1.67" style="fill:none;stroke:#263238;stroke-linecap:round;stroke-linejoin:round"></path><path d="M304.69,245.09s5.49-.71,7.4,1.2" style="fill:none;stroke:#263238;stroke-linecap:round;stroke-linejoin:round"></path><path d="M303.92,251.29l2.2-1.9a17.73,17.73,0,0,0,2.63.48" style="fill:none;stroke:#263238;stroke-linecap:round;stroke-linejoin:round"></path><path d="M312.33,236a15.25,15.25,0,0,1-4.3,1.17" style="fill:none;stroke:#263238;stroke-linecap:round;stroke-linejoin:round"></path><path d="M377.53,268.07c6.91-1.14,10-9.68,5.21-14.81a5.6,5.6,0,0,0-2-1.54c-3.26-1.27-7.45-3-13.32-.14-6.26,3-11.6,6.48-14.24,6.48s-8-7.19-11.79-9.25-2.18,3.36-3.65,5.71-7.64,4.41-9.41,5-1.17,2.35.89,3.52,1.76,1.18,4.7,3.53a12.67,12.67,0,0,0,7.93,2.94c2.06,0,7.93-2.06,7.93-2.06s15.87,1.18,25,.88A21,21,0,0,0,377.53,268.07Z" style="fill:#fff;stroke:#263238;stroke-linecap:round;stroke-linejoin:round"></path><path d="M344.47,255.4c0,2.92-7,5.29-15.73,5.29S313,258.32,313,255.4s7-5.29,15.72-5.29S344.47,252.48,344.47,255.4Z" style="fill:#fff;stroke:#263238;stroke-linecap:round;stroke-linejoin:round"></path><ellipse cx="328.74" cy="255.4" rx="8.91" ry="3" style="fill:#fff;stroke:#263238;stroke-linecap:round;stroke-linejoin:round;stroke-width:0.5px"></ellipse><path d="M341.45,248.73c-.77-.76-2-1.07-3.57-.15,0,0-4.7,5.87-2.94,6.75s5.88-1.76,7.06-3.23" style="fill:#fff;stroke:#263238;stroke-linecap:round;stroke-linejoin:round"></path><path d="M329.19,263a34.87,34.87,0,0,1,4.91.28,21.45,21.45,0,0,0,6-.18" style="fill:none;stroke:#263238;stroke-linecap:round;stroke-linejoin:round"></path><path d="M332.65,265.5a35.71,35.71,0,0,0,8.89,1.09" style="fill:none;stroke:#263238;stroke-linecap:round;stroke-linejoin:round"></path><path d="M306.56,196.34s-5,3.09-5.22,5.85-4.76,12.52-6.26,14.27.5,1.5,2.5.5,6.26-5.76,7.76-5.76,3.51,3.26,3.51,3.26S308.78,200.26,306.56,196.34Z" style="fill:#fff;stroke:#263238;stroke-linecap:round;stroke-linejoin:round"></path><path d="M308.32,210.45c.3-6.18-1.76-14.11-1.76-14.11s-6.76,1.76-9.7,1.18-9.4-10.88-10.28-19.1,1.47-22.92,1.47-22.92-.59-4.12,14.1-8.23,20-1.47,22,3.82-1.18,22-2.35,29.68S325.07,201,326,204.86" style="fill:#fff;stroke:#263238;stroke-linecap:round;stroke-linejoin:round"></path><path d="M294.22,168.72s-.59,3.53-2.65,4.7-2.35,2.06-.58,2.94a8.77,8.77,0,0,0,3.52.88" style="fill:none;stroke:#263238;stroke-linecap:round;stroke-linejoin:round"></path><path d="M290.38,181.94a12.84,12.84,0,0,0,5.18.94c3.23,0,7.47-2.41,7.47-2.41s-2.07,6.82-5.59,8.29S290.38,181.94,290.38,181.94Z" style="fill:#263238;stroke:#263238;stroke-linecap:round;stroke-linejoin:round"></path><path d="M301.27,165.78l-1.72,3.7s1.72-.17,5.83-.47" style="fill:none;stroke:#263238;stroke-linecap:round;stroke-linejoin:round"></path><path d="M289.81,166.37l-1.07,2.87a13.55,13.55,0,0,0,3.13.36" style="fill:none;stroke:#263238;stroke-linecap:round;stroke-linejoin:round"></path><path d="M300.39,159.32s4.11-1.47,6.17,3.52" style="fill:none;stroke:#263238;stroke-linecap:round;stroke-linejoin:round"></path><path d="M292.75,159.9s-2.65-.58-3.23,3.53" style="fill:none;stroke:#263238;stroke-linecap:round;stroke-linejoin:round"></path><path d="M300.65,185.66a11.25,11.25,0,0,0-5.95,2.55,2.73,2.73,0,0,0,2.74.55A7.74,7.74,0,0,0,300.65,185.66Z" style="fill:#fff;stroke:#263238;stroke-linecap:round;stroke-linejoin:round"></path><path d="M317,135.9c-6.12-1.42-14.83-2.12-14.83-.47a2,2,0,0,0,.94,1.67c-1.56-.59-5.22-1.53-12.48-1.2-10.36.47-11.06,2.82-9.42,3.29a56.73,56.73,0,0,0,6.45.93c-.5.19-1,.39-1.49.61-2.91,1.13-8.79,3.77-9.66,6.94a1.84,1.84,0,0,0,0,1,5.87,5.87,0,0,0,.29,6.38c4.09,5.94,8.92.74,8.92.74s-2.23,3.35,5.2.74a114.35,114.35,0,0,0,16.36-7.81l.24,0c1.9.72,3.59,1.86,4.08,3.56,1.17,4.11-1.18,7.63,0,10s3.82,2.05,3.82,3.23-1.77,1.47-.59,2.64,4.41,1.77,6.46,1.18a17.3,17.3,0,0,0,2.53-.88c.12-.84.24-1.69.34-2.54.91-1.87,3.63-7.77,4.41-13C329.47,146.49,323.11,137.31,317,135.9Z" style="fill:#263238;stroke:#263238;stroke-linecap:round;stroke-linejoin:round"></path><path d="M295.21,147.89s.77,3.56,6.36,1.27,15.26-5.59,21.87-2.79" style="fill:none;stroke:#fff;stroke-linecap:round;stroke-linejoin:round;stroke-width:0.5px"></path><path d="M311.56,152.27s7.81-2.85,11.62,1.47" style="fill:none;stroke:#fff;stroke-linecap:round;stroke-linejoin:round;stroke-width:0.5px"></path><path d="M317.43,171.66s2.35-6.17,5.88-6.17,2.06,8.23,1.47,10.28-3.53,7-5.58,2.94c0,0-.22,8.37-6,12.4" style="fill:#fff;stroke:#263238;stroke-linecap:round;stroke-linejoin:round"></path><path d="M322.62,193.42s.25,13-.25,15.53a18.22,18.22,0,0,0,.25,6l3.51-7s8.26,8,9.26,6.51-5.51-6.76-6-11.77S323.37,188.16,322.62,193.42Z" style="fill:#fff;stroke:#263238;stroke-linecap:round;stroke-linejoin:round"></path><path d="M390.6,334.15c-2.22-4.93-6.11-5.1-11.64-4l0,.33s8.5,1,9,6-1.17,7.83-10.5,10c-2.4.56-4.48.62-6.15,1a36.9,36.9,0,0,0,9-.4C389.42,345.32,393.24,340,390.6,334.15Z" style="fill:#fff;stroke:#263238;stroke-linecap:round;stroke-linejoin:round"></path></g><g id="freepik--character-1--inject-49"><path d="M277.37,199.6a23.87,23.87,0,0,1-7.65,4.69c-4.73,1.79-11.05,4.84-15,5.1s-2.93-5.54,1.08-9.21A18.18,18.18,0,0,1,269,195.36C273.11,195.69,280.53,195.67,277.37,199.6Z" style="fill:#00CEDD;stroke:#263238;stroke-linecap:round;stroke-linejoin:round"></path><path d="M256,201.54s3.55-.38,7.75,3.14C263.76,204.68,259.1,198.42,256,201.54Z" style="fill:#fff"></path><path d="M259.82,199.1s3.55-.38,7.75,3.13C267.57,202.23,262.91,196,259.82,199.1Z" style="fill:#fff"></path><path d="M263.14,197.35s3.55-.39,7.75,3.13C270.89,200.48,266.24,194.22,263.14,197.35Z" style="fill:#fff"></path><path d="M204.36,148.21s-7.34-5.29-23.8-2.65c-11,1.78-20.09,13.78-17.26,25.05,1.55,6.13,8.24,12.68,4.92,19.32-2.64,5.29-15.28,5-18.51,22s8.52,29.39,24.68,30.27,25.27-11.76,28.21-21.45,7.64-24.69,7.94-38.5S209.07,154.38,204.36,148.21Z" style="fill:#263238;stroke:#263238;stroke-linecap:round;stroke-linejoin:round"></path><path d="M202,151.33A31.94,31.94,0,0,0,179.64,154c-11.33,6-6.66,20.33-2,28s-1,12.33-11.66,22.33-12.34,22.34-5.67,30" style="fill:none;stroke:#fff;stroke-linecap:round;stroke-linejoin:round;stroke-width:0.5px"></path><path d="M201.64,156s-18-.67-19,10.67,13.67,19.66,14,26.66-6,14.34-11.66,19.34" style="fill:none;stroke:#fff;stroke-linecap:round;stroke-linejoin:round;stroke-width:0.5px"></path><path d="M224.35,198.46s7.64,1.76,10.28,2.64,5.88,4.41,6.17,9.7S243.15,237,244,243.41s-1.76,18.51-5,22-7.64,6.76-11.46,1.76-.59-8.52.88-15.28,2.35-28.79-1.18-36.43S220.82,198.75,224.35,198.46Z" style="fill:#00CEDD;stroke:#263238;stroke-linecap:round;stroke-linejoin:round"></path><path d="M238.16,256.93s.58,1.47-3.53,2.35-8.23,1.76-9.4,5.29.88,6.17,7.05,7.05,11.46-3.52,12.34-6.76,6.14-7.13,6.14-7.13S241.68,254.58,238.16,256.93Z" style="fill:#fff;stroke:#263238;stroke-linecap:round;stroke-linejoin:round"></path><path d="M235.51,214c0,3.82,3.82,12.34,3.53,22s-10.87,25.27-14.69,33.79,7.34,28.21-2.06,47.31-27,19.39-41.14,15-26.74-12.93-29.68-25.86,1.47-22.62,9.41-30.26,15.57-8.23,16.75-14.11,2.35-.88-.89-10.57-6.75-31.15-5.87-37.62,12-11.16,19.68-14.39a132.93,132.93,0,0,0,15.28-7.94s5.88-2.05,8.82-.88,5.29,4.41,9.7,7.94,7.05,3.81,7.05,3.81" style="fill:#00CEDD;stroke:#263238;stroke-linecap:round;stroke-linejoin:round"></path><path d="M170.79,270.64s10-2.11,22.72,4.23" style="fill:none;stroke:#263238;stroke-linecap:round;stroke-linejoin:round"></path><path d="M182.41,265.89s11.1,1.58,16.91,6.87" style="fill:none;stroke:#263238;stroke-linecap:round;stroke-linejoin:round"></path><path d="M224.35,198.46c-4.41-3.53-6.76-6.76-9.7-7.94s-8.82.88-8.82.88a137.18,137.18,0,0,1-12.29,6.6,99.41,99.41,0,0,0,9.36,21c7,11.76,11.46,20.57,14.1,15.87,2.26-4,6.65-27.07,7.53-36.29Z" style="fill:#fff;stroke:#263238;stroke-linecap:round;stroke-linejoin:round"></path><path d="M217,234.89c1.24-2.2,3.12-10.15,4.71-18.39-6.47,4.2-15,2.28-19.94.58.36.65.74,1.29,1.13,1.94C210,230.78,214.36,239.59,217,234.89Z" style="fill:#fff;stroke:#263238;stroke-linecap:round;stroke-linejoin:round"></path><path d="M188.2,204.33a28.31,28.31,0,0,0-12.63,5.29c-6.47,4.7-6.17,11.17-3.82,17.34s10.28,25.86,15,31.14,7.94,9.41,10.29,8.23,28.49-26.47,36.14-35.26a180.61,180.61,0,0,0,11.75-14.69s.3-.59,2.65-.88,5.58-4.7,5.58-4.7-1.47,2.93,1.18,2.93,4.11-.88,4.7-2.64,3.53-4.7,2.35-6.17-4.41-2.35-4.41-2.35,4.12-.3,6.17.59,4.41,1.76,4.41.88-2.64-4.41-5.29-5.29-8.52-1.47-11.16.59-7.35,9.11-7.35,9.11c-.88,1.17-3.23,4.7-3.23,4.7s-15.58,14.4-22.33,18.22-19.1,9.69-19.1,9.69a8.11,8.11,0,0,0,.29-4.41,10.86,10.86,0,0,0-1.47-3.23,44,44,0,0,1-.29-4.7c0-2.35-3.82-5.88-3.82-10" style="fill:#00CEDD;stroke:#263238;stroke-linecap:round;stroke-linejoin:round"></path><path d="M199.08,241.06s-8.23,2.94-11.17,8.52" style="fill:#fff;stroke:#263238;stroke-linecap:round;stroke-linejoin:round"></path><path d="M187,244s2.35-3.82,8.52-4.11" style="fill:none;stroke:#263238;stroke-linecap:round;stroke-linejoin:round"></path><path d="M254.32,213.73c2.64,0,4.11-.88,4.7-2.64s3.53-4.7,2.35-6.17-4.41-2.35-4.41-2.35,4.12-.3,6.17.59,4.41,1.76,4.41.88-2.64-4.41-5.29-5.29-8.52-1.47-11.16.59-7.35,9.11-7.35,9.11c-.88,1.17-3.23,4.7-3.23,4.7s-15.58,14.4-22.33,18.22c-2.33,1.31-5.31,2.87-8.23,4.34a11.5,11.5,0,0,0,.29,9.17,8.73,8.73,0,0,0,5.57,4c7-6.84,14-13.95,17.35-17.84a180.61,180.61,0,0,0,11.75-14.69s.3-.59,2.65-.88,5.58-4.7,5.58-4.7S251.67,213.73,254.32,213.73Z" style="fill:#fff;stroke:#263238;stroke-linecap:round;stroke-linejoin:round"></path><path d="M254.32,206.78a1.93,1.93,0,0,1,2.6,1.42c.48,2.13.48,4.49-.23,5" style="fill:none;stroke:#263238;stroke-linecap:round;stroke-linejoin:round"></path><path d="M255,204.18s4.5.47,4.5,2.6a21.79,21.79,0,0,1-.51,4.31" style="fill:none;stroke:#263238;stroke-linecap:round;stroke-linejoin:round"></path><path d="M226.7,307.76s8.22,15,2.94,27.33-18.22,13.81-37,11.17-44.37-8.23-55-9.41a43.94,43.94,0,0,0-23.8,3.53c-6.17,2.64-16.45,3.23-19.69,3.82s-1.76-4.11-.29-4.11,3.23-2.65,6.17-3.53,10-4.41,11.75-7.93,4.71-7.94,8.53-8.23,5.58,3.82,10.87,5.58,26.15,2.65,36.73,2.65,18.8-2.35,30-9.41S217.88,302.47,226.7,307.76Z" style="fill:#fff;stroke:#263238;stroke-linecap:round;stroke-linejoin:round"></path><path d="M197.9,319.22c-11.17,7.06-19.39,9.41-30,9.41-1.9,0-4.13,0-6.53-.09a24.84,24.84,0,0,0-1.7,5.38,11.58,11.58,0,0,0,.73,6.78c10.48,1.95,22.27,4.16,32.18,5.56,18.81,2.64,31.74,1.17,37-11.17s-2.94-27.33-2.94-27.33C217.88,302.47,209.07,312.17,197.9,319.22Z" style="fill:#263238;stroke:#263238;stroke-linecap:round;stroke-linejoin:round"></path><path d="M158.82,285.73s15.28-7.06,40-7.06,43.2,16.16,35.56,28.21-24.1,13.23-41.14,18.81-69.35,19.1-75.52,21.45-18.8,9.7-21.15,12.34-8.23,4.41-8.82,2.35,3.23-5.58,3.23-5.58.88-6.47,4.12-9.41,5.87-2.35,8.22-8.52,2.06-10,8.52-9.69,5.29,4.4,7.64,5.29,10-.89,17.64-4.41,20.27-11.17,20.27-11.17-10.28-13.51-5.88-26.44" style="fill:#00CEDD;stroke:#263238;stroke-linecap:round;stroke-linejoin:round"></path><path d="M157.35,318.34s-12.63,7.64-20.27,11.17-15.28,5.29-17.64,4.41-1.17-5-7.64-5.29-6.17,3.52-8.52,9.69-5,5.59-8.22,8.52-4.12,9.41-4.12,9.41-3.82,3.52-3.23,5.58,6.46.29,8.82-2.35,15-10,21.15-12.34c3.82-1.45,25.26-7.17,45.1-12.65A76.3,76.3,0,0,1,157.35,318.34Z" style="fill:#fff;stroke:#263238;stroke-linecap:round;stroke-linejoin:round"></path><path d="M234.34,306.88c7.64-12.05-10.88-28.21-35.56-28.21a125.59,125.59,0,0,0-15.59,1c-19.41,6.16-27.14,24.53-29.58,32.27a38.27,38.27,0,0,0,3.74,6.43,23.25,23.25,0,0,0,2.87,16.86c13.18-3.63,26-7.23,33-9.51C210.24,320.11,226.7,318.93,234.34,306.88Z" style="fill:#263238;stroke:#263238;stroke-linecap:round;stroke-linejoin:round"></path><path d="M157.35,318.34a108.52,108.52,0,0,0,15.57-9.4c7.06-5.29,19.4-18.51,35.26-18.81" style="fill:none;stroke:#fff;stroke-linecap:round;stroke-linejoin:round"></path><path d="M168,334s47-12.5,57.5-19" style="fill:none;stroke:#fff;stroke-linecap:round;stroke-linejoin:round"></path><path d="M231.12,253a32.34,32.34,0,0,0,5.53,3.33c2.28.91,2.6,3.34,5.2,4.86s6.83,0,10.41-2.43S264.62,253,264.62,253a39.51,39.51,0,0,1-4.55.6c-1.3,0-6.51,1.52-8.78,2.13s-1.31-2.43-1.31-2.43l-2.27.3-2,3L241.85,253l-3.57-.61,3.25,3.64-6.18-3S231.45,252.05,231.12,253Z" style="fill:#fff;stroke:#263238;stroke-linecap:round;stroke-linejoin:round"></path><path d="M272.28,249.49c-.19,3.86-11.33,6.45-24.87,5.78s-24.38-4.34-24.19-8.2,11.33-6.45,24.88-5.78S272.47,245.63,272.28,249.49Z" style="fill:#fff;stroke:#263238;stroke-linecap:round;stroke-linejoin:round"></path><path d="M264.88,249.13c-.13,2.69-7.91,4.5-17.37,4s-17-3-16.89-5.73,7.91-4.5,17.37-4S265,246.43,264.88,249.13Z" style="fill:#fff;stroke:#263238;stroke-linecap:round;stroke-linejoin:round;stroke-width:0.5px"></path><path d="M234.63,259.28c-4.11.88-8.23,1.76-9.4,5.29s.88,6.17,7.05,7.05a12.3,12.3,0,0,0,9.56-2.87c-3.09,1.13-7.8,2.11-10.4-1.14C227.85,263.12,234.63,259.28,234.63,259.28Z" style="fill:#00CEDD;stroke:#263238;stroke-linecap:round;stroke-linejoin:round"></path><path d="M214.84,206.32a45.16,45.16,0,0,1,1.47-7.64c1.18-4.12,5-7.64,5-7.64s8.23,2.94,10.87,2.94,4.41-1.18,6.17-5a54,54,0,0,0,2.94-9.4,13.18,13.18,0,0,0,2.94-1.76c1.47-1.18,1.17-2.94-.88-5.29s-1.18-4.12-1.47-10-3.53-11.76-3.53-11.76-7-7.34-19.69-2.94-15.86,17.63-15.57,24.69,2.35,10.87,1.76,16.45-7,13.22-7,13.22" style="fill:#fff;stroke:#263238;stroke-linecap:round;stroke-linejoin:round"></path><path d="M239,170.43c0,.95-.32,1.71-.71,1.71s-.72-.76-.72-1.71.32-1.7.72-1.7S239,169.49,239,170.43Z" style="fill:#263238"></path><path d="M240.25,165.21s-.36-1.09-2.34-.54a3.36,3.36,0,0,0-2.41,2" style="fill:#fff;stroke:#263238;stroke-linecap:round;stroke-linejoin:round"></path><path d="M235.16,182.88s1.7,1.69,3.63,1" style="fill:none;stroke:#263238;stroke-linecap:round;stroke-linejoin:round"></path><path d="M239.33,138.19c-4.13,2.32-15.74,1.8-15.74,1.8l.14.27a32.86,32.86,0,0,0-15.06,3.47c-9.4,5-13.51,12.93-12,23.51s5,17.63,10.28,17.92,7.64-14.4,7.64-14.4,4.7,1.47,6.17-.58a24.69,24.69,0,0,0,2.35-4.12,48.18,48.18,0,0,0,11.46-4.69l.15.29c7.74-1.81,10.58-8.51,10.58-15S243.45,135.87,239.33,138.19Z" style="fill:#263238;stroke:#263238;stroke-linecap:round;stroke-linejoin:round"></path><path d="M235,146.33S234.64,153,223.64,159s-18.66,5.67-20.33,5.33" style="fill:none;stroke:#fff;stroke-linecap:round;stroke-linejoin:round;stroke-width:0.5px"></path><path d="M202.64,157.67S217,162.33,227,152" style="fill:none;stroke:#fff;stroke-linecap:round;stroke-linejoin:round;stroke-width:0.5px"></path><path d="M218.08,173.41s-1.77-6.47-7.06-4.7-.88,9.69,1.47,12.34,3.82-.59,3.82-.59a10.66,10.66,0,0,0,3.24,6.46" style="fill:#fff;stroke:#263238;stroke-linecap:round;stroke-linejoin:round"></path></g><g id="freepik--Food--inject-49"><path d="M183.36,361.33c0,2.92-7,5.29-15.72,5.29s-15.72-2.37-15.72-5.29,7-5.29,15.72-5.29S183.36,358.41,183.36,361.33Z" style="fill:#fff;stroke:#263238;stroke-linecap:round;stroke-linejoin:round"></path><path d="M176.55,361.33c0,1.66-4,3-8.91,3s-8.91-1.34-8.91-3,4-3,8.91-3S176.55,359.68,176.55,361.33Z" style="fill:#fff;stroke:#263238;stroke-linecap:round;stroke-linejoin:round;stroke-width:0.5px"></path><path d="M159.82,348.64a4.85,4.85,0,1,0,4.7,4.85A4.77,4.77,0,0,0,159.82,348.64Zm0,7.93a3.09,3.09,0,1,1,3-3.08A3,3,0,0,1,159.82,356.57Z" style="fill:#fff;stroke:#263238;stroke-linecap:round;stroke-linejoin:round"></path><path d="M160.7,347.47h14.1a0,0,0,0,1,0,0v11.17a3.53,3.53,0,0,1-3.53,3.53h-7.05a3.53,3.53,0,0,1-3.53-3.53V347.47A0,0,0,0,1,160.7,347.47Z" style="fill:#fff;stroke:#263238;stroke-linecap:round;stroke-linejoin:round"></path><ellipse cx="246.77" cy="370.78" rx="27.33" ry="10.14" style="fill:#fff;stroke:#263238;stroke-linecap:round;stroke-linejoin:round"></ellipse><path d="M265.49,370.78c0,3.84-8.38,7-18.72,7s-18.73-3.11-18.73-7,8.39-6.94,18.73-6.94S265.49,367,265.49,370.78Z" style="fill:#fff;stroke:#263238;stroke-linecap:round;stroke-linejoin:round;stroke-width:0.5px"></path><path d="M256.28,365.05a30.65,30.65,0,0,1-10.67,4.32c-6.35,1.27-15,3.81-20.08,3.3s-2.54-7.62,3.31-11.43a23.28,23.28,0,0,1,17.79-3.31C251.71,359.2,261.11,360.73,256.28,365.05Z" style="fill:#00CEDD;stroke:#263238;stroke-linecap:round;stroke-linejoin:round"></path><path d="M228.84,363s4.57.25,9.15,5.59C238,368.61,233.41,359.71,228.84,363Z" style="fill:#fff"></path><path d="M234.17,360.73s4.58.25,9.15,5.59C243.32,366.32,238.75,357.43,234.17,360.73Z" style="fill:#fff"></path><path d="M238.75,359.2s4.57.26,9.15,5.6C247.9,364.8,243.32,355.9,238.75,359.2Z" style="fill:#fff"></path><path d="M269.25,369.37a30.65,30.65,0,0,1-10.68,4.32c-6.35,1.27-15,3.81-20.08,3.31s-2.54-7.63,3.31-11.44a23.29,23.29,0,0,1,17.79-3.31C264.67,363.53,274.07,365.05,269.25,369.37Z" style="fill:#00CEDD;stroke:#263238;stroke-linecap:round;stroke-linejoin:round"></path><path d="M241.8,367.34s4.57.25,9.15,5.59C251,372.93,246.37,364,241.8,367.34Z" style="fill:#fff"></path><path d="M247.14,365.05s4.57.25,9.14,5.59C256.28,370.64,251.71,361.75,247.14,365.05Z" style="fill:#fff"></path><path d="M251.71,363.53s4.57.25,9.15,5.59C260.86,369.12,256.28,360.22,251.71,363.53Z" style="fill:#fff"></path><path d="M285.06,356.6H280.8a6.13,6.13,0,0,1-6.12-5.85l-1.15-26.25h18.81l-1.16,26.25A6.12,6.12,0,0,1,285.06,356.6Z" style="fill:#fff;stroke:#263238;stroke-linecap:round;stroke-linejoin:round"></path><path d="M275.58,336.2l.55,12.63a6.13,6.13,0,0,0,6.12,5.85h1.36a6.13,6.13,0,0,0,6.12-5.85l.55-12.63Z" style="fill:#00CEDD"></path><ellipse cx="330.36" cy="353.69" rx="27.33" ry="10.14" style="fill:#fff;stroke:#263238;stroke-linecap:round;stroke-linejoin:round"></ellipse><path d="M349.09,353.69c0,3.84-8.39,6.95-18.73,6.95s-18.72-3.11-18.72-6.95,8.38-6.94,18.72-6.94S349.09,349.86,349.09,353.69Z" style="fill:#fff;stroke:#263238;stroke-linecap:round;stroke-linejoin:round;stroke-width:0.5px"></path><path d="M347,352.08a30.05,30.05,0,0,1-10.49,4.24c-6.25,1.25-14.74,3.75-19.74,3.25s-2.49-7.49,3.25-11.24a22.87,22.87,0,0,1,17.49-3.25C342.47,346.33,351.72,347.83,347,352.08Z" style="fill:#00CEDD;stroke:#263238;stroke-linecap:round;stroke-linejoin:round"></path><path d="M320,350.08s4.5.25,9,5.49C329,355.57,324.49,346.83,320,350.08Z" style="fill:#fff"></path><path d="M325.24,347.83s4.49.25,9,5.5C334.23,353.33,329.73,344.58,325.24,347.83Z" style="fill:#fff"></path><path d="M329.73,346.33s4.5.25,9,5.5C338.73,351.83,334.23,343.08,329.73,346.33Z" style="fill:#fff"></path><path d="M138.09,356.78h-4.27a6.14,6.14,0,0,1-6.12-5.86l-1.15-26.24h18.81l-1.15,26.24A6.14,6.14,0,0,1,138.09,356.78Z" style="fill:#fff;stroke:#263238;stroke-linecap:round;stroke-linejoin:round"></path><path d="M128.6,336.7l.56,12.63a6.12,6.12,0,0,0,6.12,5.85h1.35a6.12,6.12,0,0,0,6.12-5.85l.56-12.63Z" style="fill:#00CEDD"></path></g></svg>