<svg xmlns="http://www.w3.org/2000/svg" viewBox="0 0 500 500"><g id="freepik--background-complete--inject-4"><rect x="420.83" y="328.87" width="53.15" height="70.1" style="fill:#f5f5f5"></rect><rect x="449.06" y="328.87" width="24.92" height="70.1" style="fill:#ebebeb"></rect><rect x="431.97" y="338.36" width="4.78" height="11.61" style="fill:#ebebeb"></rect><rect x="431.97" y="383.8" width="4.78" height="11.61" style="fill:#ebebeb"></rect><path d="M449.06,354.52c0,.1-6.32.18-14.11.18s-14.12-.08-14.12-.18,6.32-.18,14.12-.18S449.06,354.42,449.06,354.52Z" style="fill:#ebebeb"></path><rect x="431.97" y="361.25" width="4.78" height="11.61" style="fill:#ebebeb"></rect><path d="M449.06,377.42c0,.1-6.32.18-14.11.18s-14.12-.08-14.12-.18,6.32-.19,14.12-.19S449.06,377.32,449.06,377.42Z" style="fill:#ebebeb"></path><rect x="454.35" y="338.36" width="4.78" height="11.61" style="fill:#e0e0e0"></rect><rect x="464.72" y="338.36" width="4.78" height="11.61" style="fill:#e0e0e0"></rect><rect x="454.35" y="360.39" width="4.78" height="11.61" style="fill:#e0e0e0"></rect><rect x="464.72" y="360.39" width="4.78" height="11.61" style="fill:#e0e0e0"></rect><rect x="454.35" y="382.42" width="4.78" height="11.61" style="fill:#e0e0e0"></rect><rect x="464.72" y="382.42" width="4.78" height="11.61" style="fill:#e0e0e0"></rect><rect x="416.83" y="326.42" width="61.14" height="2.53" style="fill:#e0e0e0"></rect><path d="M474.35,329.19c0,.1-11.88.18-26.53.18s-26.53-.08-26.53-.18,11.88-.18,26.53-.18S474.35,329.09,474.35,329.19Z" style="fill:#f5f5f5"></path><rect x="267.08" y="151.78" width="94.76" height="248.02" style="fill:#ebebeb"></rect><rect x="314.45" y="151.78" width="47.38" height="248.02" style="fill:#e0e0e0"></rect><rect x="277.9" y="122.3" width="33.46" height="29.48" style="fill:#ebebeb"></rect><rect x="303.38" y="122.3" width="7.97" height="29.48" style="fill:#e0e0e0"></rect><rect x="259.18" y="150.06" width="105.42" height="1.72" style="fill:#e0e0e0"></rect><rect x="285.78" y="164.64" width="8.02" height="16.91" style="fill:#fff"></rect><path d="M314.45,188.19c0,.18-10.6.32-23.68.32s-23.69-.14-23.69-.32,10.6-.33,23.69-.33S314.45,188,314.45,188.19Z" style="fill:#e0e0e0"></path><rect x="333.57" y="164.64" width="8.02" height="16.91" style="fill:#f5f5f5"></rect><path d="M362.24,188.19c0,.18-10.6.32-23.68.32s-23.69-.14-23.69-.32,10.6-.33,23.69-.33S362.24,188,362.24,188.19Z" style="fill:#ebebeb"></path><rect x="333.57" y="198.21" width="8.02" height="16.91" style="fill:#f5f5f5"></rect><path d="M362.24,221.76c0,.18-10.6.33-23.68.33s-23.69-.15-23.69-.33,10.6-.32,23.69-.32S362.24,221.59,362.24,221.76Z" style="fill:#ebebeb"></path><rect x="333.57" y="232.8" width="8.02" height="16.91" style="fill:#f5f5f5"></rect><path d="M362.24,256.35c0,.18-10.6.33-23.68.33s-23.69-.15-23.69-.33,10.6-.32,23.69-.32S362.24,256.18,362.24,256.35Z" style="fill:#ebebeb"></path><rect x="333.57" y="267.4" width="8.02" height="16.91" style="fill:#f5f5f5"></rect><path d="M362.24,290.94c0,.18-10.6.33-23.68.33s-23.69-.15-23.69-.33,10.6-.32,23.69-.32S362.24,290.77,362.24,290.94Z" style="fill:#ebebeb"></path><rect x="333.57" y="301" width="8.02" height="16.91" style="fill:#f5f5f5"></rect><path d="M362.24,324.55c0,.17-10.6.32-23.68.32s-23.69-.15-23.69-.32,10.6-.33,23.69-.33S362.24,324.37,362.24,324.55Z" style="fill:#ebebeb"></path><rect x="333.57" y="334.73" width="8.02" height="16.91" style="fill:#f5f5f5"></rect><rect x="333.57" y="368.91" width="8.02" height="16.91" style="fill:#f5f5f5"></rect><path d="M362.24,358.28c0,.18-10.6.33-23.68.33s-23.69-.15-23.69-.33,10.6-.32,23.69-.32S362.24,358.1,362.24,358.28Z" style="fill:#ebebeb"></path><rect x="285.78" y="198.73" width="8.02" height="16.91" style="fill:#fff"></rect><path d="M314.45,222.28c0,.17-10.6.32-23.68.32s-23.69-.15-23.69-.32,10.6-.33,23.69-.33S314.45,222.1,314.45,222.28Z" style="fill:#e0e0e0"></path><rect x="285.78" y="232.82" width="8.02" height="16.91" style="fill:#fff"></rect><path d="M314.45,256.37c0,.17-10.6.32-23.68.32s-23.69-.15-23.69-.32,10.6-.33,23.69-.33S314.45,256.19,314.45,256.37Z" style="fill:#e0e0e0"></path><rect x="285.78" y="266.91" width="8.02" height="16.91" style="fill:#fff"></rect><path d="M314.45,290.46c0,.17-10.6.32-23.68.32s-23.69-.15-23.69-.32,10.6-.33,23.69-.33S314.45,290.28,314.45,290.46Z" style="fill:#e0e0e0"></path><rect x="285.78" y="301" width="8.02" height="16.91" style="fill:#fff"></rect><path d="M314.45,324.55c0,.17-10.6.32-23.68.32s-23.69-.15-23.69-.32,10.6-.33,23.69-.33S314.45,324.37,314.45,324.55Z" style="fill:#e0e0e0"></path><rect x="285.78" y="335.09" width="8.02" height="16.91" style="fill:#fff"></rect><path d="M314.45,358.64c0,.17-10.6.32-23.68.32s-23.69-.15-23.69-.32,10.6-.33,23.69-.33S314.45,358.46,314.45,358.64Z" style="fill:#e0e0e0"></path><rect x="285.78" y="369.18" width="8.02" height="16.91" style="fill:#fff"></rect><rect x="157.13" y="303.53" width="72.66" height="95.84" style="fill:#ebebeb"></rect><rect x="195.72" y="303.53" width="34.07" height="95.84" style="fill:#e0e0e0"></rect><rect x="172.36" y="316.5" width="6.53" height="15.87" style="fill:#f5f5f5"></rect><rect x="172.36" y="378.63" width="6.53" height="15.87" style="fill:#f5f5f5"></rect><path d="M195.72,338.61c0,.17-8.64.32-19.3.32s-19.29-.15-19.29-.32,8.64-.33,19.29-.33S195.72,338.43,195.72,338.61Z" style="fill:#f5f5f5"></path><rect x="172.36" y="347.8" width="6.53" height="15.87" style="fill:#f5f5f5"></rect><path d="M195.72,369.9c0,.18-8.64.33-19.3.33s-19.29-.15-19.29-.33,8.64-.32,19.29-.32S195.72,369.73,195.72,369.9Z" style="fill:#f5f5f5"></path><rect x="202.95" y="316.5" width="6.53" height="15.87" style="fill:#f5f5f5"></rect><rect x="217.13" y="316.5" width="6.53" height="15.87" style="fill:#f5f5f5"></rect><rect x="202.95" y="346.62" width="6.53" height="15.87" style="fill:#f5f5f5"></rect><rect x="217.13" y="346.62" width="6.53" height="15.87" style="fill:#f5f5f5"></rect><rect x="202.95" y="376.74" width="6.53" height="15.87" style="fill:#f5f5f5"></rect><rect x="217.13" y="376.74" width="6.53" height="15.87" style="fill:#f5f5f5"></rect><rect x="151.67" y="300.19" width="83.59" height="3.46" style="fill:#e0e0e0"></rect><path d="M230.3,304c0,.18-16.24.33-36.27.33s-36.28-.15-36.28-.33,16.24-.32,36.28-.32S230.3,303.8,230.3,304Z" style="fill:#ebebeb"></path><path d="M384.63,184.69,449,185s-6.1-14-19.13-14c-9.93,0-10.37,6.18-16.34,7.95S395,169.9,384.63,184.69Z" style="fill:#ebebeb"></path><path d="M106.72,116.15l113.2.47S209.2,92.09,186.29,92.08c-17.46,0-18.24,10.87-28.72,14S125,90.14,106.72,116.15Z" style="fill:#f5f5f5"></path><path d="M333.76,79.46l85.29.35S411,61.33,393.71,61.32c-13.16,0-13.74,8.19-21.64,10.53S347.5,59.86,333.76,79.46Z" style="fill:#fafafa"></path></g><g id="freepik--Floor--inject-4"><path d="M484.35,399c0,.15-105.12.26-234.76.26S14.81,399.15,14.81,399s105.09-.26,234.78-.26S484.35,398.86,484.35,399Z" style="fill:#263238"></path></g><g id="freepik--Buildings--inject-4"><rect x="380.86" y="253.85" width="55.41" height="145.03" style="fill:#455a64"></rect><rect x="408.56" y="253.85" width="27.7" height="145.03" style="fill:#263238"></rect><rect x="387.19" y="236.61" width="19.57" height="17.24" style="fill:#455a64"></rect><rect x="402.09" y="236.61" width="4.66" height="17.24" style="fill:#263238"></rect><rect x="376.24" y="252.84" width="61.65" height="1.01" style="fill:#455a64"></rect><rect x="391.8" y="261.37" width="4.69" height="9.89" style="fill:#263238"></rect><path d="M408.56,275.14c0,.1-6.2.19-13.85.19s-13.85-.09-13.85-.19,6.2-.19,13.85-.19S408.56,275,408.56,275.14Z" style="fill:#263238"></path><rect x="419.74" y="261.37" width="4.69" height="9.89" style="fill:#455a64"></rect><path d="M436.51,275.14c0,.1-6.2.19-13.85.19s-13.85-.09-13.85-.19,6.2-.19,13.85-.19S436.51,275,436.51,275.14Z" style="fill:#455a64"></path><rect x="419.74" y="281" width="4.69" height="9.89" style="fill:#455a64"></rect><path d="M436.51,294.77c0,.11-6.2.19-13.85.19s-13.85-.08-13.85-.19,6.2-.19,13.85-.19S436.51,294.67,436.51,294.77Z" style="fill:#455a64"></path><rect x="419.74" y="301.23" width="4.69" height="9.89" style="fill:#455a64"></rect><path d="M436.51,315c0,.1-6.2.19-13.85.19s-13.85-.09-13.85-.19,6.2-.19,13.85-.19S436.51,314.89,436.51,315Z" style="fill:#455a64"></path><rect x="419.74" y="321.45" width="4.69" height="9.89" style="fill:#455a64"></rect><path d="M436.51,335.22c0,.11-6.2.19-13.85.19s-13.85-.08-13.85-.19,6.2-.18,13.85-.18S436.51,335.12,436.51,335.22Z" style="fill:#455a64"></path><rect x="419.74" y="341.1" width="4.69" height="9.89" style="fill:#455a64"></rect><path d="M436.51,354.87c0,.11-6.2.19-13.85.19s-13.85-.08-13.85-.19,6.2-.19,13.85-.19S436.51,354.77,436.51,354.87Z" style="fill:#455a64"></path><rect x="419.74" y="360.83" width="4.69" height="9.89" style="fill:#455a64"></rect><rect x="419.74" y="380.82" width="4.69" height="9.89" style="fill:#455a64"></rect><path d="M436.51,374.6c0,.11-6.2.19-13.85.19s-13.85-.08-13.85-.19,6.2-.19,13.85-.19S436.51,374.5,436.51,374.6Z" style="fill:#455a64"></path><rect x="391.8" y="281.3" width="4.69" height="9.89" style="fill:#263238"></rect><path d="M408.56,295.07c0,.1-6.2.19-13.85.19s-13.85-.09-13.85-.19,6.2-.19,13.85-.19S408.56,295,408.56,295.07Z" style="fill:#263238"></path><rect x="391.8" y="301.23" width="4.69" height="9.89" style="fill:#263238"></rect><path d="M408.56,315c0,.11-6.2.19-13.85.19s-13.85-.08-13.85-.19,6.2-.18,13.85-.18S408.56,314.9,408.56,315Z" style="fill:#263238"></path><rect x="391.8" y="321.17" width="4.69" height="9.89" style="fill:#263238"></rect><path d="M408.56,334.94c0,.1-6.2.19-13.85.19s-13.85-.09-13.85-.19,6.2-.19,13.85-.19S408.56,334.83,408.56,334.94Z" style="fill:#263238"></path><rect x="391.8" y="341.1" width="4.69" height="9.89" style="fill:#263238"></rect><path d="M408.56,354.87c0,.11-6.2.19-13.85.19s-13.85-.08-13.85-.19,6.2-.19,13.85-.19S408.56,354.77,408.56,354.87Z" style="fill:#263238"></path><rect x="391.8" y="361.04" width="4.69" height="9.89" style="fill:#263238"></rect><path d="M408.56,374.81c0,.1-6.2.19-13.85.19s-13.85-.09-13.85-.19,6.2-.19,13.85-.19S408.56,374.7,408.56,374.81Z" style="fill:#263238"></path><rect x="391.8" y="380.97" width="4.69" height="9.89" style="fill:#263238"></rect><rect x="223.39" y="202.02" width="74.13" height="196.92" style="fill:#455a64"></rect><rect x="269.08" y="202.02" width="28.45" height="196.92" style="fill:#263238"></rect><rect x="280.49" y="217.56" width="5.63" height="11.88" style="fill:#455a64"></rect><rect x="280.49" y="238.4" width="5.63" height="11.88" style="fill:#455a64"></rect><rect x="280.49" y="261.74" width="5.63" height="11.88" style="fill:#455a64"></rect><rect x="280.49" y="284.04" width="5.63" height="11.88" style="fill:#455a64"></rect><rect x="280.49" y="306.35" width="5.63" height="11.88" style="fill:#455a64"></rect><rect x="280.49" y="328.65" width="5.63" height="11.88" style="fill:#455a64"></rect><rect x="280.49" y="350.96" width="5.63" height="11.88" style="fill:#455a64"></rect><rect x="280.49" y="375.48" width="5.63" height="11.88" style="fill:#455a64"></rect><rect x="216.94" y="200.78" width="84.28" height="2.3" style="fill:#263238"></rect><rect x="253.3" y="186.92" width="30.01" height="15.01" style="fill:#263238"></rect><rect x="253.3" y="186.92" width="15.78" height="13.86" style="fill:#455a64"></rect><rect x="233.94" y="217.07" width="5.63" height="11.88" style="fill:#263238"></rect><rect x="248.94" y="217.07" width="5.63" height="11.88" style="fill:#263238"></rect><rect x="233.94" y="239.7" width="5.63" height="11.88" style="fill:#263238"></rect><rect x="248.94" y="239.7" width="5.63" height="11.88" style="fill:#263238"></rect><rect x="233.94" y="262.33" width="5.63" height="11.88" style="fill:#263238"></rect><rect x="248.94" y="262.33" width="5.63" height="11.88" style="fill:#263238"></rect><rect x="233.94" y="284.96" width="5.63" height="11.88" style="fill:#263238"></rect><rect x="248.94" y="284.96" width="5.63" height="11.88" style="fill:#263238"></rect><rect x="233.94" y="307.59" width="5.63" height="11.88" style="fill:#263238"></rect><rect x="248.94" y="307.59" width="5.63" height="11.88" style="fill:#263238"></rect><rect x="233.94" y="330.22" width="5.63" height="11.88" style="fill:#263238"></rect><rect x="248.94" y="330.22" width="5.63" height="11.88" style="fill:#263238"></rect><rect x="233.94" y="352.85" width="5.63" height="11.88" style="fill:#263238"></rect><rect x="248.94" y="352.85" width="5.63" height="11.88" style="fill:#263238"></rect><rect x="233.94" y="375.48" width="5.63" height="11.88" style="fill:#263238"></rect><rect x="248.94" y="375.48" width="5.63" height="11.88" style="fill:#263238"></rect><path d="M269.08,233.61c0,.2-10.23.36-22.84.36s-22.85-.16-22.85-.36,10.23-.35,22.85-.35S269.08,233.42,269.08,233.61Z" style="fill:#263238"></path><path d="M269.08,256.32c0,.2-10.23.36-22.84.36s-22.85-.16-22.85-.36,10.23-.35,22.85-.35S269.08,256.13,269.08,256.32Z" style="fill:#263238"></path><path d="M269.08,279.31c0,.19-10.23.35-22.84.35s-22.85-.16-22.85-.35,10.23-.36,22.85-.36S269.08,279.11,269.08,279.31Z" style="fill:#263238"></path><path d="M269.08,302.13c0,.19-10.23.35-22.84.35s-22.85-.16-22.85-.35,10.23-.36,22.85-.36S269.08,301.93,269.08,302.13Z" style="fill:#263238"></path><path d="M269.08,324.62c0,.19-10.23.35-22.84.35s-22.85-.16-22.85-.35,10.23-.36,22.85-.36S269.08,324.42,269.08,324.62Z" style="fill:#263238"></path><path d="M269.08,346.5c0,.19-10.23.35-22.84.35s-22.85-.16-22.85-.35,10.23-.36,22.85-.36S269.08,346.3,269.08,346.5Z" style="fill:#263238"></path><path d="M269.08,370.75c0,.19-10.23.35-22.84.35s-22.85-.16-22.85-.35,10.23-.36,22.85-.36S269.08,370.55,269.08,370.75Z" style="fill:#263238"></path><path d="M297.2,233.61c0,.2-6.09.36-13.6.36s-13.6-.16-13.6-.36,6.08-.35,13.6-.35S297.2,233.42,297.2,233.61Z" style="fill:#455a64"></path><path d="M297.2,256.32c0,.2-6.09.36-13.6.36s-13.6-.16-13.6-.36,6.08-.35,13.6-.35S297.2,256.13,297.2,256.32Z" style="fill:#455a64"></path><path d="M297.2,279c0,.2-6.09.36-13.6.36S270,279.23,270,279s6.08-.35,13.6-.35S297.2,278.84,297.2,279Z" style="fill:#455a64"></path><path d="M296.9,302.13c0,.19-6.09.35-13.6.35s-13.6-.16-13.6-.35,6.09-.36,13.6-.36S296.9,301.93,296.9,302.13Z" style="fill:#455a64"></path><path d="M296.9,324.62c0,.19-6.09.35-13.6.35s-13.6-.16-13.6-.35,6.09-.36,13.6-.36S296.9,324.42,296.9,324.62Z" style="fill:#455a64"></path><path d="M296.9,347.11c0,.19-6.09.35-13.6.35s-13.6-.16-13.6-.35,6.09-.36,13.6-.36S296.9,346.91,296.9,347.11Z" style="fill:#455a64"></path><path d="M296.9,370.75c0,.19-6.09.35-13.6.35s-13.6-.16-13.6-.35,6.09-.36,13.6-.36S296.9,370.55,296.9,370.75Z" style="fill:#455a64"></path></g><g id="freepik--House--inject-4"><rect x="281.31" y="330.41" width="29.89" height="68.59" style="fill:#00CEDD"></rect><rect x="281.31" y="330.41" width="29.89" height="68.59" style="opacity:0.2"></rect><polygon points="274.32 330.13 348.07 330.13 361.85 310.57 376.29 330.69 393.27 330.42 374.97 305.77 292.74 306.12 274.32 330.13" style="fill:#00CEDD"></polygon><polygon points="274.32 330.13 348.07 330.13 361.85 310.57 376.29 330.69 393.27 330.42 374.97 305.77 292.74 306.12 274.32 330.13" style="fill:#fff;opacity:0.2"></polygon><polygon points="311.2 330.42 311.2 399 384.85 399 384.85 330.42 376.4 330.42 361.85 310.57 348.02 330.11 311.2 330.42" style="fill:#00CEDD"></polygon><g style="opacity:0.2"><polyline points="321.61 399 321.61 369.27 338.83 369.27 338.83 399"></polyline></g><rect x="349.16" y="368.43" width="27.14" height="16.81" style="fill:#fff;opacity:0.7000000000000001"></rect><rect x="349.16" y="334.79" width="27.14" height="16.81" style="fill:#fff;opacity:0.7000000000000001"></rect><rect x="319.92" y="334.94" width="17.11" height="16.2" style="fill:#fff;opacity:0.7000000000000001"></rect><rect x="356.87" y="368.43" width="0.25" height="16.97" style="fill:#00CEDD"></rect><rect x="368.15" y="368.43" width="0.25" height="16.97" style="fill:#00CEDD"></rect><rect x="356.99" y="377.3" width="11.28" height="0.25" style="fill:#00CEDD"></rect><rect x="356.87" y="334.79" width="0.25" height="16.97" style="fill:#00CEDD"></rect><rect x="368.15" y="334.79" width="0.25" height="16.97" style="fill:#00CEDD"></rect><rect x="356.99" y="343.66" width="11.28" height="0.25" style="fill:#00CEDD"></rect><rect x="328.35" y="334.94" width="0.25" height="16.2" style="fill:#00CEDD"></rect><rect x="319.92" y="343.31" width="17.11" height="0.25" style="fill:#00CEDD"></rect><path d="M365.44,323.66a3.63,3.63,0,1,1-3.63-3.63A3.64,3.64,0,0,1,365.44,323.66Z" style="fill:#fff;opacity:0.7000000000000001"></path><polygon points="335.92 319.21 340.5 313.56 340.5 299.97 330.91 299.97 330.91 319.31 335.92 319.21" style="fill:#00CEDD"></polygon><polygon points="335.92 319.21 335.92 299.97 340.5 299.97 340.5 313.56 335.92 319.21" style="opacity:0.2"></polygon><rect x="329.84" y="297.97" width="11.31" height="2" style="fill:#00CEDD"></rect><rect x="255.58" y="360.42" width="56.47" height="38.59" style="fill:#00CEDD"></rect><rect x="255.58" y="360.42" width="34.82" height="38.59" style="opacity:0.2"></rect><path d="M283.07,398.94a2,2,0,0,1-.05-.5c0-.39,0-.87,0-1.45,0-1.34,0-3.16-.08-5.43,0-4.7-.06-11.19-.1-18.7l.28.28H262.45l.27-.28c0,7.51-.07,14-.1,18.7,0,2.27-.06,4.09-.08,5.43,0,.58,0,1.06-.05,1.45a2.42,2.42,0,0,1,0,.5,1.51,1.51,0,0,1-.05-.5c0-.39,0-.87,0-1.45,0-1.34,0-3.16-.08-5.43,0-4.69-.06-11.19-.1-18.7v-.28h21.18v.28c-.05,7.51-.08,14-.11,18.7,0,2.27-.06,4.09-.08,5.43,0,.58,0,1.06,0,1.45A2.8,2.8,0,0,1,283.07,398.94Z" style="fill:#263238"></path><rect x="294.76" y="371.87" width="14.67" height="3.74" style="opacity:0.2"></rect><polygon points="274.32 330.13 274.32 332.12 348.02 332.12 348.02 330.11 274.32 330.13" style="fill:#00CEDD"></polygon><polygon points="348.02 332.12 361.81 312.77 361.85 310.57 348.07 330.13 348.02 332.12" style="fill:#00CEDD"></polygon><rect x="376.4" y="330.41" width="16.51" height="1.28" style="fill:#00CEDD"></rect><rect x="326.87" y="364.71" width="6.09" height="2.32" style="fill:#263238"></rect><polygon points="274.32 330.13 274.32 332.12 348.02 332.12 348.02 330.11 274.32 330.13" style="opacity:0.30000000000000004"></polygon><polygon points="348.02 332.12 361.81 312.77 361.85 310.57 348.07 330.13 348.02 332.12" style="opacity:0.30000000000000004"></polygon><rect x="376.4" y="330.41" width="16.51" height="1.28" style="opacity:0.30000000000000004"></rect><path d="M337.44,384.27c-.05,0,0-.38-.45-.67a.86.86,0,0,0-.79-.09.82.82,0,0,0,0,1.52.86.86,0,0,0,.79-.09c.41-.29.4-.68.45-.67s.17.43-.3.87a1.1,1.1,0,0,1-1.05.19,1.12,1.12,0,0,1,0-2.12,1.1,1.1,0,0,1,1.05.19C337.61,383.85,337.47,384.3,337.44,384.27Z" style="fill:#263238"></path></g><g id="freepik--Character--inject-4"><path d="M197.25,285.34s-15.51,59-36.36,70.08c-13.74,7.3-25.87-1.41-34-15.21l-29.4-47.32a11,11,0,0,1,7-13.34L129,271l24.42,43.53,31.25-38" style="fill:#eb996e"></path><path d="M44.64,289.45c.54,3.84,10.21,32.07,10.21,32.07s43.88-12.41,43.42-14.59c-.38-1.77-7.24-29.89-16.4-45.74a22.47,22.47,0,0,0-16.74-11.28c-1.94-.22-6.25,1.58-7.44,2.17C48.35,256.75,40.46,259.79,44.64,289.45Z" style="fill:#455a64"></path><path d="M113.44,248c16.85,4.69,17.61,12.35,26.05,25.86l13.29,24.2-22.14,14.11-4.06,9.1-2.19,78.26-89.21-.44,16-63.35L44.8,294.14c-.59-6.56-2.48-18.82-.46-25.15,6.33-19.78,29.94-21.89,44.46-24.89,3-.62,5.89.33,8.33,1.07" style="fill:#455a64"></path><path d="M126.36,325.29a13.53,13.53,0,0,1-.06-2c0-1.4,0-3.26.07-5.5v-.05l0,0a47.74,47.74,0,0,0,2.91-6.16,13.75,13.75,0,0,0,.74-7.94c-.72-3-2.38-5.52-3.49-8a24.76,24.76,0,0,1-2-7,23.88,23.88,0,0,1-.13-4.87c0-.58.11-1,.16-1.32a1.32,1.32,0,0,1,.11-.45,15,15,0,0,1,0,1.78,26.76,26.76,0,0,0,.31,4.8,25.08,25.08,0,0,0,2.07,6.8c1.1,2.44,2.8,5,3.56,8.1a14.08,14.08,0,0,1-.79,8.26,45.12,45.12,0,0,1-3,6.18l0-.1c-.11,2.24-.19,4.1-.26,5.5A11.09,11.09,0,0,1,126.36,325.29Z" style="fill:#263238"></path><path d="M114.14,245.25a2.33,2.33,0,0,1,.15.6,12.72,12.72,0,0,1,.2,1.77,16.28,16.28,0,0,1-1.08,6.45,17.28,17.28,0,0,1-5.84,7.7,16.66,16.66,0,0,1-11.4,3,19.11,19.11,0,0,1-6-1.63,18.12,18.12,0,0,1-4.77-3.26,21.14,21.14,0,0,1-5.23-8.15,21.77,21.77,0,0,1-1.25-6.42,14,14,0,0,1,0-1.78,2.36,2.36,0,0,1,.06-.61c.07,0,0,.85.14,2.38a23.43,23.43,0,0,0,1.41,6.29,20.89,20.89,0,0,0,5.22,7.9,17.35,17.35,0,0,0,4.64,3.13,18.49,18.49,0,0,0,5.8,1.57,16.18,16.18,0,0,0,11-2.81,17.12,17.12,0,0,0,7-13.71C114.26,246.1,114.07,245.26,114.14,245.25Z" style="fill:#263238"></path><path d="M148.74,290.75a18,18,0,0,1-2.64,1.64c-1.65,1-3.95,2.28-6.45,3.79s-4.73,2.92-6.35,3.94a17.3,17.3,0,0,1-2.68,1.57,16.15,16.15,0,0,1,2.46-1.91c1.56-1.11,3.77-2.58,6.28-4.1s4.84-2.78,6.55-3.65A15.1,15.1,0,0,1,148.74,290.75Z" style="fill:#263238"></path><path d="M47.38,291.79s.06.18.17.53l.42,1.56,1.57,6c1.33,5.2,3.23,12.62,5.54,21.61l-.29-.16,41.26-12.89,1-.37-.19.33a178.69,178.69,0,0,0-8.12-27.12c-3.2-8.08-6.87-15.09-11-20.14a26.86,26.86,0,0,0-6.53-5.86,14,14,0,0,0-6.2-2.18,8.41,8.41,0,0,0-1.28-.11l-1.14.06c-.35,0-.67,0-1,.07l-.78.17-1.08.22a3.26,3.26,0,0,1-.37.06,1.63,1.63,0,0,1,.35-.12l1.07-.27.79-.2c.3-.06.63-.06,1-.1l1.15-.08a9.87,9.87,0,0,1,1.3.07A14.19,14.19,0,0,1,71.36,255,26.88,26.88,0,0,1,78,260.85c4.27,5.07,8,12.1,11.23,20.2a177.38,177.38,0,0,1,8.2,27.2l0,.25-.24.08-1,.37c-15.47,4.91-29.8,9.24-41.33,12.79l-.23.07-.06-.23c-2.23-9-4.06-16.45-5.35-21.66-.62-2.57-1.1-4.59-1.44-6l-.36-1.57A2.23,2.23,0,0,1,47.38,291.79Z" style="fill:#263238"></path><path d="M95.63,302.78c0,.16-9.48,2.91-21.27,6.16S53,314.69,53,314.54s9.47-2.91,21.26-6.16S95.58,302.63,95.63,302.78Z" style="fill:#263238"></path><path d="M92,174.77c-2.73-5.92-10.24-8.71-16.57-7.14s-11.33,6.74-14,12.67S58.05,192.9,58,199.42c0,3.45.15,6.94-.55,10.32s-2.36,6.72-5.26,8.6c-2.28,1.48-5.08,1.92-7.53,3.1s-4.7,3.69-4.09,6.35c.72,3.17,4.7,4.12,7.93,4.45a10.38,10.38,0,0,0,17.1,7.62c-1,4,2.53,8.12,6.59,8.6s8-2.06,10.26-5.5,2.9-7.64,3.07-11.73S85.4,223,85.8,219" style="fill:#00CEDD"></path><path d="M138.07,182.22s3-20.1-24.66-20.47c-30.94-.41-36.52,26-31.22,39.91l15.38-15.24Z" style="fill:#00CEDD"></path><path d="M113.8,248c.31-5.35.54-9.71.54-9.71s15.84.37,18.17-13.36,5-45.71,5-45.71h0a41.56,41.56,0,0,0-46.27.76l-1.3.9-10,63.49A17.05,17.05,0,0,0,94,263.89h0A17.05,17.05,0,0,0,113.8,248Z" style="fill:#ffbe9d"></path><path d="M131.86,203.59a1.74,1.74,0,1,1-1.53-2A1.76,1.76,0,0,1,131.86,203.59Z" style="fill:#263238"></path><path d="M133.14,201.94c-.25.21-1.4-1-3.25-1.35s-3.34.46-3.5.19.19-.52.85-.89a4.44,4.44,0,0,1,2.84-.44,4.5,4.5,0,0,1,2.54,1.37C133.13,201.39,133.26,201.85,133.14,201.94Z" style="fill:#263238"></path><path d="M113.29,201.81a1.74,1.74,0,1,1-3.45-.37,1.74,1.74,0,1,1,3.45.37Z" style="fill:#263238"></path><path d="M114.21,200.25c-.24.21-1.4-1.05-3.24-1.35s-3.34.46-3.51.18c-.08-.12.2-.52.86-.88a4.43,4.43,0,0,1,2.84-.44,4.48,4.48,0,0,1,2.54,1.37C114.2,199.69,114.33,200.16,114.21,200.25Z" style="fill:#263238"></path><path d="M116.6,214.55a11.6,11.6,0,0,1,3.07.22c.48.07.94.09,1.1-.23a2.87,2.87,0,0,0,0-1.55c-.15-1.32-.3-2.7-.46-4.15-.59-5.9-.89-10.69-.67-10.72s.88,4.73,1.48,10.63c.13,1.45.26,2.83.38,4.15a3.15,3.15,0,0,1-.23,2,1.2,1.2,0,0,1-.93.52,3.18,3.18,0,0,1-.81-.09A11.12,11.12,0,0,1,116.6,214.55Z" style="fill:#263238"></path><path d="M114.39,238.29a33.3,33.3,0,0,1-17.18-8.13s3.36,10.92,16.93,11.82Z" style="fill:#eb996e"></path><path d="M114.79,220a3.66,3.66,0,0,0-1.81-2.92,2.9,2.9,0,0,0-2.4-.26,2.09,2.09,0,0,0-1.36,1.9,2.4,2.4,0,0,0,1.69,2,6.66,6.66,0,0,0,2.78.16,2,2,0,0,0,.75-.17.68.68,0,0,0,.38-.62" style="fill:#eb996e"></path><path d="M110.75,215c-.13,0-.43.46-.48,1.37a5,5,0,0,0,4.17,5.08c.91.13,1.45-.07,1.44-.21,0-.31-2.14-.42-3.63-2.24S111.05,215.05,110.75,215Z" style="fill:#263238"></path><path d="M88,198.79c-.21-.15-7.88-3.46-10.07,5.57s8.29,8.11,8.37,7.85S88,198.79,88,198.79Z" style="fill:#ffbe9d"></path><path d="M84.15,208.42s-.19.07-.51.13a1.83,1.83,0,0,1-1.26-.24c-.94-.57-1.43-2.26-1.08-3.9a5.06,5.06,0,0,1,1-2.15,2,2,0,0,1,1.56-.94.88.88,0,0,1,.89.64c.07.28,0,.45,0,.48s.24-.11.26-.5a1,1,0,0,0-.25-.64,1.32,1.32,0,0,0-.87-.43,2.49,2.49,0,0,0-2.1,1,5.41,5.41,0,0,0-1.2,2.39c-.38,1.84.2,3.75,1.51,4.42a2,2,0,0,0,1.6.09C84.08,208.63,84.18,208.44,84.15,208.42Z" style="fill:#eb996e"></path><path d="M134.37,172.89a9.49,9.49,0,0,1,3.54,10.37c-1.36,4.32-5.39,9-16.59,8.85l2.55-2.83a19.78,19.78,0,0,1-17.94,3.14l3.14-6.08S94.91,201.35,87,202L88,186c1.91-15.1,8.38-19.63,18.17-20.44a50.64,50.64,0,0,1,10.92.19A37.48,37.48,0,0,1,134.37,172.89Z" style="fill:#00CEDD"></path><path d="M79,159.81a6.51,6.51,0,0,1,2.09.92,18,18,0,0,1,7.31,8.1,6.57,6.57,0,0,1,.7,2.17c-.17.08-1.29-3.27-4.16-6.4S78.9,160,79,159.81Z" style="fill:#00CEDD"></path><path d="M50.49,211s-.19-.2-.62-.47a3.78,3.78,0,0,0-2.12-.54,4,4,0,0,0-3,1.47,4.55,4.55,0,0,0-.49,4.35A5.26,5.26,0,0,0,48.43,219a7.31,7.31,0,0,0,5.94-1.75,10.75,10.75,0,0,0,3.61-6,8.8,8.8,0,0,0,0-3.72,16.74,16.74,0,0,0-1.34-3.67c-.56-1.21-1.16-2.4-1.63-3.65a15.24,15.24,0,0,1-.89-3.82,18.41,18.41,0,0,1,.85-7.32,24.61,24.61,0,0,1,6.77-10.34,45.28,45.28,0,0,1,6.6-5.12c.83-.53,1.49-.93,1.94-1.19a4.82,4.82,0,0,1,.7-.37,3.76,3.76,0,0,1-.64.47l-1.87,1.28A49.71,49.71,0,0,0,62,179a24.86,24.86,0,0,0-6.55,10.21,18.15,18.15,0,0,0-.79,7.1,16,16,0,0,0,.86,3.68c.46,1.21,1.06,2.38,1.63,3.61a17.18,17.18,0,0,1,1.37,3.79,9.39,9.39,0,0,1,0,3.95,11.26,11.26,0,0,1-3.84,6.28,7.77,7.77,0,0,1-6.35,1.81,5.66,5.66,0,0,1-4.48-3.55,4.91,4.91,0,0,1,.61-4.69,4.18,4.18,0,0,1,3.27-1.49,3.7,3.7,0,0,1,2.18.66A2.17,2.17,0,0,1,50.49,211Z" style="fill:#00CEDD"></path><path d="M86.72,180.82a4.23,4.23,0,0,1-.56-1.77,11.55,11.55,0,0,1,.17-4.47,11.42,11.42,0,0,1,1.84-4.08c.68-.93,1.24-1.38,1.28-1.33s-1.81,2.21-2.56,5.54S86.9,180.79,86.72,180.82Z" style="fill:#263238"></path><path d="M78.46,210a4.38,4.38,0,0,0-1.2,1.7,2.75,2.75,0,0,0,.18,2.1,2.87,2.87,0,0,0,2.17,1.34,3,3,0,0,0,2.46-.72,2.76,2.76,0,0,0,.81-1.95,4,4,0,0,0-.64-2s.22.08.47.39a2.77,2.77,0,0,1,.58,1.56,3.13,3.13,0,0,1-.84,2.35,3.48,3.48,0,0,1-2.92.91A3.32,3.32,0,0,1,77,214.09a3.09,3.09,0,0,1-.09-2.5,2.88,2.88,0,0,1,1-1.32C78.23,210.05,78.45,210,78.46,210Z" style="fill:#455a64"></path><path d="M140.37,186.82c-.11,0,.33-1.54.34-4a17.87,17.87,0,0,0-9.43-15.93c-2.19-1.19-3.74-1.53-3.71-1.64a3.39,3.39,0,0,1,1.09.2,15.37,15.37,0,0,1,2.81,1.08,17.38,17.38,0,0,1,9.65,16.3,16,16,0,0,1-.4,3A3.8,3.8,0,0,1,140.37,186.82Z" style="fill:#00CEDD"></path><path d="M115.1,196.73c-.06.07-.44-.29-1.13-.71a7,7,0,0,0-2.92-1,6.89,6.89,0,0,0-3.07.39c-.77.27-1.21.54-1.26.46s.33-.45,1.1-.84a6,6,0,0,1,3.29-.59,6.17,6.17,0,0,1,3.1,1.25C114.88,196.23,115.16,196.69,115.1,196.73Z" style="fill:#00CEDD"></path><path d="M132.74,198.42a11.18,11.18,0,0,1-3.58,0,11.32,11.32,0,0,1-3.53-.55,11.26,11.26,0,0,1,3.57,0A11.26,11.26,0,0,1,132.74,198.42Z" style="fill:#00CEDD"></path><path d="M197.25,285.34s5.67-13.47-2-12c-11.75,2.24-10,13.67-10,13.67Z" style="fill:#eb996e"></path><path d="M208.17,224.92a10.38,10.38,0,0,0-3.07-.59c6.38,4.74,8.11,16.94,3.64,29.26-4.36,12-13.18,20.19-21,20.13l-.62-.16c-6.21-4.85-7.85-16.9-3.44-29.08s13.5-20.5,21.41-20.15a10.51,10.51,0,0,0-2.63-1.44C194,219.81,183,228.57,178,242.45c-4.89,13.48-2.35,26.8,5.59,30.37l-.16,0-15.64,40a3.44,3.44,0,0,0,6.41,2.52L190,275.18h0c8.49,3.07,19.45-5.68,24.48-19.56S216.66,228,208.17,224.92Z" style="fill:#263238"></path><path d="M201.11,261.1a5.61,5.61,0,0,1,.48-1.22l1.46-3.23a56.92,56.92,0,0,0,3.86-11,25.6,25.6,0,0,0,0-11.48,32,32,0,0,0-1.66-4.52,4.53,4.53,0,0,1,.72,1.1,16.09,16.09,0,0,1,1.33,3.31,24.38,24.38,0,0,1,.17,11.71,49.66,49.66,0,0,1-4.05,11c-.67,1.34-1.23,2.42-1.63,3.15A5.11,5.11,0,0,1,201.11,261.1Z" style="fill:#263238"></path><path d="M199.47,264.3c.11.12-.37.79-1.09,1.5s-1.38,1.19-1.49,1.08.37-.78,1.09-1.49S199.36,264.19,199.47,264.3Z" style="fill:#263238"></path><path d="M182.41,279.32c-1.21-2.29-2.62-5.45-4.75-6.93s-5.09-3.19-7.59-1a161.51,161.51,0,0,1,8.73,13.92Z" style="fill:#eb996e"></path><path d="M199.07,275.27s-.47-2.66-4.37-1.49-16.12,3.72-13.76,6.32,6.53,1.43,6.53,1.43-6.79,1.47-6.14,2.89,1.78,3.88,4.67,2.34,10.91-4.15,10.91-4.15Z" style="fill:#eb996e"></path><path d="M198.63,281.21s0-.26,0-.67a1.36,1.36,0,0,0-.92-1.24,5,5,0,0,0-2.55.38l-3.25.87c-2.31.61-4.41,1.12-5.94,1.46a11.56,11.56,0,0,1-2.5.45,11.17,11.17,0,0,1,2.4-.84c1.5-.45,3.58-1,5.89-1.62l3.26-.83a5,5,0,0,1,2.83-.26,1.63,1.63,0,0,1,1,1.64C198.82,281,198.65,281.22,198.63,281.21Z" style="fill:#263238"></path><path d="M94.35,309.52l11.8,21.88,58.58-29.5s8.62-16.56,10.05-16.35,7.77,2.94,7.77,2.94,9-4.86,10.94-3.54,4.56,17.32,2.86,22.27-19.49,14.92-19.49,14.92-48,31.52-68.87,42.59c-13.74,7.3-25.86-1.41-34-15.21L60.11,320.15" style="fill:#ffbe9d"></path></g></svg>