<svg width="800" height="800" viewBox="0 0 800 800" fill="none" xmlns="http://www.w3.org/2000/svg">
<path d="M303.333 799.367L302.6 798.6L302.533 728.134L302.467 657.667L262.433 657.734C248.344 657.79 234.255 657.746 220.167 657.6C218.667 657.667 217.667 657.6 217.533 657.367C217.4 657.134 215.867 657.134 212.233 657.367C209.882 657.543 207.524 657.599 205.167 657.534C197.301 657.377 189.434 657.311 181.567 657.334C169.567 657.334 160.033 657.2 160.133 657.067C160.367 656.667 158.933 656.467 158.333 656.834C158 657.034 157.867 657.034 158 656.834C158.1 656.667 157.667 656.5 157.033 656.5C155.3 656.367 152.467 656.767 152.633 657.067C152.733 657.2 152.367 657.334 151.867 657.334C151.3 657.334 151 657.2 151.1 657C151.333 656.667 150.533 656.634 145.3 656.667C142.533 656.734 141.3 656.667 141.3 656.434C141.3 656.234 140.967 656.1 140.5 656.167C140.038 656.205 139.573 656.148 139.133 656C138.68 655.863 138.202 655.828 137.733 655.9C137.233 655.967 136.9 655.9 137 655.767C137.1 655.634 136.933 655.534 136.6 655.6C136.3 655.667 136.067 655.534 136.067 655.267C136.067 654.7 135.3 654.367 133.5 654.167C128.003 653.473 122.595 652.199 117.367 650.367C113.34 648.784 109.459 646.854 105.767 644.6C104.785 643.878 103.708 643.295 102.567 642.867C101.356 641.597 100.015 640.458 98.5667 639.467C95.447 636.725 92.518 633.774 89.8 630.634C89.2463 629.855 88.6092 629.14 87.9 628.5C87.2884 627.959 86.7605 627.33 86.3333 626.634C85.9844 625.993 85.5712 625.39 85.1 624.834C84.7333 624.434 84.5 623.967 84.5667 623.834C84.6667 623.7 84.5667 623.6 84.4 623.6C84.2333 623.6 84.1667 623.4 84.2667 623.2C84.3187 623.084 84.3271 622.952 84.2904 622.83C84.2537 622.708 84.1743 622.602 84.0667 622.534C83.8 622.367 83.7666 622.434 83.9333 622.7C84.1 622.967 84.0667 623.034 83.8333 622.867C83.6333 622.734 83.5 622.4 83.5 622.067C83.5 621.734 83.3333 621.5 83.1666 621.5C82.9333 621.5 82.8667 621.4 82.9667 621.3C83.0667 621.2 82.8333 620.7 82.4333 620.234C82.0333 619.767 81.7667 619.167 81.8667 618.9C81.9667 618.667 81.9 618.467 81.7333 618.467C81.4667 618.467 81.0667 617.7 80.9333 616.967C80.7313 616.556 80.5088 616.155 80.2667 615.767C79.6333 614.8 79.4667 614.2 79.5333 613.567C79.5667 613.434 79.4333 613.334 79.3 613.334C79.1667 613.334 78.7667 612.734 78.4 612C78.0667 611.234 77.6667 610.634 77.5 610.634C77.3667 610.634 77.1667 609.867 77.0667 608.9C76.9295 607.556 76.7181 606.221 76.4333 604.9C76.2006 603.335 75.9115 601.778 75.5667 600.234C75.3266 599.113 75.1707 597.977 75.1 596.834C74.7731 593.333 74.6729 589.814 74.8 586.3C74.8667 585.367 74.8 585.067 74.5 585.167C73.9667 585.367 74.1333 56.1669 74.6667 54.7669C74.8968 54.1292 75.0643 53.4705 75.1667 52.8002C75.3667 51.4002 75.4333 51.2336 76.3667 48.4336C76.7782 46.6754 77.4287 44.9818 78.3 43.4002C78.5271 43.1053 78.6865 42.7638 78.7667 42.4002C79.3824 40.4795 80.3177 38.6765 81.5333 37.0669C81.6667 37.2002 81.7 37.1336 81.5667 36.9336C81.4667 36.7336 81.6667 36.2669 82 35.8002C82.3333 35.3669 82.5333 35.0002 82.4 35.0002C82.2666 35.0002 82.4 34.7669 82.6333 34.5002C84.9543 30.8223 87.5624 27.3337 90.4333 24.0669C92.9 21.2336 97.9333 16.5336 99.7333 15.4002C100.561 14.9173 101.342 14.3594 102.067 13.7336C102.136 13.6238 102.228 13.5308 102.338 13.4616C102.447 13.3924 102.571 13.3486 102.7 13.3336C102.9 13.3336 103.033 13.2002 103.033 13.0002C103.033 12.8669 103.267 12.7336 103.5 12.7336C103.733 12.7336 104 12.6002 104 12.4669C104 12.3336 104.433 11.9669 105 11.7002C108.705 9.51141 112.559 7.58448 116.533 5.93358C118.911 4.98141 121.35 4.19072 123.833 3.56691C124.133 3.42537 124.445 3.31372 124.767 3.23358C125.203 3.13466 125.637 3.0235 126.067 2.90025C127.234 2.54733 128.447 2.36764 129.667 2.36691C129.8 2.43358 129.9 2.36691 129.9 2.23358C129.9 2.10025 130.067 1.96691 130.267 1.90025C130.933 1.90025 133.933 1.50025 134.7 1.33358C136.5 0.933579 176.467 0.866912 406.4 0.733579C540.167 0.666912 650.033 0.533579 650.533 0.466912C651.333 0.333579 660.667 0.000245625 661.333 0.033579L663.3 0.200246C672.867 1.03358 673.333 1.10025 678.633 2.83358C687.004 5.39003 694.81 9.51935 701.633 15.0002C702.133 15.3669 703.633 16.6669 704.9 17.9336C711.233 24.0336 715.167 29.3669 718.767 36.7669C720.467 40.2669 722.5 45.4336 722.833 47.0336C722.933 47.5002 723.1 47.8669 723.233 47.7669C723.433 47.6336 724.567 52.3669 724.9 54.7002L725.2 56.6669C725.5 58.1669 725.933 66.3336 725.733 66.6669C725.542 67.6781 725.442 68.7045 725.433 69.7336C725.376 71.2464 725.287 72.7578 725.167 74.2669C724.933 76.5336 724.933 77.8003 725.333 101.234C725.667 120.467 725.8 231.134 725.5 231.4C725.283 246.155 725.294 260.912 725.533 275.667C725.633 275.834 725.633 321.467 725.533 377.1L725.2 537.534C725.133 593.534 725.067 598.6 724.333 601.367L723.533 604.7C722.6 608.767 722.633 608.767 722.333 608.934C722.2 609.034 722.167 609.267 722.267 609.534C722.367 609.767 722.267 609.967 722.1 609.967C720.95 611.502 720.081 613.229 719.533 615.067C719.136 616.373 718.541 617.61 717.767 618.734C717.633 618.834 717.5 619.034 717.533 619.2C717.268 620.303 716.792 621.344 716.133 622.267C714.839 624.956 713.154 627.438 711.133 629.634C710.933 629.534 710.9 629.534 711 629.667C711.333 630.034 710.667 631.067 710.233 630.834C710.033 630.734 709.967 630.734 710.1 630.867C710.6 631.434 704 638.767 703.333 638.367C703.133 638.234 703.067 638.267 703.2 638.4C703.433 638.667 701.1 641.267 700.633 641.267C700.5 641.267 700.067 641.534 699.7 641.9C698.467 643.067 696.8 644.334 696.8 644.1C696.8 643.967 696.6 644.167 696.333 644.5C696.067 644.867 695.667 645.167 695.433 645.167C691.836 647.684 687.939 649.744 683.833 651.3C683.567 651.3 683.333 651.367 683.233 651.467C682.9 651.9 681.367 652.4 681.033 652.2C680.833 652.1 680.8 652.1 680.933 652.267C681.2 652.6 677.267 654 676.867 653.734C676.733 653.634 676.6 653.734 676.6 653.867C676.6 654.034 676.367 654.2 676.1 654.2C675.252 654.318 674.416 654.508 673.6 654.767C672.408 655.113 671.194 655.38 669.967 655.567L666.967 656C666.233 656.1 665.633 656.334 665.7 656.534C665.7 656.734 665.533 656.8 665.233 656.734C664.249 656.729 663.267 656.819 662.3 657C660.367 657.334 652 657.434 620.6 657.534C568.6 657.7 539.867 657.7 534.133 657.534C520.767 657.411 507.4 657.377 494.033 657.434L458.567 657.5L457.3 659.4C452.265 666.554 446.658 673.287 440.533 679.534C428.033 692.3 415.867 702.834 403.1 711.834C398.4 715.167 393 718.8 387.6 722.267C382.167 725.767 380.567 727.034 371.2 735.1L357.8 746.634C356.133 748.034 353.967 749.967 352.967 750.867C351.967 751.8 347.9 755.334 343.9 758.767C336.667 765 336.667 765.034 328.1 775.034C308.167 798.367 308.267 798.234 306.9 799.334C305.733 800.234 304.333 800.2 303.4 799.234L303.333 799.367ZM321.567 764.5C325.969 759.021 330.954 754.036 336.433 749.634C373.3 717.8 374.133 717.067 378.8 714.1C392.803 705.406 406.05 695.549 418.4 684.634C425.744 677.963 432.753 670.932 439.4 663.567C442.417 659.922 445.264 656.14 447.933 652.234C447.933 652.034 449.733 649.167 451.933 645.834C463.033 629.134 468.467 618.1 472.333 604.367L473.667 599.867C474.667 596.667 476 591.667 477.633 584.634L479.033 578.634L479.2 410.4L479.367 242.2L472 250.767L464.633 259.367L444.3 276.834C436.586 283.423 428.919 290.068 421.3 296.767C418.44 299.112 415.434 301.272 412.3 303.234C406.803 306.783 401.39 310.462 396.067 314.267C391.033 317.8 383.067 324.034 378.233 328.267C369.767 335.7 357.9 347.434 353.933 352.267C345.28 362.853 337.583 374.186 330.933 386.134C324.733 397.2 321.067 407.267 316.767 425.134C315.968 428.526 315.113 431.904 314.2 435.267C313.7 436.967 313.667 438.6 313.767 470.034C313.833 488.167 314 515.5 314.167 530.734C314.333 546.3 314.333 584.667 314.167 618.234L313.933 725.767C313.933 771.034 313.933 773.467 314.433 772.834C314.767 772.5 317.933 768.734 321.567 764.5ZM286.1 516.234L302.4 516.034L302.3 475.234L302.2 434.467L302.867 432C303.679 429.135 304.402 426.244 305.033 423.334C305.267 422.234 308 411.8 308.7 409.5C311.8 398.967 315.233 390.334 319.2 383C327.3 368.041 336.965 353.985 348.033 341.067C354.3 334.167 367.9 321.4 375.867 314.834C383.633 308.5 394.4 300.767 404.867 294.034C408.967 291.367 411.8 289.267 415.533 286.034C423.858 278.821 432.202 271.632 440.567 264.467C444.033 261.467 449 257.234 451.567 254.967C456 251.2 457.133 249.967 467.567 237.8C479.9 223.4 486 216.567 486.833 216.134C488.267 215.334 489.833 215.967 490.433 217.534C490.6 218 490.7 277.7 490.7 367.167V516.034L518.033 516.234C533.067 516.334 554.4 516.434 565.433 516.434H585.5L585.367 414.1C585.367 377.511 585.267 340.922 585.067 304.334C585.267 292.2 585.3 152 585.1 144.667L584.9 137.534L578.7 137.434C575.3 137.434 491.2 137.367 391.867 137.434L211.2 137.5V516.1L226.033 516.167C246.066 516.366 266.1 516.366 286.133 516.167L286.1 516.234Z" fill="#33428E"/>
</svg>
