<svg width="445" height="377" viewBox="0 0 445 377" fill="none" xmlns="http://www.w3.org/2000/svg">
<g clip-path="url(#clip0_804_35)">
<path d="M228.5 313C297.259 313 353 257.259 353 188.5C353 119.741 297.259 64 228.5 64C159.741 64 104 119.741 104 188.5C104 257.259 159.741 313 228.5 313Z" fill="white"/>
<path d="M229 351C318.47 351 391 278.47 391 189C391 99.5299 318.47 27 229 27C139.53 27 67 99.5299 67 189C67 278.47 139.53 351 229 351Z" stroke="white" stroke-width="5"/>
<g filter="url(#filter0_d_804_35)">
<path d="M221 216C267.944 216 306 177.944 306 131C306 84.0558 267.944 46 221 46C174.056 46 136 84.0558 136 131C136 177.944 174.056 216 221 216Z" fill="url(#paint0_radial_804_35)"/>
<path d="M221 216C267.944 216 306 177.944 306 131C306 84.0558 267.944 46 221 46C174.056 46 136 84.0558 136 131C136 177.944 174.056 216 221 216Z" fill="url(#paint1_radial_804_35)"/>
</g>
<g filter="url(#filter1_d_804_35)">
<path d="M81.5 220C110.495 220 134 196.495 134 167.5C134 138.505 110.495 115 81.5 115C52.5051 115 29 138.505 29 167.5C29 196.495 52.5051 220 81.5 220Z" fill="url(#paint2_linear_804_35)"/>
<path d="M81.5 220C110.495 220 134 196.495 134 167.5C134 138.505 110.495 115 81.5 115C52.5051 115 29 138.505 29 167.5C29 196.495 52.5051 220 81.5 220Z" fill="url(#paint3_radial_804_35)"/>
</g>
<g filter="url(#filter2_d_804_35)">
<path d="M341.5 284C370.495 284 394 260.495 394 231.5C394 202.505 370.495 179 341.5 179C312.505 179 289 202.505 289 231.5C289 260.495 312.505 284 341.5 284Z" fill="url(#paint4_linear_804_35)"/>
<path d="M341.5 284C370.495 284 394 260.495 394 231.5C394 202.505 370.495 179 341.5 179C312.505 179 289 202.505 289 231.5C289 260.495 312.505 284 341.5 284Z" fill="url(#paint5_radial_804_35)"/>
</g>
<g filter="url(#filter3_d_804_35)">
<path d="M355.5 168C373.449 168 388 153.449 388 135.5C388 117.551 373.449 103 355.5 103C337.551 103 323 117.551 323 135.5C323 153.449 337.551 168 355.5 168Z" fill="url(#paint6_linear_804_35)"/>
<path d="M355.5 168C373.449 168 388 153.449 388 135.5C388 117.551 373.449 103 355.5 103C337.551 103 323 117.551 323 135.5C323 153.449 337.551 168 355.5 168Z" fill="url(#paint7_radial_804_35)"/>
</g>
<g filter="url(#filter4_d_804_35)">
<path d="M144.5 282C162.449 282 177 267.449 177 249.5C177 231.551 162.449 217 144.5 217C126.551 217 112 231.551 112 249.5C112 267.449 126.551 282 144.5 282Z" fill="url(#paint8_radial_804_35)"/>
<path d="M144.5 282C162.449 282 177 267.449 177 249.5C177 231.551 162.449 217 144.5 217C126.551 217 112 231.551 112 249.5C112 267.449 126.551 282 144.5 282Z" fill="url(#paint9_radial_804_35)"/>
</g>
<g filter="url(#filter5_d_804_35)">
<path d="M329.5 88C347.449 88 362 73.4493 362 55.5C362 37.5507 347.449 23 329.5 23C311.551 23 297 37.5507 297 55.5C297 73.4493 311.551 88 329.5 88Z" fill="url(#paint10_linear_804_35)"/>
<path d="M329.5 88C347.449 88 362 73.4493 362 55.5C362 37.5507 347.449 23 329.5 23C311.551 23 297 37.5507 297 55.5C297 73.4493 311.551 88 329.5 88Z" fill="url(#paint11_radial_804_35)"/>
</g>
<path d="M173.966 124.259C174.416 124.457 174.767 124.754 175.019 125.15C175.271 125.546 175.397 126.014 175.397 126.554C175.397 127.328 175.154 127.958 174.668 128.444C174.182 128.912 173.561 129.146 172.805 129.146C172.049 129.146 171.419 128.903 170.915 128.417C170.429 127.931 170.186 127.31 170.186 126.554C170.186 126.194 170.231 125.834 170.321 125.474C170.411 125.114 170.609 124.574 170.915 123.854L172.481 119.966H175.154L173.966 124.259ZM187.62 140.324C185.694 140.324 183.948 139.91 182.382 139.082C180.834 138.236 179.61 137.075 178.71 135.599C177.828 134.105 177.387 132.422 177.387 130.55C177.387 128.678 177.828 127.004 178.71 125.528C179.61 124.034 180.834 122.873 182.382 122.045C183.948 121.199 185.703 120.776 187.647 120.776C189.285 120.776 190.761 121.064 192.075 121.64C193.407 122.216 194.523 123.044 195.423 124.124L192.615 126.716C191.337 125.24 189.753 124.502 187.863 124.502C186.693 124.502 185.649 124.763 184.731 125.285C183.813 125.789 183.093 126.5 182.571 127.418C182.067 128.336 181.815 129.38 181.815 130.55C181.815 131.72 182.067 132.764 182.571 133.682C183.093 134.6 183.813 135.32 184.731 135.842C185.649 136.346 186.693 136.598 187.863 136.598C189.753 136.598 191.337 135.851 192.615 134.357L195.423 136.949C194.523 138.047 193.407 138.884 192.075 139.46C190.743 140.036 189.258 140.324 187.62 140.324ZM206.909 125.258C208.709 125.258 210.158 125.798 211.256 126.878C212.372 127.958 212.93 129.56 212.93 131.684V140H208.718V132.332C208.718 131.18 208.466 130.325 207.962 129.767C207.458 129.191 206.729 128.903 205.775 128.903C204.713 128.903 203.867 129.236 203.237 129.902C202.607 130.55 202.292 131.522 202.292 132.818V140H198.08V119.966H202.292V126.986C202.85 126.428 203.525 126.005 204.317 125.717C205.109 125.411 205.973 125.258 206.909 125.258ZM231.135 132.791C231.135 132.845 231.108 133.223 231.054 133.925H220.065C220.263 134.825 220.731 135.536 221.469 136.058C222.207 136.58 223.125 136.841 224.223 136.841C224.979 136.841 225.645 136.733 226.221 136.517C226.815 136.283 227.364 135.923 227.868 135.437L230.109 137.867C228.741 139.433 226.743 140.216 224.115 140.216C222.477 140.216 221.028 139.901 219.768 139.271C218.508 138.623 217.536 137.732 216.852 136.598C216.168 135.464 215.826 134.177 215.826 132.737C215.826 131.315 216.159 130.037 216.825 128.903C217.509 127.751 218.436 126.86 219.606 126.23C220.794 125.582 222.117 125.258 223.575 125.258C224.997 125.258 226.284 125.564 227.436 126.176C228.588 126.788 229.488 127.67 230.136 128.822C230.802 129.956 231.135 131.279 231.135 132.791ZM223.602 128.444C222.648 128.444 221.847 128.714 221.199 129.254C220.551 129.794 220.155 130.532 220.011 131.468H227.166C227.022 130.55 226.626 129.821 225.978 129.281C225.33 128.723 224.538 128.444 223.602 128.444ZM240.959 140.216C239.411 140.216 238.016 139.901 236.774 139.271C235.55 138.623 234.587 137.732 233.885 136.598C233.201 135.464 232.859 134.177 232.859 132.737C232.859 131.297 233.201 130.01 233.885 128.876C234.587 127.742 235.55 126.86 236.774 126.23C238.016 125.582 239.411 125.258 240.959 125.258C242.489 125.258 243.821 125.582 244.955 126.23C246.107 126.86 246.944 127.769 247.466 128.957L244.199 130.712C243.443 129.38 242.354 128.714 240.932 128.714C239.834 128.714 238.925 129.074 238.205 129.794C237.485 130.514 237.125 131.495 237.125 132.737C237.125 133.979 237.485 134.96 238.205 135.68C238.925 136.4 239.834 136.76 240.932 136.76C242.372 136.76 243.461 136.094 244.199 134.762L247.466 136.544C246.944 137.696 246.107 138.596 244.955 139.244C243.821 139.892 242.489 140.216 240.959 140.216ZM256.023 134.303L253.998 136.301V140H249.786V119.966H253.998V131.306L260.154 125.474H265.176L259.128 131.63L265.716 140H260.613L256.023 134.303ZM269.23 119.75C269.986 119.75 270.607 119.993 271.093 120.479C271.579 120.947 271.822 121.568 271.822 122.342C271.822 122.702 271.777 123.062 271.687 123.422C271.597 123.782 271.408 124.322 271.12 125.042L269.554 128.93H266.881L268.042 124.664C267.592 124.466 267.241 124.169 266.989 123.773C266.737 123.377 266.611 122.9 266.611 122.342C266.611 121.568 266.854 120.947 267.34 120.479C267.844 119.993 268.474 119.75 269.23 119.75Z" fill="white"/>
<path d="M320.102 226.625V238H317.766V226.625H320.102ZM323.602 226.625V228.461H314.32V226.625H323.602ZM326.5 231.391V238H324.25V229.547H326.367L326.5 231.391ZM329.047 229.492L329.008 231.578C328.898 231.562 328.766 231.549 328.609 231.539C328.458 231.523 328.32 231.516 328.195 231.516C327.878 231.516 327.602 231.557 327.367 231.641C327.138 231.719 326.945 231.836 326.789 231.992C326.638 232.148 326.523 232.339 326.445 232.562C326.372 232.786 326.331 233.042 326.32 233.328L325.867 233.188C325.867 232.641 325.922 232.138 326.031 231.68C326.141 231.216 326.299 230.812 326.508 230.469C326.721 230.125 326.982 229.859 327.289 229.672C327.596 229.484 327.948 229.391 328.344 229.391C328.469 229.391 328.596 229.401 328.727 229.422C328.857 229.438 328.964 229.461 329.047 229.492ZM335.109 235.977V229.547H337.359V238H335.242L335.109 235.977ZM335.359 234.242L336.023 234.227C336.023 234.789 335.958 235.312 335.828 235.797C335.698 236.276 335.503 236.693 335.242 237.047C334.982 237.396 334.654 237.669 334.258 237.867C333.862 238.06 333.396 238.156 332.859 238.156C332.448 238.156 332.068 238.099 331.719 237.984C331.375 237.865 331.078 237.68 330.828 237.43C330.583 237.174 330.391 236.849 330.25 236.453C330.115 236.052 330.047 235.57 330.047 235.008V229.547H332.297V235.023C332.297 235.273 332.326 235.484 332.383 235.656C332.445 235.828 332.531 235.969 332.641 236.078C332.75 236.188 332.878 236.266 333.023 236.312C333.174 236.359 333.341 236.383 333.523 236.383C333.987 236.383 334.352 236.289 334.617 236.102C334.888 235.914 335.078 235.659 335.188 235.336C335.302 235.008 335.359 234.643 335.359 234.242ZM343.648 233.945H340.75V232.117H343.648C344.096 232.117 344.461 232.044 344.742 231.898C345.023 231.747 345.229 231.539 345.359 231.273C345.49 231.008 345.555 230.708 345.555 230.375C345.555 230.036 345.49 229.721 345.359 229.43C345.229 229.138 345.023 228.904 344.742 228.727C344.461 228.549 344.096 228.461 343.648 228.461H341.562V238H339.219V226.625H343.648C344.539 226.625 345.302 226.786 345.938 227.109C346.578 227.427 347.068 227.867 347.406 228.43C347.745 228.992 347.914 229.635 347.914 230.359C347.914 231.094 347.745 231.729 347.406 232.266C347.068 232.802 346.578 233.216 345.938 233.508C345.302 233.799 344.539 233.945 343.648 233.945ZM353.859 236.094V232.328C353.859 232.057 353.815 231.826 353.727 231.633C353.638 231.435 353.5 231.281 353.312 231.172C353.13 231.062 352.893 231.008 352.602 231.008C352.352 231.008 352.135 231.052 351.953 231.141C351.771 231.224 351.63 231.346 351.531 231.508C351.432 231.664 351.383 231.849 351.383 232.062H349.133C349.133 231.703 349.216 231.362 349.383 231.039C349.549 230.716 349.792 230.432 350.109 230.188C350.427 229.938 350.805 229.742 351.242 229.602C351.685 229.461 352.18 229.391 352.727 229.391C353.383 229.391 353.966 229.5 354.477 229.719C354.987 229.938 355.388 230.266 355.68 230.703C355.977 231.141 356.125 231.688 356.125 232.344V235.961C356.125 236.424 356.154 236.805 356.211 237.102C356.268 237.393 356.352 237.648 356.461 237.867V238H354.188C354.078 237.771 353.995 237.484 353.938 237.141C353.885 236.792 353.859 236.443 353.859 236.094ZM354.156 232.852L354.172 234.125H352.914C352.617 234.125 352.359 234.159 352.141 234.227C351.922 234.294 351.742 234.391 351.602 234.516C351.461 234.635 351.357 234.776 351.289 234.938C351.227 235.099 351.195 235.276 351.195 235.469C351.195 235.661 351.24 235.836 351.328 235.992C351.417 236.143 351.544 236.263 351.711 236.352C351.878 236.435 352.073 236.477 352.297 236.477C352.635 236.477 352.93 236.409 353.18 236.273C353.43 236.138 353.622 235.971 353.758 235.773C353.898 235.576 353.971 235.388 353.977 235.211L354.57 236.164C354.487 236.378 354.372 236.599 354.227 236.828C354.086 237.057 353.906 237.273 353.688 237.477C353.469 237.674 353.206 237.839 352.898 237.969C352.591 238.094 352.227 238.156 351.805 238.156C351.268 238.156 350.781 238.049 350.344 237.836C349.911 237.617 349.568 237.318 349.312 236.938C349.062 236.552 348.938 236.115 348.938 235.625C348.938 235.182 349.021 234.789 349.188 234.445C349.354 234.102 349.599 233.812 349.922 233.578C350.25 233.339 350.659 233.159 351.148 233.039C351.638 232.914 352.206 232.852 352.852 232.852H354.156ZM360.234 229.547V238H357.977V229.547H360.234ZM357.836 227.344C357.836 227.016 357.951 226.745 358.18 226.531C358.409 226.318 358.716 226.211 359.102 226.211C359.482 226.211 359.786 226.318 360.016 226.531C360.25 226.745 360.367 227.016 360.367 227.344C360.367 227.672 360.25 227.943 360.016 228.156C359.786 228.37 359.482 228.477 359.102 228.477C358.716 228.477 358.409 228.37 358.18 228.156C357.951 227.943 357.836 227.672 357.836 227.344ZM367.086 236.156V226H369.352V238H367.312L367.086 236.156ZM361.742 233.875V233.711C361.742 233.065 361.815 232.479 361.961 231.953C362.107 231.422 362.32 230.966 362.602 230.586C362.883 230.206 363.229 229.911 363.641 229.703C364.052 229.495 364.521 229.391 365.047 229.391C365.542 229.391 365.974 229.495 366.344 229.703C366.719 229.911 367.036 230.208 367.297 230.594C367.562 230.974 367.776 231.424 367.938 231.945C368.099 232.461 368.216 233.026 368.289 233.641V234C368.216 234.589 368.099 235.135 367.938 235.641C367.776 236.146 367.562 236.589 367.297 236.969C367.036 237.344 366.719 237.635 366.344 237.844C365.969 238.052 365.531 238.156 365.031 238.156C364.505 238.156 364.036 238.049 363.625 237.836C363.219 237.622 362.875 237.323 362.594 236.938C362.318 236.552 362.107 236.099 361.961 235.578C361.815 235.057 361.742 234.49 361.742 233.875ZM363.992 233.711V233.875C363.992 234.224 364.018 234.549 364.07 234.852C364.128 235.154 364.219 235.422 364.344 235.656C364.474 235.885 364.641 236.065 364.844 236.195C365.052 236.32 365.305 236.383 365.602 236.383C365.987 236.383 366.305 236.297 366.555 236.125C366.805 235.948 366.995 235.706 367.125 235.398C367.26 235.091 367.339 234.737 367.359 234.336V233.312C367.344 232.984 367.297 232.69 367.219 232.43C367.146 232.164 367.036 231.938 366.891 231.75C366.75 231.562 366.573 231.417 366.359 231.312C366.151 231.208 365.904 231.156 365.617 231.156C365.326 231.156 365.076 231.224 364.867 231.359C364.659 231.49 364.49 231.669 364.359 231.898C364.234 232.128 364.141 232.398 364.078 232.711C364.021 233.018 363.992 233.352 363.992 233.711Z" fill="white"/>
<path d="M123.609 247.836V246.963C123.609 246.709 123.658 246.447 123.756 246.178C123.854 245.908 123.982 245.654 124.143 245.416C124.303 245.174 124.479 244.969 124.67 244.801L125.455 245.258C125.314 245.492 125.193 245.744 125.092 246.014C124.99 246.283 124.939 246.6 124.939 246.963V247.836H123.609ZM131.004 251.768C131.004 251.615 130.98 251.479 130.934 251.357C130.891 251.232 130.809 251.119 130.688 251.018C130.566 250.912 130.396 250.809 130.178 250.707C129.959 250.605 129.676 250.5 129.328 250.391C128.941 250.266 128.574 250.125 128.227 249.969C127.883 249.812 127.578 249.631 127.312 249.424C127.051 249.213 126.844 248.969 126.691 248.691C126.543 248.414 126.469 248.092 126.469 247.725C126.469 247.369 126.547 247.047 126.703 246.758C126.859 246.465 127.078 246.215 127.359 246.008C127.641 245.797 127.973 245.635 128.355 245.521C128.742 245.408 129.166 245.352 129.627 245.352C130.256 245.352 130.805 245.465 131.273 245.691C131.742 245.918 132.105 246.229 132.363 246.623C132.625 247.018 132.756 247.469 132.756 247.977H131.01C131.01 247.727 130.957 247.508 130.852 247.32C130.75 247.129 130.594 246.979 130.383 246.869C130.176 246.76 129.914 246.705 129.598 246.705C129.293 246.705 129.039 246.752 128.836 246.846C128.633 246.936 128.48 247.059 128.379 247.215C128.277 247.367 128.227 247.539 128.227 247.73C128.227 247.875 128.262 248.006 128.332 248.123C128.406 248.24 128.516 248.35 128.66 248.451C128.805 248.553 128.982 248.648 129.193 248.738C129.404 248.828 129.648 248.916 129.926 249.002C130.391 249.143 130.799 249.301 131.15 249.477C131.506 249.652 131.803 249.85 132.041 250.068C132.279 250.287 132.459 250.535 132.58 250.812C132.701 251.09 132.762 251.404 132.762 251.756C132.762 252.127 132.689 252.459 132.545 252.752C132.4 253.045 132.191 253.293 131.918 253.496C131.645 253.699 131.318 253.854 130.939 253.959C130.561 254.064 130.137 254.117 129.668 254.117C129.246 254.117 128.83 254.062 128.42 253.953C128.01 253.84 127.637 253.67 127.301 253.443C126.969 253.217 126.703 252.928 126.504 252.576C126.305 252.225 126.205 251.809 126.205 251.328H127.969C127.969 251.594 128.01 251.818 128.092 252.002C128.174 252.186 128.289 252.334 128.438 252.447C128.59 252.561 128.77 252.643 128.977 252.693C129.188 252.744 129.418 252.77 129.668 252.77C129.973 252.77 130.223 252.727 130.418 252.641C130.617 252.555 130.764 252.436 130.857 252.283C130.955 252.131 131.004 251.959 131.004 251.768ZM137.273 252.57V249.746C137.273 249.543 137.24 249.369 137.174 249.225C137.107 249.076 137.004 248.961 136.863 248.879C136.727 248.797 136.549 248.756 136.33 248.756C136.143 248.756 135.98 248.789 135.844 248.855C135.707 248.918 135.602 249.01 135.527 249.131C135.453 249.248 135.416 249.387 135.416 249.547H133.729C133.729 249.277 133.791 249.021 133.916 248.779C134.041 248.537 134.223 248.324 134.461 248.141C134.699 247.953 134.982 247.807 135.311 247.701C135.643 247.596 136.014 247.543 136.424 247.543C136.916 247.543 137.354 247.625 137.736 247.789C138.119 247.953 138.42 248.199 138.639 248.527C138.861 248.855 138.973 249.266 138.973 249.758V252.471C138.973 252.818 138.994 253.104 139.037 253.326C139.08 253.545 139.143 253.736 139.225 253.9V254H137.52C137.438 253.828 137.375 253.613 137.332 253.355C137.293 253.094 137.273 252.832 137.273 252.57ZM137.496 250.139L137.508 251.094H136.564C136.342 251.094 136.148 251.119 135.984 251.17C135.82 251.221 135.686 251.293 135.58 251.387C135.475 251.477 135.396 251.582 135.346 251.703C135.299 251.824 135.275 251.957 135.275 252.102C135.275 252.246 135.309 252.377 135.375 252.494C135.441 252.607 135.537 252.697 135.662 252.764C135.787 252.826 135.934 252.857 136.102 252.857C136.355 252.857 136.576 252.807 136.764 252.705C136.951 252.604 137.096 252.479 137.197 252.33C137.303 252.182 137.357 252.041 137.361 251.908L137.807 252.623C137.744 252.783 137.658 252.949 137.549 253.121C137.443 253.293 137.309 253.455 137.145 253.607C136.98 253.756 136.783 253.879 136.553 253.977C136.322 254.07 136.049 254.117 135.732 254.117C135.33 254.117 134.965 254.037 134.637 253.877C134.312 253.713 134.055 253.488 133.863 253.203C133.676 252.914 133.582 252.586 133.582 252.219C133.582 251.887 133.645 251.592 133.77 251.334C133.895 251.076 134.078 250.859 134.32 250.684C134.566 250.504 134.873 250.369 135.24 250.279C135.607 250.186 136.033 250.139 136.518 250.139H137.496ZM142.336 252.77L143.742 247.66H145.506L143.367 254H142.301L142.336 252.77ZM141.369 247.66L142.781 252.775L142.811 254H141.738L139.6 247.66H141.369ZM148.043 247.66V254H146.35V247.66H148.043ZM146.244 246.008C146.244 245.762 146.33 245.559 146.502 245.398C146.674 245.238 146.904 245.158 147.193 245.158C147.479 245.158 147.707 245.238 147.879 245.398C148.055 245.559 148.143 245.762 148.143 246.008C148.143 246.254 148.055 246.457 147.879 246.617C147.707 246.777 147.479 246.857 147.193 246.857C146.904 246.857 146.674 246.777 146.502 246.617C146.33 246.457 146.244 246.254 146.244 246.008ZM151.09 249.014V254H149.402V247.66H150.984L151.09 249.014ZM150.844 250.607H150.387C150.387 250.139 150.447 249.717 150.568 249.342C150.689 248.963 150.859 248.641 151.078 248.375C151.297 248.105 151.557 247.9 151.857 247.76C152.162 247.615 152.502 247.543 152.877 247.543C153.174 247.543 153.445 247.586 153.691 247.672C153.938 247.758 154.148 247.895 154.324 248.082C154.504 248.27 154.641 248.518 154.734 248.826C154.832 249.135 154.881 249.512 154.881 249.957V254H153.182V249.951C153.182 249.67 153.143 249.451 153.064 249.295C152.986 249.139 152.871 249.029 152.719 248.967C152.57 248.9 152.387 248.867 152.168 248.867C151.941 248.867 151.744 248.912 151.576 249.002C151.412 249.092 151.275 249.217 151.166 249.377C151.061 249.533 150.98 249.717 150.926 249.928C150.871 250.139 150.844 250.365 150.844 250.607ZM160.178 247.66H161.707V253.789C161.707 254.367 161.578 254.857 161.32 255.26C161.066 255.666 160.711 255.973 160.254 256.18C159.797 256.391 159.266 256.496 158.66 256.496C158.395 256.496 158.113 256.461 157.816 256.391C157.523 256.32 157.242 256.211 156.973 256.062C156.707 255.914 156.484 255.727 156.305 255.5L157.049 254.504C157.244 254.73 157.471 254.906 157.729 255.031C157.986 255.16 158.271 255.225 158.584 255.225C158.889 255.225 159.146 255.168 159.357 255.055C159.568 254.945 159.73 254.783 159.844 254.568C159.957 254.357 160.014 254.102 160.014 253.801V249.125L160.178 247.66ZM155.912 250.906V250.783C155.912 250.299 155.971 249.859 156.088 249.465C156.209 249.066 156.379 248.725 156.598 248.439C156.82 248.154 157.09 247.934 157.406 247.777C157.723 247.621 158.08 247.543 158.479 247.543C158.9 247.543 159.254 247.621 159.539 247.777C159.824 247.934 160.059 248.156 160.242 248.445C160.426 248.73 160.568 249.068 160.67 249.459C160.775 249.846 160.857 250.27 160.916 250.73V251C160.857 251.441 160.77 251.852 160.652 252.23C160.535 252.609 160.381 252.941 160.189 253.227C159.998 253.508 159.76 253.727 159.475 253.883C159.193 254.039 158.857 254.117 158.467 254.117C158.076 254.117 157.723 254.037 157.406 253.877C157.094 253.717 156.826 253.492 156.604 253.203C156.381 252.914 156.209 252.574 156.088 252.184C155.971 251.793 155.912 251.367 155.912 250.906ZM157.6 250.783V250.906C157.6 251.168 157.625 251.412 157.676 251.639C157.727 251.865 157.805 252.066 157.91 252.242C158.02 252.414 158.154 252.549 158.314 252.646C158.479 252.74 158.672 252.787 158.895 252.787C159.203 252.787 159.455 252.723 159.65 252.594C159.846 252.461 159.992 252.279 160.09 252.049C160.188 251.818 160.244 251.553 160.26 251.252V250.484C160.252 250.238 160.219 250.018 160.16 249.822C160.102 249.623 160.02 249.453 159.914 249.312C159.809 249.172 159.672 249.062 159.504 248.984C159.336 248.906 159.137 248.867 158.906 248.867C158.684 248.867 158.49 248.918 158.326 249.02C158.166 249.117 158.031 249.252 157.922 249.424C157.816 249.596 157.736 249.799 157.682 250.033C157.627 250.264 157.6 250.514 157.6 250.783ZM164.561 245V245.891C164.561 246.145 164.512 246.406 164.414 246.676C164.32 246.945 164.193 247.201 164.033 247.443C163.873 247.682 163.697 247.885 163.506 248.053L162.715 247.596C162.859 247.365 162.982 247.115 163.084 246.846C163.186 246.572 163.236 246.256 163.236 245.896V245H164.561Z" fill="white"/>
<path d="M321.707 57.1699H323.459C323.424 57.7441 323.266 58.2539 322.984 58.6992C322.707 59.1445 322.318 59.4922 321.818 59.7422C321.322 59.9922 320.725 60.1172 320.025 60.1172C319.479 60.1172 318.988 60.0234 318.555 59.8359C318.121 59.6445 317.75 59.3711 317.441 59.0156C317.137 58.6602 316.904 58.2305 316.744 57.7266C316.584 57.2227 316.504 56.6582 316.504 56.0332V55.4414C316.504 54.8164 316.586 54.252 316.75 53.748C316.918 53.2402 317.156 52.8086 317.465 52.4531C317.777 52.0977 318.15 51.8242 318.584 51.6328C319.018 51.4414 319.502 51.3457 320.037 51.3457C320.748 51.3457 321.348 51.4746 321.836 51.7324C322.328 51.9902 322.709 52.3457 322.979 52.7988C323.252 53.252 323.416 53.7676 323.471 54.3457H321.713C321.693 54.002 321.625 53.7109 321.508 53.4727C321.391 53.2305 321.213 53.0488 320.975 52.9277C320.74 52.8027 320.428 52.7402 320.037 52.7402C319.744 52.7402 319.488 52.7949 319.27 52.9043C319.051 53.0137 318.867 53.1797 318.719 53.4023C318.57 53.625 318.459 53.9062 318.385 54.2461C318.314 54.582 318.279 54.9766 318.279 55.4297V56.0332C318.279 56.4746 318.312 56.8633 318.379 57.1992C318.445 57.5312 318.547 57.8125 318.684 58.043C318.824 58.2695 319.004 58.4414 319.223 58.5586C319.445 58.6719 319.713 58.7285 320.025 58.7285C320.393 58.7285 320.695 58.6699 320.934 58.5527C321.172 58.4355 321.354 58.2617 321.479 58.0312C321.607 57.8008 321.684 57.5137 321.707 57.1699ZM327.93 58.5703V55.7461C327.93 55.543 327.896 55.3691 327.83 55.2246C327.764 55.0762 327.66 54.9609 327.52 54.8789C327.383 54.7969 327.205 54.7559 326.986 54.7559C326.799 54.7559 326.637 54.7891 326.5 54.8555C326.363 54.918 326.258 55.0098 326.184 55.1309C326.109 55.248 326.072 55.3867 326.072 55.5469H324.385C324.385 55.2773 324.447 55.0215 324.572 54.7793C324.697 54.5371 324.879 54.3242 325.117 54.1406C325.355 53.9531 325.639 53.8066 325.967 53.7012C326.299 53.5957 326.67 53.543 327.08 53.543C327.572 53.543 328.01 53.625 328.393 53.7891C328.775 53.9531 329.076 54.1992 329.295 54.5273C329.518 54.8555 329.629 55.2656 329.629 55.7578V58.4707C329.629 58.8184 329.65 59.1035 329.693 59.3262C329.736 59.5449 329.799 59.7363 329.881 59.9004V60H328.176C328.094 59.8281 328.031 59.6133 327.988 59.3555C327.949 59.0938 327.93 58.832 327.93 58.5703ZM328.152 56.1387L328.164 57.0938H327.221C326.998 57.0938 326.805 57.1191 326.641 57.1699C326.477 57.2207 326.342 57.293 326.236 57.3867C326.131 57.4766 326.053 57.582 326.002 57.7031C325.955 57.8242 325.932 57.957 325.932 58.1016C325.932 58.2461 325.965 58.377 326.031 58.4941C326.098 58.6074 326.193 58.6973 326.318 58.7637C326.443 58.8262 326.59 58.8574 326.758 58.8574C327.012 58.8574 327.232 58.8066 327.42 58.7051C327.607 58.6035 327.752 58.4785 327.854 58.3301C327.959 58.1816 328.014 58.041 328.018 57.9082L328.463 58.623C328.4 58.7832 328.314 58.9492 328.205 59.1211C328.1 59.293 327.965 59.4551 327.801 59.6074C327.637 59.7559 327.439 59.8789 327.209 59.9766C326.979 60.0703 326.705 60.1172 326.389 60.1172C325.986 60.1172 325.621 60.0371 325.293 59.877C324.969 59.7129 324.711 59.4883 324.52 59.2031C324.332 58.9141 324.238 58.5859 324.238 58.2188C324.238 57.8867 324.301 57.5918 324.426 57.334C324.551 57.0762 324.734 56.8594 324.977 56.6836C325.223 56.5039 325.529 56.3691 325.896 56.2793C326.264 56.1855 326.689 56.1387 327.174 56.1387H328.152ZM334.357 58.248C334.357 58.127 334.322 58.0176 334.252 57.9199C334.182 57.8223 334.051 57.7324 333.859 57.6504C333.672 57.5645 333.4 57.4863 333.045 57.416C332.725 57.3457 332.426 57.2578 332.148 57.1523C331.875 57.043 331.637 56.9121 331.434 56.7598C331.234 56.6074 331.078 56.4277 330.965 56.2207C330.852 56.0098 330.795 55.7695 330.795 55.5C330.795 55.2344 330.852 54.9844 330.965 54.75C331.082 54.5156 331.248 54.3086 331.463 54.1289C331.682 53.9453 331.947 53.8027 332.26 53.7012C332.576 53.5957 332.932 53.543 333.326 53.543C333.877 53.543 334.35 53.6309 334.744 53.8066C335.143 53.9824 335.447 54.2246 335.658 54.5332C335.873 54.8379 335.98 55.1855 335.98 55.5762H334.293C334.293 55.4121 334.258 55.2656 334.188 55.1367C334.121 55.0039 334.016 54.9004 333.871 54.8262C333.73 54.748 333.547 54.709 333.32 54.709C333.133 54.709 332.971 54.7422 332.834 54.8086C332.697 54.8711 332.592 54.957 332.518 55.0664C332.447 55.1719 332.412 55.2891 332.412 55.418C332.412 55.5156 332.432 55.6035 332.471 55.6816C332.514 55.7559 332.582 55.8242 332.676 55.8867C332.77 55.9492 332.891 56.0078 333.039 56.0625C333.191 56.1133 333.379 56.1602 333.602 56.2031C334.059 56.2969 334.467 56.4199 334.826 56.5723C335.186 56.7207 335.471 56.9238 335.682 57.1816C335.893 57.4355 335.998 57.7695 335.998 58.1836C335.998 58.4648 335.936 58.7227 335.811 58.957C335.686 59.1914 335.506 59.3965 335.271 59.5723C335.037 59.7441 334.756 59.8789 334.428 59.9766C334.104 60.0703 333.738 60.1172 333.332 60.1172C332.742 60.1172 332.242 60.0117 331.832 59.8008C331.426 59.5898 331.117 59.3223 330.906 58.998C330.699 58.6699 330.596 58.334 330.596 57.9902H332.195C332.203 58.2207 332.262 58.4062 332.371 58.5469C332.484 58.6875 332.627 58.7891 332.799 58.8516C332.975 58.9141 333.164 58.9453 333.367 58.9453C333.586 58.9453 333.768 58.916 333.912 58.8574C334.057 58.7949 334.166 58.7129 334.24 58.6113C334.318 58.5059 334.357 58.3848 334.357 58.248ZM338.74 51V60H337.053V51H338.74ZM338.5 56.6074H338.037C338.041 56.166 338.1 55.7598 338.213 55.3887C338.326 55.0137 338.488 54.6895 338.699 54.416C338.91 54.1387 339.162 53.9238 339.455 53.7715C339.752 53.6191 340.08 53.543 340.439 53.543C340.752 53.543 341.035 53.5879 341.289 53.6777C341.547 53.7637 341.768 53.9043 341.951 54.0996C342.139 54.291 342.283 54.543 342.385 54.8555C342.486 55.168 342.537 55.5469 342.537 55.9922V60H340.838V55.9805C340.838 55.6992 340.797 55.4785 340.715 55.3184C340.637 55.1543 340.521 55.0391 340.369 54.9727C340.221 54.9023 340.037 54.8672 339.818 54.8672C339.576 54.8672 339.369 54.9121 339.197 55.002C339.029 55.0918 338.895 55.2168 338.793 55.377C338.691 55.5332 338.617 55.7168 338.57 55.9277C338.523 56.1387 338.5 56.3652 338.5 56.6074Z" fill="white"/>
<path d="M346.102 136.256H343.91L343.898 135.049H345.738C346.062 135.049 346.328 135.008 346.535 134.926C346.742 134.84 346.896 134.717 346.998 134.557C347.104 134.393 347.156 134.193 347.156 133.959C347.156 133.693 347.105 133.479 347.004 133.314C346.906 133.15 346.752 133.031 346.541 132.957C346.334 132.883 346.066 132.846 345.738 132.846H344.52V140H342.762V131.469H345.738C346.234 131.469 346.678 131.516 347.068 131.609C347.463 131.703 347.797 131.846 348.07 132.037C348.344 132.229 348.553 132.471 348.697 132.764C348.842 133.053 348.914 133.396 348.914 133.795C348.914 134.146 348.834 134.471 348.674 134.768C348.518 135.064 348.27 135.307 347.93 135.494C347.594 135.682 347.154 135.785 346.611 135.805L346.102 136.256ZM346.025 140H343.43L344.115 138.629H346.025C346.334 138.629 346.586 138.58 346.781 138.482C346.977 138.381 347.121 138.244 347.215 138.072C347.309 137.9 347.355 137.703 347.355 137.48C347.355 137.23 347.312 137.014 347.227 136.83C347.145 136.646 347.012 136.506 346.828 136.408C346.645 136.307 346.402 136.256 346.102 136.256H344.408L344.42 135.049H346.529L346.934 135.523C347.453 135.516 347.871 135.607 348.188 135.799C348.508 135.986 348.74 136.23 348.885 136.531C349.033 136.832 349.107 137.154 349.107 137.498C349.107 138.045 348.988 138.506 348.75 138.881C348.512 139.252 348.162 139.531 347.701 139.719C347.244 139.906 346.686 140 346.025 140ZM353.742 138.57V135.746C353.742 135.543 353.709 135.369 353.643 135.225C353.576 135.076 353.473 134.961 353.332 134.879C353.195 134.797 353.018 134.756 352.799 134.756C352.611 134.756 352.449 134.789 352.312 134.855C352.176 134.918 352.07 135.01 351.996 135.131C351.922 135.248 351.885 135.387 351.885 135.547H350.197C350.197 135.277 350.26 135.021 350.385 134.779C350.51 134.537 350.691 134.324 350.93 134.141C351.168 133.953 351.451 133.807 351.779 133.701C352.111 133.596 352.482 133.543 352.893 133.543C353.385 133.543 353.822 133.625 354.205 133.789C354.588 133.953 354.889 134.199 355.107 134.527C355.33 134.855 355.441 135.266 355.441 135.758V138.471C355.441 138.818 355.463 139.104 355.506 139.326C355.549 139.545 355.611 139.736 355.693 139.9V140H353.988C353.906 139.828 353.844 139.613 353.801 139.355C353.762 139.094 353.742 138.832 353.742 138.57ZM353.965 136.139L353.977 137.094H353.033C352.811 137.094 352.617 137.119 352.453 137.17C352.289 137.221 352.154 137.293 352.049 137.387C351.943 137.477 351.865 137.582 351.814 137.703C351.768 137.824 351.744 137.957 351.744 138.102C351.744 138.246 351.777 138.377 351.844 138.494C351.91 138.607 352.006 138.697 352.131 138.764C352.256 138.826 352.402 138.857 352.57 138.857C352.824 138.857 353.045 138.807 353.232 138.705C353.42 138.604 353.564 138.479 353.666 138.33C353.771 138.182 353.826 138.041 353.83 137.908L354.275 138.623C354.213 138.783 354.127 138.949 354.018 139.121C353.912 139.293 353.777 139.455 353.613 139.607C353.449 139.756 353.252 139.879 353.021 139.977C352.791 140.07 352.518 140.117 352.201 140.117C351.799 140.117 351.434 140.037 351.105 139.877C350.781 139.713 350.523 139.488 350.332 139.203C350.145 138.914 350.051 138.586 350.051 138.219C350.051 137.887 350.113 137.592 350.238 137.334C350.363 137.076 350.547 136.859 350.789 136.684C351.035 136.504 351.342 136.369 351.709 136.279C352.076 136.186 352.502 136.139 352.986 136.139H353.965ZM358.395 135.014V140H356.707V133.66H358.289L358.395 135.014ZM358.148 136.607H357.691C357.691 136.139 357.752 135.717 357.873 135.342C357.994 134.963 358.164 134.641 358.383 134.375C358.602 134.105 358.861 133.9 359.162 133.76C359.467 133.615 359.807 133.543 360.182 133.543C360.479 133.543 360.75 133.586 360.996 133.672C361.242 133.758 361.453 133.895 361.629 134.082C361.809 134.27 361.945 134.518 362.039 134.826C362.137 135.135 362.186 135.512 362.186 135.957V140H360.486V135.951C360.486 135.67 360.447 135.451 360.369 135.295C360.291 135.139 360.176 135.029 360.023 134.967C359.875 134.9 359.691 134.867 359.473 134.867C359.246 134.867 359.049 134.912 358.881 135.002C358.717 135.092 358.58 135.217 358.471 135.377C358.365 135.533 358.285 135.717 358.23 135.928C358.176 136.139 358.148 136.365 358.148 136.607ZM365.156 130.994V140H363.469V130.994H365.156ZM369.152 133.66L366.398 136.801L364.922 138.295L364.307 137.076L365.479 135.588L367.125 133.66H369.152ZM367.4 140L365.525 137.07L366.691 136.051L369.346 140H367.4Z" fill="white"/>
<path d="M73.627 159.781V174H70.707V159.781H73.627ZM78.002 159.781V162.076H66.4004V159.781H78.002ZM83.7148 171.617V166.91C83.7148 166.572 83.6595 166.282 83.5488 166.041C83.4382 165.794 83.2656 165.602 83.0312 165.465C82.8034 165.328 82.5072 165.26 82.1426 165.26C81.8301 165.26 81.5599 165.315 81.332 165.426C81.1042 165.53 80.9284 165.683 80.8047 165.885C80.681 166.08 80.6191 166.311 80.6191 166.578H77.8066C77.8066 166.129 77.9108 165.702 78.1191 165.299C78.3275 164.895 78.6302 164.54 79.0273 164.234C79.4245 163.922 79.8965 163.678 80.4434 163.502C80.9967 163.326 81.6152 163.238 82.2988 163.238C83.1191 163.238 83.8483 163.375 84.4863 163.648C85.1243 163.922 85.6257 164.332 85.9902 164.879C86.3613 165.426 86.5469 166.109 86.5469 166.93V171.451C86.5469 172.031 86.5827 172.506 86.6543 172.877C86.7259 173.242 86.8301 173.561 86.9668 173.834V174H84.125C83.9883 173.714 83.8841 173.355 83.8125 172.926C83.7474 172.49 83.7148 172.053 83.7148 171.617ZM84.0859 167.564L84.1055 169.156H82.5332C82.1621 169.156 81.8398 169.199 81.5664 169.283C81.293 169.368 81.0684 169.488 80.8926 169.645C80.7168 169.794 80.5866 169.97 80.502 170.172C80.4238 170.374 80.3848 170.595 80.3848 170.836C80.3848 171.077 80.4401 171.295 80.5508 171.49C80.6615 171.679 80.821 171.829 81.0293 171.939C81.2376 172.044 81.4818 172.096 81.7617 172.096C82.1849 172.096 82.5527 172.011 82.8652 171.842C83.1777 171.673 83.4186 171.464 83.5879 171.217C83.7637 170.969 83.8548 170.735 83.8613 170.514L84.6035 171.705C84.4993 171.972 84.3561 172.249 84.1738 172.535C83.998 172.822 83.7734 173.092 83.5 173.346C83.2266 173.593 82.8978 173.798 82.5137 173.961C82.1296 174.117 81.6738 174.195 81.1465 174.195C80.4759 174.195 79.8672 174.062 79.3203 173.795C78.7799 173.521 78.3503 173.147 78.0312 172.672C77.7188 172.19 77.5625 171.643 77.5625 171.031C77.5625 170.478 77.6667 169.986 77.875 169.557C78.0833 169.127 78.3893 168.766 78.793 168.473C79.2031 168.173 79.7142 167.949 80.3262 167.799C80.9382 167.643 81.6478 167.564 82.4551 167.564H84.0859ZM90.9805 163.434L92.7285 166.646L94.5254 163.434H97.5234L94.5352 168.6L97.6602 174H94.6523L92.748 170.602L90.8438 174H87.8359L90.9609 168.6L87.9727 163.434H90.9805Z" fill="white"/>
</g>
<defs>
<filter id="filter0_d_804_35" x="36" y="-4" width="370" height="370" filterUnits="userSpaceOnUse" color-interpolation-filters="sRGB">
<feFlood flood-opacity="0" result="BackgroundImageFix"/>
<feColorMatrix in="SourceAlpha" type="matrix" values="0 0 0 0 0 0 0 0 0 0 0 0 0 0 0 0 0 0 127 0" result="hardAlpha"/>
<feOffset dy="50"/>
<feGaussianBlur stdDeviation="50"/>
<feColorMatrix type="matrix" values="0 0 0 0 0.287945 0 0 0 0 0.690331 0 0 0 0 0.311159 0 0 0 0.511937 0"/>
<feBlend mode="normal" in2="BackgroundImageFix" result="effect1_dropShadow_804_35"/>
<feBlend mode="normal" in="SourceGraphic" in2="effect1_dropShadow_804_35" result="shape"/>
</filter>
<filter id="filter1_d_804_35" x="-71" y="65" width="305" height="305" filterUnits="userSpaceOnUse" color-interpolation-filters="sRGB">
<feFlood flood-opacity="0" result="BackgroundImageFix"/>
<feColorMatrix in="SourceAlpha" type="matrix" values="0 0 0 0 0 0 0 0 0 0 0 0 0 0 0 0 0 0 127 0" result="hardAlpha"/>
<feOffset dy="50"/>
<feGaussianBlur stdDeviation="50"/>
<feColorMatrix type="matrix" values="0 0 0 0 0 0 0 0 0 0.878634 0 0 0 0 0.984422 0 0 0 0.397864 0"/>
<feBlend mode="normal" in2="BackgroundImageFix" result="effect1_dropShadow_804_35"/>
<feBlend mode="normal" in="SourceGraphic" in2="effect1_dropShadow_804_35" result="shape"/>
</filter>
<filter id="filter2_d_804_35" x="189" y="129" width="305" height="305" filterUnits="userSpaceOnUse" color-interpolation-filters="sRGB">
<feFlood flood-opacity="0" result="BackgroundImageFix"/>
<feColorMatrix in="SourceAlpha" type="matrix" values="0 0 0 0 0 0 0 0 0 0 0 0 0 0 0 0 0 0 127 0" result="hardAlpha"/>
<feOffset dy="50"/>
<feGaussianBlur stdDeviation="50"/>
<feColorMatrix type="matrix" values="0 0 0 0 1 0 0 0 0 0 0 0 0 0 0 0 0 0 0.351125 0"/>
<feBlend mode="normal" in2="BackgroundImageFix" result="effect1_dropShadow_804_35"/>
<feBlend mode="normal" in="SourceGraphic" in2="effect1_dropShadow_804_35" result="shape"/>
</filter>
<filter id="filter3_d_804_35" x="223" y="53" width="265" height="265" filterUnits="userSpaceOnUse" color-interpolation-filters="sRGB">
<feFlood flood-opacity="0" result="BackgroundImageFix"/>
<feColorMatrix in="SourceAlpha" type="matrix" values="0 0 0 0 0 0 0 0 0 0 0 0 0 0 0 0 0 0 127 0" result="hardAlpha"/>
<feOffset dy="50"/>
<feGaussianBlur stdDeviation="50"/>
<feColorMatrix type="matrix" values="0 0 0 0 1 0 0 0 0 0.765416 0 0 0 0 0 0 0 0 1 0"/>
<feBlend mode="normal" in2="BackgroundImageFix" result="effect1_dropShadow_804_35"/>
<feBlend mode="normal" in="SourceGraphic" in2="effect1_dropShadow_804_35" result="shape"/>
</filter>
<filter id="filter4_d_804_35" x="12" y="167" width="265" height="265" filterUnits="userSpaceOnUse" color-interpolation-filters="sRGB">
<feFlood flood-opacity="0" result="BackgroundImageFix"/>
<feColorMatrix in="SourceAlpha" type="matrix" values="0 0 0 0 0 0 0 0 0 0 0 0 0 0 0 0 0 0 127 0" result="hardAlpha"/>
<feOffset dy="50"/>
<feGaussianBlur stdDeviation="50"/>
<feColorMatrix type="matrix" values="0 0 0 0 0.287945 0 0 0 0 0.690331 0 0 0 0 0.311159 0 0 0 0.511937 0"/>
<feBlend mode="normal" in2="BackgroundImageFix" result="effect1_dropShadow_804_35"/>
<feBlend mode="normal" in="SourceGraphic" in2="effect1_dropShadow_804_35" result="shape"/>
</filter>
<filter id="filter5_d_804_35" x="197" y="-27" width="265" height="265" filterUnits="userSpaceOnUse" color-interpolation-filters="sRGB">
<feFlood flood-opacity="0" result="BackgroundImageFix"/>
<feColorMatrix in="SourceAlpha" type="matrix" values="0 0 0 0 0 0 0 0 0 0 0 0 0 0 0 0 0 0 127 0" result="hardAlpha"/>
<feOffset dy="50"/>
<feGaussianBlur stdDeviation="50"/>
<feColorMatrix type="matrix" values="0 0 0 0 0 0 0 0 0 0.878634 0 0 0 0 0.984422 0 0 0 0.397864 0"/>
<feBlend mode="normal" in2="BackgroundImageFix" result="effect1_dropShadow_804_35"/>
<feBlend mode="normal" in="SourceGraphic" in2="effect1_dropShadow_804_35" result="shape"/>
</filter>
<radialGradient id="paint0_radial_804_35" cx="0" cy="0" r="1" gradientUnits="userSpaceOnUse" gradientTransform="translate(269.216 61.3328) rotate(124.61) scale(255.74)">
<stop stop-color="#FDE869"/>
<stop offset="1" stop-color="#00B1C1"/>
</radialGradient>
<radialGradient id="paint1_radial_804_35" cx="0" cy="0" r="1" gradientUnits="userSpaceOnUse" gradientTransform="translate(245.028 98.752) rotate(180) scale(123.778)">
<stop stop-color="white" stop-opacity="0.304196"/>
<stop offset="0.52929" stop-opacity="0.193537"/>
<stop offset="1" stop-color="white" stop-opacity="0.428813"/>
</radialGradient>
<linearGradient id="paint2_linear_804_35" x1="-24.025" y1="168.55" x2="83.075" y2="274.6" gradientUnits="userSpaceOnUse">
<stop stop-color="#00EAF8"/>
<stop offset="1" stop-color="#6D42EF"/>
</linearGradient>
<radialGradient id="paint3_radial_804_35" cx="0" cy="0" r="1" gradientUnits="userSpaceOnUse" gradientTransform="translate(96.341 147.582) rotate(180) scale(76.4514)">
<stop stop-color="white" stop-opacity="0.304196"/>
<stop offset="0.52929" stop-opacity="0.193537"/>
<stop offset="1" stop-color="white" stop-opacity="0.428813"/>
</radialGradient>
<linearGradient id="paint4_linear_804_35" x1="236.5" y1="231.5" x2="341.5" y2="336.5" gradientUnits="userSpaceOnUse">
<stop stop-color="#FF1B1B"/>
<stop offset="1" stop-color="#880F0F"/>
</linearGradient>
<radialGradient id="paint5_radial_804_35" cx="0" cy="0" r="1" gradientUnits="userSpaceOnUse" gradientTransform="translate(356.341 211.582) rotate(180) scale(76.4514)">
<stop stop-color="white" stop-opacity="0.304196"/>
<stop offset="0.52929" stop-opacity="0.193537"/>
<stop offset="1" stop-color="white" stop-opacity="0.428813"/>
</radialGradient>
<linearGradient id="paint6_linear_804_35" x1="290.175" y1="136.15" x2="356.475" y2="201.8" gradientUnits="userSpaceOnUse">
<stop stop-color="#FFD529"/>
<stop offset="1" stop-color="#FD8440"/>
</linearGradient>
<radialGradient id="paint7_radial_804_35" cx="0" cy="0" r="1" gradientUnits="userSpaceOnUse" gradientTransform="translate(364.687 123.17) rotate(180) scale(47.327)">
<stop stop-color="white" stop-opacity="0.304196"/>
<stop offset="0.52929" stop-opacity="0.193537"/>
<stop offset="1" stop-color="white" stop-opacity="0.428813"/>
</radialGradient>
<radialGradient id="paint8_radial_804_35" cx="0" cy="0" r="1" gradientUnits="userSpaceOnUse" gradientTransform="translate(162.936 222.863) rotate(124.61) scale(97.7828)">
<stop stop-color="#FDE869"/>
<stop offset="1" stop-color="#00B1C1"/>
</radialGradient>
<radialGradient id="paint9_radial_804_35" cx="0" cy="0" r="1" gradientUnits="userSpaceOnUse" gradientTransform="translate(153.687 237.17) rotate(180) scale(47.327)">
<stop stop-color="white" stop-opacity="0.304196"/>
<stop offset="0.52929" stop-opacity="0.193537"/>
<stop offset="1" stop-color="white" stop-opacity="0.428813"/>
</radialGradient>
<linearGradient id="paint10_linear_804_35" x1="264.175" y1="56.15" x2="330.475" y2="121.8" gradientUnits="userSpaceOnUse">
<stop stop-color="#00EAF8"/>
<stop offset="1" stop-color="#6D42EF"/>
</linearGradient>
<radialGradient id="paint11_radial_804_35" cx="0" cy="0" r="1" gradientUnits="userSpaceOnUse" gradientTransform="translate(338.687 43.1701) rotate(180) scale(47.327)">
<stop stop-color="white" stop-opacity="0.304196"/>
<stop offset="0.52929" stop-opacity="0.193537"/>
<stop offset="1" stop-color="white" stop-opacity="0.428813"/>
</radialGradient>
<clipPath id="clip0_804_35">
<rect width="445" height="377" fill="white"/>
</clipPath>
</defs>
</svg>
